<svg height="600" preserveAspectRatio="xMidYMid meet" viewBox="0 0 450 449.999984" width="600" xmlns="http://www.w3.org/2000/svg" zoomAndPan="magnify"><g fill="#e6a6cd"><path d="m377.621094 367.339844c-.332032-.332032-5.957032-11.570313-78.78125-110.765625 50.644531-37.03125 64.878906-98.199219 47.335937-149.445313-6.953125-19.507812-14.234375-28.105468-17.546875-32.074218-3.640625-3.96875-4.632812-3.96875-5.292968-3.304688-.664063.660156-1.324219 1.320312.992187 6.28125 1.984375 4.960938 7.613281 13.554688 12.910156 32.070312 14.5625 53.234376-2.980469 109.441407-53.296875 140.855469-11.914062 7.273438-25.816406 13.554688-41.707031 17.191407-15.558594 3.636718-33.101563 5.289062-51.308594 3.304687-19.859375-2.3125-42.367187-8.925781-62.230469-23.804687-9.929687-7.273438-18.867187-16.53125-26.148437-27.113282-24.164063-34.386718-27.476563-80.675781-12.25-118.035156 5.296875-12.898438 12.25-25.460938 21.515625-35.710938 46.34375-52.902343 143.332031-60.835937 200.265625-6.28125 7.285156 6.941407 10.59375 11.570313 11.257813 11.242188.328124-.332031-2.320313-5.292969-9.269532-12.894531-51.308594-58.855469-157.566406-56.871094-209.867187.660156-10.261719 10.910156-18.203125 24.136719-24.164063 38.355469-17.875 41.988281-13.570312 92.246094 11.917969 129.609375 8.273437 11.902343 18.207031 22.484375 29.128906 30.417969 1.988281 1.652343 3.972657 2.976562 6.289063 4.296874-4.632813 24.46875-50.3125 139.863282-49.984375 139.53125-.328125.992188-.660157 2.316407-.660157 3.636719-.332031 2.316407-.332031 4.960938.332032 7.9375.328125 1.320313.992187 2.972657 1.984375 4.628907.992187 1.652343 2.316406 2.972656 3.972656 3.964843 3.308594 1.652344 6.621094 1.984375 9.929687 1.324219 2.648438-.660156 4.636719-1.324219 6.953126-2.316406 8.605468-3.964844 14.5625-9.917969 20.523437-13.222656 5.957031-3.308594 12.578125-4.628907 16.21875-2.316407 3.972656 1.984375 6.621094 7.605469 7.613281 13.886719 1.324219 6.613281 2.316406 14.878906 8.605469 22.152344 2.980469 3.308594 6.621094 5.621094 10.925781 6.945312 3.972656 1.320313 8.9375 1.652344 13.570313-.332031 3.972656-1.652344 6.953125-4.960937 8.605469-7.933594 1.65625-2.976562 2.648437-5.292969 3.640624-7.9375 1.988282-4.957031 3.3125-10.25 3.972657-15.207031 0-.332031 6.289062-131.265625 6.289062-131.925781 11.257813.660156 22.179688 0 32.773438-1.652344.992187 1.652344 1.984375 3.636719 2.976562 5.949219 19.53125 39.347656 26.484375 82.660156 42.371094 123.328125 1.988281 5.292969 4.304687 10.25 6.621094 15.542969 1.65625 2.972656 3.308593 5.617187 6.289062 8.265624 1.324219 1.320313 3.972657 2.972657 6.289063 3.304688 2.648437.660156 4.964844.332031 7.28125-.660156.996094-.664063 2.320312-1.324219 2.980468-2.316406.992188-.992188 1.65625-1.984376 2.316407-2.644532 6.289062-8.925781 6.621093-20.828125 9.269531-28.765625 1.324219-4.296875 3.972656-8.265625 6.289062-9.917969 2.648438-1.652343 5.296876-1.984374 8.605469-.660156 1.65625.660156 3.3125 1.652344 5.296875 2.972656 4.964844 3.636719 10.261719 9.921876 17.542969 13.886719 1.324219.664063 2.648437 1.324219 3.972656 1.65625 1.65625.660157 2.980469.988281 4.636719.988281 2.976562.332032 6.289062 0 9.265625-.660156 2.980469-.992187 5.960937-2.3125 8.277344-4.957031 2.316406-2.316406 3.972656-5.953125 4.632812-8.929687.664063-4.296876 0-7.933594-.992187-10.578126-1.324219-6.945312-4.304688-13.886718-8.9375-21.824218zm-200.929688 59.847656c-.992187 1.980469-1.652344 4.296875-2.644531 5.621094-.996094 1.320312-1.65625 2.3125-2.648437 2.644531-.996094.328125-2.320313.660156-3.972657 0-1.65625-.664063-3.640625-1.65625-4.964843-3.308594-.664063-.660156-1.324219-1.652343-1.65625-2.644531-.664063-.992188-.992188-2.3125-1.65625-3.636719-.992188-2.644531-1.652344-5.953125-2.316407-9.589843-.660156-3.636719-1.984375-7.933594-4.304687-11.902344-2.316406-3.96875-5.625-8.265625-10.589844-10.578125-4.964844-2.316407-10.261719-2.976563-15.226562-1.984375-4.964844.992187-8.9375 2.644531-12.910157 4.957031-7.945312 4.628906-13.242187 10.25-19.53125 13.226563-1.324219.660156-3.308593 1.324218-4.304687 1.652343-1.320313.332031-1.652344 0-1.652344 0s0 0-.332031-.328125c0-.332031-.332031-.664062-.332031-.992187-.328126-.992188-.328126-2.644531-.328126-3.96875 0-.660157.328126-1.324219.328126-2.3125 12.25-50.589844 40.386718-98.203125 41.710937-140.523438 19.859375 12.5625 41.042969 18.515625 59.914063 20.5.992187 0 1.652343 0 2.648437.332031-14.898437 60.503907-4.304687 114.730469-15.230469 142.835938zm197.949219-29.097656c0 .660156-.328125 1.324218-.992187 1.652344-.332032.660156-1.324219.992187-2.316407 1.324218-.992187.328125-2.648437.328125-3.972656.328125-.660156 0-1.324219-.328125-1.984375-.328125-.664062-.332031-1.324219-.664062-2.320312-.992187-2.976563-1.652344-6.289063-4.300781-9.929688-7.605469s-8.273438-6.945312-14.234375-9.257812c-2.976563-.992188-6.617187-1.984376-10.261719-1.652344-3.640625.328125-7.613281 1.984375-10.589844 3.964844-5.960937 4.628906-8.609374 10.582031-10.59375 16.203124-1.984374 5.953126-2.316406 11.574219-3.640624 16.203126-.664063 2.3125-1.324219 4.628906-2.316407 6.609374-.332031.992188-.996093 1.984376-1.324219 2.648438l-.332031.660156s0 0-.332031.328125c0 0-.328125 0-.660156 0-.332032 0 0 0-.992188-.660156-1.324218-.992187-2.648437-2.976563-3.644531-4.957031-2.316406-4.628906-4.632813-9.589844-6.949219-14.550782-17.214844-39.675781-27.476562-87.289062-49.320312-121.011718-.996094-1.65625-1.988282-3.308594-2.980469-4.628906 3.308594-.664063 6.621094-1.324219 9.929687-1.984376 17.214844-3.96875 32.441407-10.910156 45.679688-18.847656.664062-.332031.996094-.660156 1.65625-.992187 24.828125 54.886719 68.851562 97.539062 79.445312 125.3125 1.984376 4.628906 3.640626 9.917969 2.976563 12.234375zm0 0"/><path d="m230.648438 193.425781c-2.316407 0-4.964844-.332031-7.945313-.332031 1.65625-7.605469 3.3125-25.128906 4.636719-64.804688.332031-6.285156.332031-13.558593.332031-21.492187 0-4.296875 0-8.597656 0-12.894531 0-1.984375.328125-3.96875 0-5.953125-.332031-1.984375-.664063-3.304688-1.324219-4.628907-.664062-1.320312-1.65625-2.644531-2.648437-3.304687-1.324219-.992187-2.980469-1.652344-4.304688-1.652344-1.65625 0-2.980469 0-4.304687.988281l-4.632813 3.640626c-.660156.660156-1.65625 1.320312-2.316406 1.980468l-1.65625 1.65625-2.316406 2.3125c-3.640625 2.976563-6.953125 6.28125-9.929688 9.589844-5.960937 6.28125-11.253906 12.5625-15.558593 18.183594-8.605469 11.242187-13.570313 19.179687-12.578126 20.167968.992188.664063 7.613282-5.949218 17.542969-15.539062 4.964844-4.628906 10.921875-10.25 17.214844-15.871094 3.308594-2.972656 6.617187-5.621094 9.929687-8.59375l2.648438-1.984375.660156-.332031h.332032c.332031 0 .660156-.332031.660156-.332031.332031 0 .332031.332031.332031.664062 0 .328125 0 .328125-.332031.660157-.328125 3.96875-.328125 7.933593-.660156 11.574218-.332032 7.933594-.664063 15.207032-.992188 21.488282-1.324219 40.007812-.996094 57.53125.328125 65.136718-20.191406 0-45.015625 1.324219-45.347656 3.96875.332031 3.304688 42.039062 8.265625 61.570312 9.257813 35.417969 1.652343 36.410157-1.324219 36.742188-4.960938 0-3.636719-.664063-6.613281-36.082031-8.59375zm0 0"/></g></svg>