<svg height="600" preserveAspectRatio="xMidYMid meet" viewBox="0 0 450 449.999984" width="600" xmlns="http://www.w3.org/2000/svg" xmlns:xlink="http://www.w3.org/1999/xlink" zoomAndPan="magnify"><clipPath id="a"><path d="m0 7.03125h416v264.96875h-416zm0 0"/></clipPath><clipPath id="b"><path d="m17 238h389v204.78125h-389zm0 0"/></clipPath><g clip-path="url(#a)"><path d="m365.691406 107.976562-147.542968 54.078126-190.746094-69.878907 190.746094-70.226562 157.027343 57.585937h40.75l-195.316406-71.632812c-1.40625-.699219-3.160156-.699219-4.917969 0l-211.125 77.601562c-2.808594 1.054688-4.566406 3.511719-4.566406 6.671875 0 3.160157 1.757812 5.617188 4.566406 6.671875l86.769532 31.953125v83.921875c0 3.863282 0 10.886719 53.746093 34.0625 12.296875 5.265625 53.394531 22.472656 72.015625 22.472656 18.96875 0 60.769532-17.207031 73.066406-22.472656 54.449219-23.175781 54.449219-30.199218 54.449219-34.0625v-83.921875l61.828125-22.824219zm-35.128906 104.289063c-11.59375 10.183594-90.984375 44.59375-113.464844 44.59375-21.78125 0-100.117187-34.410156-111.710937-44.59375v-76.546875l110.304687 40.378906c.703125.351563 1.757813.351563 2.457032.351563.703124 0 1.757812 0 2.460937-.351563l110.304687-40.378906zm0 0" fill="#e6a6cd"/></g><path d="m448.945312 220.691406c-1.054687-4.5625-2.105468-9.480468-2.808593-14.042968l-1.757813-14.046876-2.457031-14.046874c-1.054687-5.265626-1.757813-10.179688-2.8125-15.449219 5.621094-1.753907 9.835937-7.023438 9.835937-13.34375 0-6.671875-4.566406-12.289063-10.890624-13.691407.351562-.703124 1.054687-1.054687 1.40625-1.757812l2.109374-2.808594c1.050782-1.054687 0-2.105468.351563-2.808594v-34.761718c0-3.863282-3.164063-7.023438-7.027344-7.023438h-112.414062c-18.617188.351563-37.585938-.703125-56.203125 1.402344-11.59375 1.054688-23.1875 2.109375-35.128906 3.160156-1.757813-2.808594-7.027344-4.914062-13.351563-4.914062-7.726563 0-14.050781 3.160156-14.050781 7.023437s6.324218 7.023438 14.050781 7.023438c6.324219 0 11.242187-2.109375 13.351563-4.917969 11.589843 1.054688 23.183593 2.457031 35.128906 3.160156 18.617187 2.457032 37.585937 1.40625 56.203125 1.40625h105.386719v27.738282c.351562 1.054687-.699219 2.105468.351562 2.808593l2.109375 2.808594c.351563.703125 1.054687 1.054687 1.40625 1.757813-6.324219 1.402343-10.890625 7.023437-10.890625 13.695312 0 6.320312 4.214844 11.585938 9.835938 13.339844-1.054688 5.269531-2.109376 10.183594-2.8125 15.453125l-2.457032 14.042969-1.757812 14.046874c-.703125 4.5625-1.753906 9.480469-2.808594 14.046876-1.054688 4.5625-1.054688 9.480468 0 14.042968.703125 4.566406 2.105469 9.480469 4.214844 14.046875 2.109375 4.5625 4.566406 9.480469 8.429687 14.042969h2.8125c3.863281-4.5625 6.671875-9.480469 8.429688-14.042969 2.109375-4.566406 3.160156-9.480469 4.214843-14.046875 1.054688-3.863281 1.054688-8.425781 0-13.34375zm0 0" fill="#e6a6cd"/><g clip-path="url(#b)"><path d="m400.117188 349.207031c-3.160157-4.5625-9.484376-8.777343-14.753907-9.832031-144.730469-31.601562-332.671875-99.722656-334.425781-100.070312-.351562 0-1.054688-.351563-1.40625-.351563-.703125 0-21.078125 2.105469-28.453125 26.332031-2.8125 9.832032-3.863281 28.445313 10.890625 38.625-3.164062 1.40625-7.378906 3.511719-11.945312 4.566406-1.40625.351563-2.460938 1.757813-2.460938 3.511719 0 1.753907 1.40625 3.160157 2.8125 3.160157.703125 0 61.125 10.886718 128.570312 31.953124l-60.070312 18.960938 32.671875 2.109375-1.40625 16.5 39.34375-18.609375-10.539063 33.007812 22.132813-5.617187 17.914063 12.289063 2.8125-44.242188c68.148437 24.929688 130.328124 55.476562 161.941406 80.410156.703125.351563 1.40625.699219 2.109375.699219s1.40625-.347656 2.105469-.699219c0 0 15.457031-11.941406 27.402343-21.421875.351563-.351562.703125-.699219.703125-1.050781 4.917969-4.214844 8.429688-9.832031 10.890625-15.453125 8.078125-16.152344 12.996094-40.730469 3.160157-54.777344zm-372.367188-82.164062c5.269531-17.558594 18.269531-20.71875 21.78125-21.070313 7.027344 2.460938 57.964844 20.71875 124.707031 42.136719-9.132812 3.160156-16.511719 11.238281-20.726562 19.664063-3.863281 7.375-7.023438 17.558593-5.269531 26.6875-64.636719-21.769532-105.738282-32.65625-106.4375-33.007813-21.429688-8.425781-14.402344-33.355469-14.054688-34.410156zm328.808594 167.84375c-24.589844-18.960938-60.773438-37.570313-98.363282-54.425781 34.425782 12.992187 71.664063 28.089843 110.304688 44.59375h.351562c-5.269531 4.5625-9.835937 8.074218-12.292968 9.832031zm34.777344-33.359375c-2.8125 6.320312-10.539063 17.910156-19.320313 16.855468-4.566406-.351562-6.675781-6.671874-7.730469-10.535156-3.511718-12.289062 1.054688-29.496094 9.484375-38.625 2.8125-2.808594 7.027344-5.96875 10.539063-5.96875 1.757812 0 3.164062.703125 4.566406 2.457032 5.269531 5.96875 2.109375 22.472656-2.808594 29.847656-2.109375 3.160156-5.269531 5.265625-8.082031 5.96875-1.753906.351562-3.160156 0-4.214844-1.050782-2.105469-1.757812-3.160156-4.917968-2.808593-8.429687.351562-4.5625 2.808593-8.425781 5.621093-9.832031h.351563c.351562.351562.351562 1.40625 0 2.808594-.703125 1.757812.699218 3.863281 2.457031 4.214843 1.757813.703125 3.863281-.703125 4.214844-2.457031 1.054687-4.214844.351562-8.078125-2.457031-10.183594-1.054688-.703125-3.863282-2.457031-8.082032-.351562-4.917968 2.808594-8.78125 8.777344-9.484375 15.449218-.703125 5.96875 1.40625 11.589844 5.269531 14.75 2.8125 2.105469 6.324219 3.160157 9.835938 2.457032 4.917969-.703125 9.835938-4.214844 13-9.128906 0-.351563.351562-.351563.351562-.703126 0 .703126-.351562 1.753907-.703124 2.457032zm7.023437-28.441406c-.351563-4.566407-1.753906-8.777344-4.566406-11.585938-2.808594-3.160156-5.972657-4.566406-9.835938-4.917969 0 0 0 0-.351562 0-7.375 0-13.347657 5.617188-15.808594 8.078125-10.1875 10.882813-15.105469 30.898438-11.238281 45.296875.351562 1.402344.703125 2.457031 1.050781 3.511719-60.417969-25.636719-116.976563-47.054688-164.753906-63.910156-3.160157-9.128906 1.054687-19.664063 5.269531-27.738282 4.566406-8.425781 11.945312-16.855468 21.429688-19.664062 53.042968 16.152344 111.359374 32.304688 164.050781 43.890625 3.515625.703125 8.433593 3.863281 10.539062 7.023437 3.511719 4.917969 4.917969 11.941407 4.214844 20.015626zm0 0" fill="#e6a6cd"/></g></svg>