<svg height="600" preserveAspectRatio="xMidYMid meet" viewBox="0 0 450 449.999984" width="600" xmlns="http://www.w3.org/2000/svg" xmlns:xlink="http://www.w3.org/1999/xlink" zoomAndPan="magnify"><clipPath id="a"><path d="m3 81.816406h447v284.183594h-447zm0 0"/></clipPath><g clip-path="url(#a)"><path d="m54.0625 81.910156c-1.121094.234375-1.859375.980469-2.976562 2.398438-1.34375 1.710937-3.511719 6.058594-4.824219 9.65625-1.308594 3.597656-3.238281 8.460937-4.285157 10.8125-1.050781 2.351562-1.90625 4.921875-1.90625 5.726562 0 .804688-1.625 5.421875-3.609374 10.257813-2.957032 7.207031-4.484376 9.199219-8.46875 11.085937-8.65625 4.09375-14.871094 7.34375-20.394532 17.3125-5.523437 9.96875-6.902344 43.082032 2.402344 53.867188 9.304688 10.78125 18.996094 16.066406 23.550781 16.085937 2.082031 0 4.457031 1.160157 5.523438 2.679688 1.023437 1.46875 4.242187 4.550781 7.144531 6.859375 8.730469 6.941406 10.980469 15.273437 8.601562 31.816406-3.691406 24.769531-17.449218 46.964844-27.894531 63.027344-5.148437 7.886718-2.164062 19.09375 7.355469 27.660156 10.628906 9.5625 43.683594 17.078125 58.023438 13.195312 10.777343-2.921874 16.957031-13.566406 24.054687-41.464843l4.324219-17h6.527344c4.082031 0 8.671874-1.429688 15.542968-3.792969 6.871094-2.359375 13.203125-8.175781 19.578125-13.847656 9.796875-8.835938 16.550781-23.523438 18.054688-34.554688.582031-4.472656.921875-9.144531.761719-10.390625-.164063-1.242187.800781-2.566406 2.140624-2.9375 4.015626-1.109375 22.109376-4.664062 32.253907-6.335937 5.214843-.863282 13.453125-2.386719 18.296875-3.390625 4.84375-1.003907 11.851562-2.207031 15.578125-2.683594 6.671875-.851563 8.414062-1.292969 21.5-5.363281 10.351562-3.222656 20.484375-10.664063 23.765625-17.441406 1.558594-3.226563 2.839844-7.417969 2.839844-9.328126 0-3.292968.542968-3.566406 10.496093-5.066406 12.554688-1.898437 41.300781-3.898437 67.417969-4.707031 10.433594-.320313 19.578125-.710937 20.324219-.863281 6.316406-1.285156 12.617187.394531 17.554687 4.660156 6.949219 6.007812 13.984375 8.140625 20.785156 6.308594 5.515626-1.484375 11.429688-6.769532 13.734376-12.273438.78125-1.867187 1.226562-3.234375 1.425781-11.761718.199219-8.527344-11.226563-21.445313-23.886719-18.476563-12.664062 2.972656-14.816406 7.207031-17.148438 10.898437-1.339843 2.121094-45.347656 2.386719-68.027343.40625-8.195313-.714843-20.453125-1.613281-27.230469-1.992187-6.78125-.382813-13.25-1.046875-14.390625-1.484375-1.207031-.464844-2.402344-3.242188-2.875-6.699219-.445313-3.25-2.28125-9.164062-4.082031-13.140625-3.976563-8.777344-10.765625-26.695312-13.269532-35.023437-1.617187-5.378907-2.339843-6.148438-6.09375-6.511719-4.859374-.472656-7.019531 1.941406-13.253906 14.871094l-3.703125 7.6875-7.683593-2.65625c-4.226563-1.464844-22.015626-6.609375-39.53125-11.429688-29.148438-8.023437-33.734376-8.910156-54.199219-10.523437-12.296875-.964844-30.285157-1.578125-39.972657-1.347657-13.15625.308594-18.648437-.066406-21.683593-1.511718-6.621094-3.148438-13.898438-6.203125-14.785157-6.203125-.453124 0-3.414062-1.125-6.570312-2.507813-3.160156-1.378906-8.351562-3.132812-11.539062-3.890625-2.648438-.628906-4.15625-.90625-5.277344-.671875zm3.351562 10.855469c2.042969.265625 6.355469 1.421875 11.105469 3.035156 7.277344 2.46875 10.152344 3.925781 7.808594 3.964844-3.742187.054687-20.578125 6.140625-23.722656 8.566406-1.195313.925781-1.695313.675781-1.695313-.855469 0-2.285156 3.898438-13.105468 5.285156-14.667968.113282-.125.535157-.132813 1.21875-.042969zm58.875 11.507813c15.234376-.132813 48.453126 1.949218 55.214844 3.691406 2.609375.671875 11.753906 2.851562 20.328125 4.84375 8.570313 1.992187 19.851563 4.835937 25.070313 6.320312 5.214844 1.484375 10.085937 2.792969 10.832031 2.910156.746094.121094 3.191406.917969 5.425781 1.777344 4.785156 1.832032 22.132813 7.285156 25.0625 7.871094 1.117188.226562 4.675782 1.464844 7.902344 2.761719 4.960938 1.992187 5.726562 2.800781 4.976562 5.21875-3.796874 12.246093-4.910156 21.679687-4.4375 37.339843.253907 7.941407 1.710938 16.933594 5.039063 26.683594 1.527344 3.457032 2.785156 6.390625 2.785156 6.511719 0 .757813-45.566406 12.972656-51.441406 13.785156-2.574219.359375-8.898437 1.609375-14.050781 2.78125s-10.976563 2.308594-12.933594 2.515625c-1.957031.207032-7.523438.785156-12.367188 1.28125-4.84375.492188-11.238281 1.226563-14.222656 1.625-9.234375 1.230469-50.699218 2.167969-55.578125 1.25-4.453125-.835937-4.5625-1-2.980469-4.542968 8.40625-18.832032 32.695313-45.046876 53.628907-57.898438 1.214843-.746094 3.734375-2.34375 5.601562-3.546875 6.796875-4.394531 28.03125-11.855469 37.941407-13.328125 13.410156-1.996094 14.90625-2.527344 14.90625-5.355469 0-3.546875-1.230469-4.191406-5.183594-2.683593-1.957032.742187-7.839844 1.621093-13.074219 1.949218-5.238281.324219-11.042969.875-12.90625 1.21875s-8.574219 1-14.910156 1.464844c-16.140625 1.183594-45.542969 7.890625-65.03125 14.835938-17.800781 6.34375-47.179688 26.617187-59.558594 41.101562l-5.308594 6.214844-2.691406-3.308594c-7.894531-11.457031-10.074219-25.867188-9.5625-38.09375.617187-17.746094 3.578125-28.230469 13.03125-42.507812 4.042969-5.09375 14.714844-12.695313 21.398437-15.242188 10.625-4.046875 28.929688-8.101562 41.789063-9.25 1.3125-.117188 3.125-.175781 5.304687-.195312zm155.351563 7.054687c.410156.074219.730469.824219 1.207031 2.054687.722656 1.863282 2.304688 5.753907 3.511719 8.640626 1.207031 2.886718 2.1875 6.355468 2.1875 7.714843 0 2.34375-.324219 2.324219-6.429687-.328125-3.539063-1.535156-6.84375-3.171875-7.339844-3.644531s.820312-4.210937 2.929687-8.3125c2.316407-4.511719 3.25-6.253906 3.933594-6.125zm-153.894531 7.554687c-2.011719-.019531-4.199219.425782-6.746094 1.3125-3.058594 1.066407-4.890625 3.328126-7.753906 9.566407-5.527344 12.046875-5.902344 16.300781-1.835938 20.691406 5.382813 5.8125 10.59375 6.996094 16.785156 3.820313 5.328126-2.730469 9.769532-6.933594 12.433594-11.746094.824219-1.492188 1.519532-5.53125 1.542969-8.976563.035156-5.5625-.519531-6.742187-4.921875-10.503906-3.273438-2.796875-6.144531-4.132813-9.503906-4.164063zm35.570312 1.382813c-2.121094.195313-4.085937 1.011719-5.539062 2.621094-1.496094 1.652343-2.710938 5.5625-3.070313 9.886719-.707031 8.523437.960938 10.496093 9.527344 11.316406 5.933594.566406 8.425781-.664063 11.433594-5.660156.886719-1.472657 1.648437-4.605469 1.691406-6.960938.125-6.6875-7.675781-11.785156-14.042969-11.203125zm35.535156 2.121094c-3.800781-.234375-7.464843 1.539062-8.375 4.933593-2.796874 10.445313 1.285157 16.75 9.75 15.054688 4.652344-.929688 6.382813-2.484375 7.402344-6.625 1.363282-5.554688.894532-7.667969-2.367187-10.691406-1.804688-1.675782-4.132813-2.535156-6.410157-2.671875zm-68.910156 2.523437c.976563.160156 1.859375.984375 3.476563 2.601563 1.855469 1.855469 3.371093 4.785156 3.371093 6.515625 0 5.820312-11.453124 15.457031-17.097656 14.386718-1.90625-.363281-2.644531-1.847656-2.917968-5.898437-.453126-6.601563 3.257812-13.195313 9.136718-16.238281 1.992188-1.027344 3.054688-1.527344 4.03125-1.367188zm94.710938.671875c-6.761719 0-9.21875 10.402344-3.359375 14.242188 4.042969 2.652343 9.898437.769531 11.566406-3.714844 2.117187-5.703125-1.644531-10.53125-8.207031-10.53125zm-137.042969.121094c-2.945313-.214844-6.210937.546875-10.058594 2.269531-7.925781 3.550782-12.230469 9.054688-15.507812 19.839844-3.785157 12.460938-3.722657 16.660156.308593 22.78125 7.605469 11.546875 18.878907 10.316406 29.78125-3.257812 2.898438-3.605469 5.566407-9.160157 7.03125-14.632813 3.179688-11.867187 2.199219-18.566406-3.421874-23.390625-2.558594-2.195312-5.1875-3.390625-8.132813-3.609375zm78.742187.566406c.957032-.070312 1.972657.140625 2.992188.6875 1.472656.789063 2.613281 1.867188 2.539062 2.402344-1.371093 9.828125-10.699218 13.199219-10.699218 3.863281 0-3.984375 2.300781-6.742187 5.167968-6.953125zm31.839844 2.242188c.628906.039062 1.414063.1875 2.1875.429687 3.484375 1.109375 3.59375 3.648438.289063 6.640625-2.003907 1.8125-2.792969 1.921875-3.890625.546875-1.332032-1.675781-1.269532-6.019531.105468-7.398437.1875-.183594.675782-.25 1.308594-.210938zm27.71875 2.109375c.382813 0 1.882813.804687 2.289063 1.167968.839843.761719-.042969 3.5-1.761719 4-2.351562.683594-4.421875-2.402343-2.679688-4.140624.484376-.488282 1.769532-1.015626 2.152344-1.027344zm-139.582031 1.738281c1.386719 0 3.617187.800781 4.957031 1.78125 6.136719 4.492187 1.902344 23.34375-7.136718 31.773437-9.871094 9.210938-16.460938 5.488282-16.460938-9.292968 1.5625-9.128906 7.734375-23.890625 18.640625-24.261719zm-51.578125 11.757813c.648438.125.015625 3.132812-1.785156 10.164062-2.648438 10.339844-1.824219 24.550781 2.199218 37.734375 1.476563 4.84375 2.695313 9.597656 2.699219 10.5625.015625 3.253906-6.355469-2.796875-11.027343-10.464844-3.511719-6.582031-3.675782-7.632812-4.316407-19.226562-.597656-10.859375 2.113281-17.988281 5.914063-21.542969.398437-.371094 2.078125-2.4375 3.730468-4.589844 1.34375-1.75 2.191407-2.714844 2.585938-2.636718zm149.519531 11.710937c.503907 0 .828125 0 .917969.097656 1.382812 1.386719-10.617188 6.257813-15.414062 6.257813-7.320313 0-4.039063-2.554688 6.363281-4.960938 3.46875-.800781 6.621093-1.328125 8.132812-1.394531zm-30.3125 8.347656c1.902344-.144531 3.605469.113281 5.832031.714844 3 .808594 5.460938 1.960937 5.460938 2.5625 0 .597656-2.054688 2.1875-4.5625 3.539063-4.152344 2.234374-5.300781 2.296874-12.871094.617187-4.570312-1.015625-8.3125-2.183594-8.308594-2.585937.003907-.40625 3.34375-1.832032 7.417969-3.167969 3.023438-.996094 5.128907-1.535157 7.03125-1.679688zm284.253907-1.890625c3.953124.210938 10.03125 4.671875 11.5625 8.777344s-3.121094 16.605469-10.863282 15.363281c-7.742187-1.238281-14.082031-8.589843-13.148437-13.808593.929687-5.21875 8.5-10.546876 12.449219-10.332032zm-135.820313 6.058594c3.269531.046875 10.277344.554688 18.074219 1.339844 9.832031.988281 32.578125 1.734375 48.140625 2.480468 21.738281 1.039063 37.585937.878907 42.527343.691407 1.21875-.042969 3.332032-.539063 4.085938.164062 1.441406 1.34375.941406 4.414063.941406 4.796875 0 .992188-35.300781.628906-51.535156 1.757813-4.078125.285156-36.480469 2.105469-39.230469 2.800781-2.75.699219-9.722656 1.679688-15.5 2.179688l-10.503906.910156v-8.171875c0-4.492188.488281-8.464844 1.082031-8.835938.152344-.089843.828125-.128906 1.914063-.113281zm-9.015625 12.265625c.050781 2.457031.15625 6.523437 1.269531 8.675781 1.722657 3.351563 1.6875 6.140625 1.675781 9.738282-.367187 2.1875-1.457031 4.484374-2.25 6.386718-.785156 1.273438-1.277343.976563-1.816406-1.082031-.53125-2.921875-2.589844-7.203125-2.890625-9.730469-.671875-3.226562-1.6875-13.617187-1.632812-20.53125.042969-4.910156.597656-12.191406.613281-14.378906.015625-2.183594 2.003906-8.011719 2.855469-12.054688l.714843-3.386718 1.871094 3.386718c2.429688 4.40625 6.402344 11.359376 3.320313 14.410157-1.40625 1.394531-2.695313 5.007812-3.292969 8.957031-.59375 3.949219-.488281 7.148438-.4375 9.609375zm-163.675781-7.191406c4.289062-.203125 9.4375.574219 15.558593 2.339843 6.066407 1.746094 6.273438 2.691407 1.359376 6.222657-2.914063 2.09375-4.90625 2.476562-9.148438 1.761719-9.441406-1.582032-19.644531-4.539063-19.644531-5.683594 0-.605469 2.269531-2.046875 5.054687-3.210938 1.980469-.828125 4.246094-1.308594 6.820313-1.429687zm-21.90625 8.859375 13.878906 3.515625c7.628906 1.929687 14.160156 3.503906 14.5 3.503906 1.851563 0 .097656 2.914063-3.652344 6.070313-4.972656 4.1875-6.953125 4.050781-27.574219-1.871094l-12.882812-3.699219 7.871094-3.757813zm-20.535157 13.277344c2.347657-.058594 5.84375.894531 12.949219 2.804687 4.097657 1.101563 10.757813 2.738281 14.804688 3.628906 4.042969.890625 7.523437 2.210938 7.734375 2.9375.707031 2.433594-3.449219 8.421875-6.367188 9.1875-3.582031.9375-18.371094-1.523437-22.945312-3.820312-1.863282-.933594-6.894532-2.472657-11.179688-3.425781-4.285156-.949219-7.789062-2.242188-7.789062-2.867188 0-.628906.457031-1.148438 1.015625-1.148438.558593 0 3.125-1.804687 5.707031-4.015624 2.515625-2.148438 3.71875-3.226563 6.070312-3.285157zm-16.613281 14.933593c7.9375 2.089844 17.503907 4.621094 23.058594 6.183594s6.273437 2.542969 10.007813 3.054687c9.011718 1.242188 10.304687 2.128907 7.894531 5.429688-1.054688 1.441406-1.914063 3.648438-1.914063 4.90625 0 2.5-1.605468 2.335938-22.355468-2.355469-8.976563-2.03125-25.070313-9.242187-25.070313-11.238281 0-.503906 1.515625-2.242188 3.367187-3.855469 2.085938-1.8125 3.289063-2.410156 5.011719-2.125zm10.269531 30.164063c.148438-.042969.316407 0 .503907.046875 1.019531.308593 6.113281 1.238281 11.324219 2.074219 6.539062 1.050781 9.597656 2.164062 9.875 3.582031.214843 1.132812.082031 2.363281-.292969 2.738281s-1.015625 4.003906-1.429688 8.066406c-2 19.578125-14.488281 69.578125-22.160156 88.726563l-2.707031 6.78125-7.074219-.308594c-12.585937-.554687-24.636719-8.859375-23.46875-16.167969 11.570313-29.5625 34.777344-52.851562 34.320313-85.019531-.171876-7.671875.0625-10.269531 1.109374-10.503906zm96.527344 1.519531c3.589844 0 3.566406 6.140625-.0625 16.265625-5.199218 14.5-9.960937 22.289062-19.214844 31.4375-4.742187 4.691406-15.011718 9.234375-20.871093 9.234375-6.902344 0-5.796875-3.4375 1.710937-5.332031 12.519532-3.152344 18.347656-7.300782 27.136719-19.320313 4.292969-5.871093 8.378906-17.816406 8.265625-24.15625-.125-6.902343.335938-8.128906 3.035156-8.128906zm-14.0625 1.351563c2.988282 0 3.21875.523437 3.191406 7.121093-.066406 16.410157-16.128906 36.105469-29.542968 36.230469-4.574219.046875-1.023438-13.050781-1.023438-13.050781 4.792969-1.53125 12.621094-4.164063 15.199219-9.101563 1.007813-1.929687 2.964844-6.511718 3.84375-11.664062 1.832031-10.726563 3.832031-9.535156 8.332031-9.535156zm-18.023437 1.472656c2.101562.058594 2.277343.851562 2.277343 3.546875 0 5.539062-9.265624 17.34375-11.699218 14.910156-.324219-.328125-.117188-4.484375.46875-9.242187l1.066406-8.648438 5.082031-.425781c1.191407-.097657 2.105469-.164063 2.804688-.140625zm-26.359375.132812c.695312 0 1.578125.121094 2.734375.289063 2.691406.390625 5.351562.738281 5.910156.765625 1.257813.066406 1.355469 7.390625.117187 8.632812-1.347656 1.347656-12.640624 1.09375-12.640624-.28125 0-.652344.378906-3.128906.855468-5.507812.609375-3.058594.945313-3.933594 3.023438-3.898438zm-5.988282 18.613282 6.808594.398437c6.535156.382813 6.820313.5625 6.980469 4.464844.308594 7.605469-.882813 11.21875-3.972656 12.046875-4.214844 1.132812-11.507813 1.019531-12.191407-.183594-.316406-.558594.089844-4.550781.902344-8.871094zm-1.386718 26.363281c1.046875-.050781 2.390625-.046875 4.148437 0 4.105469.097656 7.398438.472656 7.3125.847656-.089843.371094-.742187 3.886719-1.457031 7.800781l-1.296875 7.113282h-5.882813c-8.699218 0-10.175781-.867188-8.820312-5.1875.625-1.992188 1.476562-5.222657 1.902344-7.183594.546875-2.515625.960937-3.265625 4.09375-3.410156zm-2.636719 23.917969c7.96875 0 8.015625.054687 6.527344 7.792968-.730469 3.792969-3.308594 5.21875-11.722657 6.480469l-6.582031.988281.996094-4.582031c2.238281-10.292969 2.632813-10.679687 10.78125-10.679687zm-5.003906 23.511718c5.402343-.179687 5.488281 1.648438 2.003906 8.652344-1.738281 3.492188-3.609375 4.792969-9.269531 6.441406-3.902344 1.132813-7.464844 2.066406-7.921875 2.066406-1.238281 0 .628906-6.875 3.128906-11.527343 1.203125-2.238281 2.234375-4.21875 2.296875-4.40625.058594-.183594 3.265625-.648438 7.117188-1.03125.992187-.097657 1.875-.167969 2.648437-.195313zm0 0" fill="#e6a6cd"/></g></svg>