<svg xmlns="http://www.w3.org/2000/svg" xmlns:xlink="http://www.w3.org/1999/xlink" width="600" zoomAndPan="magnify" viewBox="0 0 450 449.999984" height="600" preserveAspectRatio="xMidYMid meet" version="1.0"><path fill="#e6a6cd" d="M 280.347656 448.398438 C 279.179688 448.402344 278.011719 448.351562 276.84375 448.246094 C 275.679688 448.144531 274.523438 447.984375 273.371094 447.773438 C 272.21875 447.5625 271.082031 447.300781 269.953125 446.984375 C 268.828125 446.667969 267.71875 446.300781 266.625 445.878906 C 265.535156 445.460938 264.464844 444.992188 263.414062 444.476562 C 262.363281 443.957031 261.339844 443.390625 260.34375 442.78125 C 259.347656 442.167969 258.382812 441.511719 257.445312 440.808594 C 256.507812 440.109375 255.605469 439.363281 254.738281 438.578125 C 253.871094 437.792969 253.039062 436.972656 252.25 436.109375 C 251.457031 435.25 250.707031 434.351562 250 433.421875 C 249.289062 432.492188 248.625 431.527344 248.003906 430.535156 C 247.386719 429.542969 246.8125 428.527344 246.285156 427.480469 C 245.761719 426.433594 245.28125 425.367188 244.855469 424.277344 C 244.429688 423.191406 244.050781 422.082031 243.726562 420.960938 C 243.402344 419.835938 243.128906 418.699219 242.910156 417.550781 C 242.6875 416.402344 242.523438 415.242188 242.410156 414.078125 L 237.511719 365.128906 C 237.433594 364.335938 237.28125 363.554688 237.058594 362.789062 C 236.835938 362.023438 236.546875 361.285156 236.1875 360.570312 C 235.828125 359.859375 235.40625 359.1875 234.921875 358.550781 C 234.4375 357.917969 233.902344 357.332031 233.308594 356.796875 C 232.71875 356.261719 232.082031 355.785156 231.402344 355.367188 C 230.722656 354.945312 230.011719 354.59375 229.265625 354.308594 C 228.523438 354.019531 227.757812 353.804688 226.972656 353.65625 C 226.1875 353.511719 225.398438 353.4375 224.597656 353.4375 C 223.800781 353.4375 223.011719 353.511719 222.226562 353.65625 C 221.441406 353.804688 220.675781 354.019531 219.933594 354.308594 C 219.1875 354.59375 218.476562 354.945312 217.796875 355.367188 C 217.117188 355.785156 216.480469 356.261719 215.890625 356.796875 C 215.296875 357.332031 214.761719 357.917969 214.277344 358.550781 C 213.792969 359.1875 213.371094 359.859375 213.011719 360.570312 C 212.652344 361.285156 212.363281 362.023438 212.140625 362.789062 C 211.917969 363.554688 211.765625 364.335938 211.6875 365.128906 L 206.789062 414.078125 C 206.683594 415.132812 206.535156 416.179688 206.34375 417.222656 C 206.148438 418.261719 205.914062 419.292969 205.632812 420.316406 C 205.355469 421.335938 205.035156 422.34375 204.671875 423.339844 C 204.308594 424.335938 203.902344 425.3125 203.460938 426.273438 C 203.015625 427.234375 202.53125 428.175781 202.007812 429.097656 C 201.484375 430.015625 200.925781 430.914062 200.328125 431.789062 C 199.730469 432.664062 199.097656 433.511719 198.429688 434.332031 C 197.757812 435.152344 197.058594 435.945312 196.324219 436.710938 C 195.589844 437.472656 194.824219 438.203125 194.03125 438.902344 C 193.234375 439.601562 192.410156 440.265625 191.5625 440.898438 C 190.710938 441.527344 189.835938 442.121094 188.933594 442.679688 C 188.035156 443.238281 187.113281 443.757812 186.167969 444.238281 C 185.226562 444.71875 184.265625 445.160156 183.285156 445.5625 C 182.304688 445.960938 181.308594 446.320312 180.296875 446.640625 C 179.289062 446.957031 178.265625 447.234375 177.234375 447.464844 C 176.199219 447.699219 175.160156 447.886719 174.109375 448.035156 C 173.0625 448.179688 172.007812 448.28125 170.953125 448.339844 C 169.894531 448.398438 168.835938 448.414062 167.777344 448.382812 C 166.71875 448.355469 165.664062 448.28125 164.613281 448.164062 C 163.558594 448.046875 162.515625 447.882812 161.476562 447.679688 C 160.4375 447.476562 159.40625 447.226562 158.390625 446.9375 C 157.371094 446.644531 156.367188 446.3125 155.375 445.941406 C 154.382812 445.566406 153.410156 445.152344 152.457031 444.695312 C 151.5 444.242188 150.5625 443.746094 149.648438 443.214844 C 148.734375 442.679688 147.84375 442.109375 146.976562 441.503906 C 146.109375 440.894531 145.265625 440.253906 144.453125 439.574219 C 143.640625 438.898438 142.855469 438.1875 142.101562 437.445312 C 141.34375 436.703125 140.621094 435.929688 139.933594 435.125 C 139.242188 434.324219 138.585938 433.492188 137.964844 432.636719 C 137.34375 431.777344 136.757812 430.894531 136.210938 429.988281 C 135.664062 429.082031 135.15625 428.15625 134.683594 427.207031 C 134.214844 426.257812 133.785156 425.292969 133.394531 424.308594 C 113.902344 373.355469 99.292969 321.042969 89.5625 267.367188 C 89.328125 266.066406 89.125 264.761719 88.957031 263.453125 C 88.789062 262.144531 88.65625 260.828125 88.558594 259.511719 C 88.457031 258.195312 88.390625 256.878906 88.359375 255.558594 C 88.328125 254.238281 88.332031 252.917969 88.367188 251.597656 C 88.40625 250.277344 88.476562 248.957031 88.582031 247.640625 C 88.683594 246.324219 88.824219 245.011719 88.996094 243.703125 C 89.167969 242.394531 89.375 241.089844 89.617188 239.789062 C 89.855469 238.492188 90.128906 237.199219 90.4375 235.914062 C 90.742188 234.632812 91.082031 233.355469 91.457031 232.089844 C 91.828125 230.820312 92.234375 229.566406 92.671875 228.320312 C 93.109375 227.074219 93.578125 225.839844 94.082031 224.617188 C 94.582031 223.394531 95.113281 222.1875 95.679688 220.992188 C 96.242188 219.800781 96.835938 218.621094 97.460938 217.457031 C 98.085938 216.292969 98.742188 215.148438 99.425781 214.015625 C 100.109375 212.886719 100.820312 211.777344 101.5625 210.683594 C 102.304688 209.589844 103.074219 208.515625 103.871094 207.464844 C 104.667969 206.410156 105.492188 205.378906 106.339844 204.367188 C 107.191406 203.359375 108.066406 202.371094 108.96875 201.40625 C 109.871094 200.441406 110.796875 199.5 111.746094 198.582031 C 112.695312 197.664062 113.667969 196.773438 114.664062 195.90625 C 115.660156 195.039062 116.679688 194.195312 117.71875 193.382812 C 118.757812 192.566406 119.820312 191.78125 120.898438 191.019531 C 121.980469 190.261719 123.078125 189.53125 124.195312 188.828125 C 125.3125 188.125 126.449219 187.449219 127.601562 186.804688 C 128.753906 186.160156 129.925781 185.546875 131.109375 184.964844 C 132.292969 184.378906 133.492188 183.828125 134.707031 183.304688 C 135.917969 182.785156 137.144531 182.292969 138.382812 181.835938 C 139.621094 181.375 140.871094 180.949219 142.132812 180.554688 C 143.390625 180.160156 144.660156 179.800781 145.941406 179.472656 C 147.21875 179.144531 148.507812 178.847656 149.800781 178.585938 C 151.097656 178.324219 152.394531 178.097656 153.703125 177.902344 C 155.007812 177.707031 156.320312 177.546875 157.632812 177.421875 C 160.246094 177.160156 162.867188 177.039062 165.492188 177.050781 C 168.117188 177.066406 170.738281 177.21875 173.347656 177.507812 C 175.957031 177.796875 178.546875 178.222656 181.109375 178.78125 C 183.675781 179.34375 186.207031 180.035156 188.699219 180.859375 C 191.191406 181.6875 193.636719 182.640625 196.027344 183.722656 C 198.421875 184.800781 200.753906 186.003906 203.019531 187.332031 C 205.285156 188.65625 207.476562 190.097656 209.59375 191.652344 C 211.710938 193.207031 213.738281 194.871094 215.679688 196.636719 C 217.277344 198.105469 218.839844 199.578125 220.378906 201.078125 C 220.660156 201.347656 220.964844 201.589844 221.292969 201.800781 C 221.621094 202.011719 221.964844 202.191406 222.324219 202.335938 C 222.6875 202.484375 223.058594 202.59375 223.441406 202.667969 C 223.824219 202.742188 224.210938 202.777344 224.597656 202.777344 C 224.988281 202.777344 225.375 202.742188 225.757812 202.667969 C 226.140625 202.59375 226.511719 202.484375 226.875 202.335938 C 227.234375 202.191406 227.578125 202.011719 227.90625 201.800781 C 228.234375 201.589844 228.539062 201.347656 228.820312 201.078125 C 230.355469 199.578125 231.921875 198.105469 233.507812 196.652344 C 235.449219 194.882812 237.476562 193.222656 239.59375 191.667969 C 241.710938 190.109375 243.902344 188.667969 246.171875 187.34375 C 248.4375 186.015625 250.769531 184.8125 253.164062 183.730469 C 255.554688 182.648438 258 181.695312 260.492188 180.867188 C 262.988281 180.042969 265.515625 179.347656 268.082031 178.789062 C 270.648438 178.226562 273.238281 177.800781 275.847656 177.511719 C 278.457031 177.222656 281.078125 177.066406 283.703125 177.050781 C 286.332031 177.035156 288.953125 177.160156 291.566406 177.417969 C 292.878906 177.542969 294.191406 177.703125 295.496094 177.898438 C 296.804688 178.09375 298.101562 178.320312 299.398438 178.582031 C 300.691406 178.84375 301.980469 179.140625 303.257812 179.46875 C 304.539062 179.796875 305.808594 180.15625 307.066406 180.550781 C 308.328125 180.945312 309.578125 181.371094 310.816406 181.832031 C 312.054688 182.289062 313.28125 182.777344 314.496094 183.300781 C 315.707031 183.824219 316.90625 184.375 318.089844 184.960938 C 319.277344 185.542969 320.445312 186.15625 321.597656 186.800781 C 322.75 187.445312 323.886719 188.121094 325.003906 188.824219 C 326.121094 189.527344 327.222656 190.257812 328.300781 191.015625 C 329.382812 191.777344 330.441406 192.5625 331.480469 193.378906 C 332.519531 194.191406 333.539062 195.03125 334.535156 195.898438 C 335.53125 196.765625 336.503906 197.660156 337.453125 198.578125 C 338.402344 199.496094 339.328125 200.4375 340.230469 201.402344 C 341.132812 202.367188 342.007812 203.355469 342.859375 204.363281 C 343.710938 205.375 344.53125 206.40625 345.328125 207.460938 C 346.125 208.511719 346.894531 209.585938 347.636719 210.679688 C 348.378906 211.773438 349.089844 212.882812 349.777344 214.011719 C 350.460938 215.144531 351.113281 216.289062 351.738281 217.453125 C 352.363281 218.617188 352.957031 219.796875 353.523438 220.988281 C 354.085938 222.183594 354.617188 223.390625 355.121094 224.613281 C 355.621094 225.835938 356.089844 227.070312 356.527344 228.316406 C 356.964844 229.5625 357.371094 230.816406 357.746094 232.085938 C 358.117188 233.351562 358.457031 234.628906 358.765625 235.914062 C 359.070312 237.195312 359.34375 238.488281 359.585938 239.785156 C 359.824219 241.085938 360.03125 242.390625 360.203125 243.699219 C 360.375 245.007812 360.515625 246.320312 360.621094 247.636719 C 360.722656 248.953125 360.796875 250.273438 360.832031 251.59375 C 360.867188 252.914062 360.871094 254.234375 360.839844 255.554688 C 360.808594 256.875 360.742188 258.191406 360.640625 259.507812 C 360.542969 260.828125 360.410156 262.140625 360.242188 263.449219 C 360.074219 264.757812 359.871094 266.066406 359.636719 267.363281 C 349.90625 321.039062 335.296875 373.351562 315.804688 424.304688 C 315.101562 426.066406 314.269531 427.769531 313.3125 429.410156 C 312.355469 431.050781 311.28125 432.613281 310.09375 434.09375 C 308.902344 435.574219 307.613281 436.957031 306.214844 438.246094 C 304.820312 439.535156 303.335938 440.710938 301.765625 441.78125 C 300.195312 442.847656 298.554688 443.792969 296.84375 444.617188 C 295.128906 445.4375 293.367188 446.132812 291.550781 446.691406 C 289.738281 447.253906 287.890625 447.675781 286.015625 447.960938 C 284.136719 448.25 282.246094 448.394531 280.347656 448.398438 Z M 224.601562 337.425781 C 225.488281 337.421875 226.378906 337.460938 227.265625 337.539062 C 228.148438 337.621094 229.03125 337.742188 229.90625 337.902344 C 230.78125 338.0625 231.648438 338.261719 232.503906 338.503906 C 233.359375 338.746094 234.203125 339.023438 235.035156 339.34375 C 235.867188 339.664062 236.679688 340.019531 237.476562 340.414062 C 238.277344 340.808594 239.054688 341.238281 239.8125 341.703125 C 240.570312 342.167969 241.304688 342.667969 242.019531 343.203125 C 242.730469 343.734375 243.414062 344.300781 244.074219 344.898438 C 244.734375 345.496094 245.367188 346.121094 245.96875 346.777344 C 246.570312 347.433594 247.140625 348.113281 247.679688 348.824219 C 248.21875 349.53125 248.722656 350.261719 249.195312 351.015625 C 249.667969 351.769531 250.101562 352.546875 250.503906 353.339844 C 250.902344 354.136719 251.265625 354.949219 251.589844 355.777344 C 251.914062 356.605469 252.199219 357.445312 252.449219 358.300781 C 252.695312 359.15625 252.902344 360.019531 253.070312 360.894531 C 253.238281 361.769531 253.363281 362.648438 253.449219 363.535156 L 258.34375 412.484375 C 258.46875 413.707031 258.691406 414.910156 259.015625 416.097656 C 259.339844 417.28125 259.761719 418.433594 260.277344 419.546875 C 260.792969 420.664062 261.394531 421.726562 262.089844 422.742188 C 262.785156 423.757812 263.554688 424.707031 264.40625 425.59375 C 265.257812 426.480469 266.179688 427.289062 267.164062 428.023438 C 268.152344 428.753906 269.191406 429.402344 270.285156 429.960938 C 271.382812 430.519531 272.515625 430.984375 273.6875 431.355469 C 274.859375 431.726562 276.054688 431.996094 277.269531 432.167969 C 278.488281 432.339844 279.710938 432.410156 280.9375 432.375 C 282.167969 432.34375 283.382812 432.210938 284.589844 431.972656 C 285.796875 431.738281 286.976562 431.40625 288.125 430.972656 C 289.277344 430.542969 290.382812 430.015625 291.445312 429.402344 C 292.511719 428.785156 293.515625 428.085938 294.460938 427.300781 C 295.410156 426.515625 296.285156 425.660156 297.085938 424.730469 C 297.890625 423.800781 298.613281 422.808594 299.25 421.761719 C 299.890625 420.710938 300.4375 419.613281 300.894531 418.472656 C 319.925781 368.453125 334.257812 317.121094 343.890625 264.476562 C 344.078125 263.449219 344.234375 262.417969 344.367188 261.382812 C 344.5 260.34375 344.605469 259.304688 344.683594 258.265625 C 344.757812 257.222656 344.8125 256.179688 344.835938 255.136719 C 344.859375 254.089844 344.855469 253.046875 344.828125 252.003906 C 344.796875 250.957031 344.738281 249.917969 344.65625 248.875 C 344.574219 247.832031 344.460938 246.796875 344.324219 245.761719 C 344.1875 244.722656 344.023438 243.691406 343.832031 242.667969 C 343.640625 241.640625 343.425781 240.617188 343.183594 239.601562 C 342.9375 238.585938 342.667969 237.578125 342.375 236.574219 C 342.078125 235.574219 341.757812 234.578125 341.410156 233.59375 C 341.0625 232.609375 340.691406 231.632812 340.292969 230.667969 C 339.898438 229.703125 339.476562 228.746094 339.027344 227.800781 C 338.582031 226.859375 338.109375 225.925781 337.617188 225.003906 C 337.121094 224.085938 336.601562 223.179688 336.0625 222.285156 C 335.519531 221.394531 334.957031 220.515625 334.367188 219.648438 C 333.78125 218.785156 333.171875 217.9375 332.542969 217.105469 C 331.910156 216.273438 331.257812 215.457031 330.585938 214.65625 C 329.914062 213.859375 329.21875 213.078125 328.507812 212.316406 C 327.792969 211.550781 327.0625 210.808594 326.308594 210.082031 C 325.558594 209.355469 324.789062 208.652344 324 207.964844 C 323.210938 207.28125 322.40625 206.617188 321.582031 205.972656 C 320.761719 205.328125 319.921875 204.707031 319.066406 204.105469 C 318.214844 203.503906 317.34375 202.925781 316.460938 202.371094 C 315.574219 201.816406 314.675781 201.285156 313.765625 200.773438 C 312.851562 200.265625 311.925781 199.78125 310.992188 199.320312 C 310.054688 198.855469 309.105469 198.421875 308.144531 198.007812 C 307.1875 197.59375 306.214844 197.207031 305.234375 196.847656 C 304.257812 196.484375 303.269531 196.148438 302.269531 195.835938 C 301.273438 195.523438 300.269531 195.238281 299.257812 194.980469 C 298.246094 194.71875 297.226562 194.488281 296.203125 194.28125 C 295.179688 194.074219 294.152344 193.894531 293.117188 193.738281 C 292.085938 193.585938 291.046875 193.460938 290.007812 193.359375 C 287.953125 193.144531 285.890625 193.035156 283.820312 193.039062 C 281.753906 193.042969 279.691406 193.15625 277.636719 193.378906 C 275.578125 193.597656 273.539062 193.929688 271.519531 194.367188 C 269.5 194.804688 267.507812 195.347656 265.542969 196 C 263.578125 196.648438 261.65625 197.398438 259.773438 198.253906 C 257.886719 199.105469 256.054688 200.054688 254.273438 201.105469 C 252.488281 202.152344 250.765625 203.292969 249.105469 204.523438 C 247.441406 205.753906 245.851562 207.066406 244.328125 208.46875 C 242.871094 209.796875 241.429688 211.15625 240.003906 212.550781 C 239.492188 213.042969 238.957031 213.507812 238.402344 213.949219 C 237.847656 214.390625 237.269531 214.804688 236.675781 215.191406 C 236.078125 215.574219 235.464844 215.933594 234.835938 216.257812 C 234.207031 216.585938 233.5625 216.882812 232.90625 217.148438 C 232.246094 217.414062 231.578125 217.644531 230.894531 217.847656 C 230.214844 218.046875 229.527344 218.21875 228.832031 218.351562 C 228.132812 218.488281 227.433594 218.589844 226.726562 218.65625 C 226.019531 218.722656 225.3125 218.757812 224.601562 218.757812 C 223.890625 218.757812 223.183594 218.722656 222.476562 218.65625 C 221.769531 218.589844 221.070312 218.488281 220.371094 218.351562 C 219.675781 218.21875 218.988281 218.046875 218.308594 217.847656 C 217.625 217.644531 216.957031 217.414062 216.296875 217.148438 C 215.640625 216.882812 214.996094 216.585938 214.367188 216.257812 C 213.738281 215.933594 213.125 215.574219 212.527344 215.191406 C 211.933594 214.804688 211.355469 214.390625 210.800781 213.949219 C 210.246094 213.507812 209.710938 213.042969 209.199219 212.550781 C 207.777344 211.160156 206.332031 209.796875 204.867188 208.453125 C 203.34375 207.054688 201.753906 205.738281 200.09375 204.507812 C 198.429688 203.277344 196.707031 202.140625 194.925781 201.09375 C 193.144531 200.046875 191.308594 199.09375 189.425781 198.242188 C 187.542969 197.390625 185.621094 196.640625 183.65625 195.992188 C 181.695312 195.34375 179.703125 194.800781 177.683594 194.363281 C 175.660156 193.925781 173.621094 193.59375 171.566406 193.375 C 169.511719 193.152344 167.449219 193.042969 165.382812 193.039062 C 163.316406 193.039062 161.253906 193.144531 159.199219 193.363281 C 158.15625 193.460938 157.121094 193.589844 156.089844 193.742188 C 155.054688 193.894531 154.027344 194.074219 153.003906 194.28125 C 151.980469 194.488281 150.960938 194.722656 149.949219 194.980469 C 148.9375 195.242188 147.933594 195.527344 146.933594 195.835938 C 145.9375 196.148438 144.949219 196.484375 143.96875 196.847656 C 142.992188 197.210938 142.019531 197.597656 141.0625 198.007812 C 140.101562 198.421875 139.152344 198.859375 138.214844 199.320312 C 137.277344 199.78125 136.355469 200.265625 135.441406 200.773438 C 134.53125 201.285156 133.632812 201.816406 132.746094 202.371094 C 131.863281 202.925781 130.992188 203.503906 130.136719 204.105469 C 129.285156 204.707031 128.445312 205.328125 127.621094 205.972656 C 126.800781 206.617188 125.996094 207.28125 125.207031 207.964844 C 124.417969 208.652344 123.648438 209.355469 122.894531 210.082031 C 122.144531 210.808594 121.410156 211.550781 120.699219 212.3125 C 119.984375 213.078125 119.292969 213.859375 118.617188 214.65625 C 117.945312 215.457031 117.292969 216.273438 116.664062 217.105469 C 116.03125 217.9375 115.421875 218.785156 114.835938 219.648438 C 114.25 220.511719 113.683594 221.390625 113.144531 222.285156 C 112.601562 223.179688 112.082031 224.085938 111.589844 225.003906 C 111.09375 225.925781 110.625 226.855469 110.175781 227.800781 C 109.730469 228.746094 109.308594 229.699219 108.910156 230.664062 C 108.511719 231.632812 108.140625 232.609375 107.792969 233.59375 C 107.449219 234.578125 107.125 235.570312 106.832031 236.574219 C 106.535156 237.574219 106.265625 238.585938 106.023438 239.601562 C 105.777344 240.617188 105.5625 241.636719 105.371094 242.664062 C 105.179688 243.691406 105.015625 244.722656 104.878906 245.757812 C 104.742188 246.792969 104.632812 247.832031 104.546875 248.871094 C 104.464844 249.914062 104.40625 250.957031 104.375 252 C 104.347656 253.042969 104.34375 254.089844 104.367188 255.132812 C 104.390625 256.175781 104.441406 257.21875 104.519531 258.261719 C 104.597656 259.304688 104.703125 260.34375 104.835938 261.378906 C 104.96875 262.414062 105.125 263.445312 105.308594 264.476562 C 114.941406 317.121094 129.277344 368.453125 148.308594 418.472656 C 148.765625 419.613281 149.3125 420.707031 149.949219 421.757812 C 150.589844 422.808594 151.3125 423.796875 152.113281 424.726562 C 152.917969 425.65625 153.792969 426.515625 154.742188 427.296875 C 155.6875 428.082031 156.691406 428.78125 157.753906 429.398438 C 158.820312 430.015625 159.925781 430.539062 161.078125 430.96875 C 162.226562 431.402344 163.40625 431.734375 164.613281 431.972656 C 165.816406 432.207031 167.035156 432.339844 168.265625 432.375 C 169.492188 432.40625 170.714844 432.335938 171.933594 432.164062 C 173.148438 431.992188 174.34375 431.722656 175.515625 431.351562 C 176.6875 430.980469 177.820312 430.515625 178.914062 429.957031 C 180.011719 429.398438 181.050781 428.753906 182.035156 428.019531 C 183.023438 427.285156 183.941406 426.476562 184.792969 425.589844 C 185.648438 424.707031 186.417969 423.753906 187.113281 422.742188 C 187.804688 421.726562 188.410156 420.660156 188.925781 419.546875 C 189.441406 418.429688 189.863281 417.277344 190.1875 416.09375 C 190.511719 414.90625 190.734375 413.703125 190.859375 412.480469 L 195.753906 363.53125 C 195.839844 362.644531 195.964844 361.765625 196.132812 360.894531 C 196.300781 360.019531 196.507812 359.15625 196.753906 358.300781 C 197.003906 357.445312 197.289062 356.601562 197.613281 355.773438 C 197.9375 354.945312 198.300781 354.136719 198.699219 353.339844 C 199.101562 352.546875 199.535156 351.769531 200.007812 351.015625 C 200.480469 350.261719 200.984375 349.53125 201.523438 348.820312 C 202.0625 348.113281 202.632812 347.433594 203.234375 346.777344 C 203.835938 346.121094 204.46875 345.496094 205.125 344.898438 C 205.785156 344.300781 206.472656 343.734375 207.183594 343.203125 C 207.894531 342.667969 208.632812 342.167969 209.390625 341.703125 C 210.148438 341.238281 210.925781 340.808594 211.722656 340.414062 C 212.519531 340.019531 213.335938 339.664062 214.164062 339.34375 C 214.996094 339.023438 215.839844 338.746094 216.695312 338.503906 C 217.554688 338.261719 218.417969 338.0625 219.292969 337.902344 C 220.167969 337.742188 221.050781 337.621094 221.9375 337.539062 C 222.820312 337.460938 223.710938 337.421875 224.601562 337.425781 Z M 224.601562 337.425781 " fill-opacity="1" fill-rule="nonzero"/><path fill="#e6a6cd" d="M 288.65625 144.128906 L 160.542969 144.128906 C 159.703125 144.128906 158.882812 144 158.082031 143.742188 C 157.285156 143.484375 156.542969 143.109375 155.859375 142.617188 C 155.179688 142.125 154.589844 141.542969 154.09375 140.867188 C 153.59375 140.1875 153.210938 139.453125 152.945312 138.65625 L 120.917969 42.570312 C 120.652344 41.777344 120.515625 40.964844 120.507812 40.128906 C 120.496094 39.296875 120.613281 38.480469 120.859375 37.683594 C 121.105469 36.886719 121.464844 36.144531 121.941406 35.460938 C 122.421875 34.773438 122.988281 34.179688 123.652344 33.671875 C 124.316406 33.167969 125.039062 32.773438 125.828125 32.492188 C 126.613281 32.210938 127.421875 32.058594 128.257812 32.03125 C 129.089844 32.003906 129.910156 32.105469 130.710938 32.335938 C 131.511719 32.566406 132.261719 32.910156 132.957031 33.375 L 174.695312 61.203125 L 218.195312 3.203125 C 218.582031 2.730469 219.019531 2.304688 219.5 1.929688 C 219.984375 1.550781 220.503906 1.230469 221.058594 0.96875 C 221.609375 0.707031 222.1875 0.511719 222.785156 0.375 C 223.382812 0.242188 223.988281 0.175781 224.601562 0.175781 C 225.210938 0.175781 225.816406 0.242188 226.414062 0.375 C 227.011719 0.511719 227.589844 0.707031 228.140625 0.96875 C 228.695312 1.230469 229.214844 1.550781 229.699219 1.929688 C 230.179688 2.304688 230.617188 2.730469 231.003906 3.203125 L 274.503906 61.199219 L 316.242188 33.375 C 316.9375 32.910156 317.6875 32.566406 318.488281 32.335938 C 319.289062 32.105469 320.109375 32.003906 320.941406 32.03125 C 321.777344 32.058594 322.585938 32.210938 323.371094 32.492188 C 324.160156 32.773438 324.882812 33.167969 325.546875 33.671875 C 326.210938 34.179688 326.777344 34.773438 327.257812 35.460938 C 327.734375 36.144531 328.09375 36.886719 328.339844 37.683594 C 328.585938 38.480469 328.703125 39.296875 328.691406 40.128906 C 328.683594 40.964844 328.546875 41.777344 328.28125 42.570312 L 296.253906 138.65625 C 295.988281 139.453125 295.605469 140.1875 295.109375 140.863281 C 294.609375 141.542969 294.019531 142.125 293.339844 142.617188 C 292.65625 143.109375 291.917969 143.484375 291.117188 143.742188 C 290.316406 144 289.496094 144.128906 288.65625 144.128906 Z M 166.3125 128.113281 L 282.886719 128.113281 L 305.710938 59.648438 L 277.082031 78.726562 C 276.660156 79.007812 276.21875 79.246094 275.75 79.445312 C 275.28125 79.640625 274.800781 79.792969 274.304688 79.898438 C 273.808594 80.003906 273.308594 80.0625 272.800781 80.070312 C 272.292969 80.082031 271.789062 80.042969 271.289062 79.957031 C 270.789062 79.871094 270.304688 79.742188 269.828125 79.5625 C 269.351562 79.382812 268.898438 79.164062 268.46875 78.898438 C 268.035156 78.632812 267.628906 78.332031 267.253906 77.988281 C 266.878906 77.648438 266.539062 77.273438 266.238281 76.867188 L 224.601562 21.355469 L 182.960938 76.867188 C 182.660156 77.273438 182.320312 77.648438 181.945312 77.988281 C 181.570312 78.328125 181.164062 78.632812 180.730469 78.898438 C 180.300781 79.160156 179.847656 79.382812 179.371094 79.5625 C 178.898438 79.738281 178.410156 79.871094 177.910156 79.957031 C 177.410156 80.042969 176.90625 80.082031 176.398438 80.070312 C 175.894531 80.0625 175.390625 80.003906 174.894531 79.898438 C 174.398438 79.792969 173.917969 79.640625 173.449219 79.445312 C 172.984375 79.25 172.539062 79.011719 172.117188 78.730469 L 143.488281 59.648438 Z M 166.3125 128.113281 " fill-opacity="1" fill-rule="nonzero"/><path fill="#e6a6cd" d="M 224.601562 112.101562 C 223.8125 112.101562 223.027344 112.0625 222.246094 111.984375 C 221.460938 111.90625 220.683594 111.792969 219.914062 111.636719 C 219.140625 111.484375 218.378906 111.292969 217.625 111.066406 C 216.875 110.835938 216.132812 110.570312 215.40625 110.269531 C 214.679688 109.96875 213.96875 109.632812 213.277344 109.261719 C 212.582031 108.890625 211.90625 108.488281 211.253906 108.050781 C 210.601562 107.613281 209.96875 107.144531 209.359375 106.648438 C 208.753906 106.148438 208.171875 105.621094 207.613281 105.0625 C 207.058594 104.507812 206.53125 103.925781 206.03125 103.316406 C 205.53125 102.710938 205.0625 102.078125 204.625 101.425781 C 204.191406 100.769531 203.785156 100.097656 203.414062 99.402344 C 203.042969 98.707031 202.707031 97.996094 202.40625 97.269531 C 202.105469 96.542969 201.839844 95.804688 201.613281 95.050781 C 201.382812 94.296875 201.191406 93.535156 201.039062 92.765625 C 200.886719 91.992188 200.769531 91.214844 200.695312 90.433594 C 200.617188 89.648438 200.578125 88.863281 200.578125 88.078125 C 200.578125 87.292969 200.617188 86.507812 200.695312 85.722656 C 200.769531 84.941406 200.886719 84.164062 201.039062 83.390625 C 201.191406 82.621094 201.382812 81.859375 201.613281 81.105469 C 201.839844 80.351562 202.105469 79.613281 202.40625 78.886719 C 202.707031 78.160156 203.042969 77.449219 203.414062 76.753906 C 203.785156 76.0625 204.191406 75.386719 204.625 74.734375 C 205.0625 74.078125 205.53125 73.449219 206.03125 72.839844 C 206.53125 72.230469 207.058594 71.648438 207.613281 71.09375 C 208.171875 70.535156 208.753906 70.007812 209.359375 69.507812 C 209.96875 69.011719 210.601562 68.542969 211.253906 68.105469 C 211.90625 67.667969 212.582031 67.265625 213.277344 66.894531 C 213.96875 66.523438 214.679688 66.1875 215.40625 65.886719 C 216.132812 65.585938 216.875 65.320312 217.625 65.089844 C 218.378906 64.863281 219.140625 64.671875 219.914062 64.519531 C 220.683594 64.363281 221.460938 64.25 222.246094 64.171875 C 223.027344 64.09375 223.8125 64.058594 224.601562 64.058594 C 225.386719 64.058594 226.171875 64.09375 226.953125 64.171875 C 227.738281 64.25 228.515625 64.363281 229.285156 64.519531 C 230.058594 64.671875 230.820312 64.863281 231.574219 65.089844 C 232.324219 65.320312 233.066406 65.585938 233.792969 65.886719 C 234.519531 66.1875 235.230469 66.523438 235.921875 66.894531 C 236.617188 67.265625 237.292969 67.667969 237.945312 68.105469 C 238.597656 68.542969 239.230469 69.011719 239.839844 69.507812 C 240.445312 70.007812 241.027344 70.535156 241.585938 71.09375 C 242.140625 71.648438 242.667969 72.230469 243.167969 72.839844 C 243.667969 73.449219 244.136719 74.078125 244.574219 74.734375 C 245.007812 75.386719 245.414062 76.0625 245.785156 76.753906 C 246.15625 77.449219 246.492188 78.160156 246.792969 78.886719 C 247.09375 79.613281 247.359375 80.351562 247.585938 81.105469 C 247.816406 81.859375 248.007812 82.621094 248.160156 83.390625 C 248.3125 84.164062 248.429688 84.941406 248.503906 85.722656 C 248.582031 86.507812 248.621094 87.292969 248.621094 88.078125 C 248.621094 88.863281 248.582031 89.648438 248.503906 90.433594 C 248.425781 91.214844 248.308594 91.992188 248.15625 92.761719 C 248 93.535156 247.808594 94.296875 247.582031 95.046875 C 247.351562 95.800781 247.085938 96.539062 246.785156 97.265625 C 246.484375 97.992188 246.148438 98.703125 245.777344 99.398438 C 245.40625 100.089844 245 100.765625 244.566406 101.417969 C 244.128906 102.070312 243.660156 102.703125 243.160156 103.308594 C 242.660156 103.917969 242.132812 104.5 241.578125 105.054688 C 241.019531 105.613281 240.4375 106.140625 239.832031 106.640625 C 239.222656 107.136719 238.59375 107.605469 237.9375 108.042969 C 237.285156 108.480469 236.613281 108.882812 235.917969 109.253906 C 235.222656 109.625 234.515625 109.960938 233.789062 110.265625 C 233.0625 110.566406 232.320312 110.832031 231.570312 111.058594 C 230.816406 111.289062 230.054688 111.480469 229.285156 111.632812 C 228.511719 111.789062 227.734375 111.902344 226.953125 111.980469 C 226.171875 112.058594 225.386719 112.097656 224.601562 112.101562 Z M 224.601562 80.070312 C 224.074219 80.070312 223.554688 80.121094 223.039062 80.226562 C 222.523438 80.328125 222.019531 80.480469 221.535156 80.679688 C 221.050781 80.882812 220.589844 81.128906 220.152344 81.421875 C 219.714844 81.710938 219.308594 82.042969 218.9375 82.417969 C 218.566406 82.789062 218.234375 83.191406 217.941406 83.628906 C 217.648438 84.066406 217.402344 84.527344 217.203125 85.015625 C 217 85.5 216.847656 86 216.746094 86.515625 C 216.644531 87.03125 216.59375 87.550781 216.59375 88.078125 C 216.59375 88.605469 216.644531 89.125 216.746094 89.640625 C 216.847656 90.15625 217 90.65625 217.203125 91.140625 C 217.402344 91.628906 217.648438 92.089844 217.941406 92.527344 C 218.234375 92.964844 218.566406 93.367188 218.9375 93.738281 C 219.308594 94.113281 219.714844 94.445312 220.152344 94.734375 C 220.589844 95.027344 221.050781 95.273438 221.535156 95.476562 C 222.019531 95.675781 222.523438 95.828125 223.039062 95.929688 C 223.554688 96.035156 224.074219 96.085938 224.601562 96.085938 C 225.125 96.085938 225.644531 96.035156 226.160156 95.929688 C 226.675781 95.828125 227.179688 95.675781 227.664062 95.476562 C 228.148438 95.273438 228.609375 95.027344 229.046875 94.734375 C 229.484375 94.445312 229.890625 94.113281 230.261719 93.738281 C 230.632812 93.367188 230.964844 92.964844 231.257812 92.527344 C 231.550781 92.089844 231.796875 91.628906 231.996094 91.140625 C 232.199219 90.65625 232.351562 90.15625 232.453125 89.640625 C 232.554688 89.125 232.605469 88.605469 232.605469 88.078125 C 232.605469 87.550781 232.554688 87.03125 232.453125 86.515625 C 232.347656 86 232.195312 85.5 231.996094 85.015625 C 231.792969 84.53125 231.546875 84.070312 231.253906 83.632812 C 230.964844 83.195312 230.632812 82.789062 230.257812 82.417969 C 229.886719 82.046875 229.484375 81.714844 229.046875 81.421875 C 228.609375 81.128906 228.148438 80.882812 227.664062 80.683594 C 227.175781 80.480469 226.675781 80.328125 226.160156 80.226562 C 225.644531 80.125 225.125 80.070312 224.601562 80.070312 Z M 224.601562 80.070312 " fill-opacity="1" fill-rule="nonzero"/></svg>