<svg xmlns="http://www.w3.org/2000/svg" xmlns:xlink="http://www.w3.org/1999/xlink" width="600" zoomAndPan="magnify" viewBox="0 0 450 449.999984" height="600" preserveAspectRatio="xMidYMid meet" version="1.0"><path fill="#e6a6cd" d="M 308.121094 294.25 L 386.910156 195.800781 L 427.464844 161.875 C 428.695312 160.855469 429.84375 159.746094 430.90625 158.554688 C 431.972656 157.363281 432.945312 156.097656 433.824219 154.761719 C 434.707031 153.425781 435.480469 152.035156 436.15625 150.582031 C 436.828125 149.132812 437.390625 147.640625 437.84375 146.109375 C 438.292969 144.574219 438.632812 143.015625 438.855469 141.433594 C 439.074219 139.847656 439.179688 138.257812 439.164062 136.660156 C 439.152344 135.058594 439.019531 133.46875 438.773438 131.890625 C 438.523438 130.3125 438.160156 128.757812 437.679688 127.234375 C 437.203125 125.707031 436.613281 124.226562 435.917969 122.785156 C 435.21875 121.347656 434.417969 119.96875 433.515625 118.648438 C 432.613281 117.328125 431.621094 116.082031 430.535156 114.90625 C 429.449219 113.734375 428.28125 112.644531 427.035156 111.644531 C 425.785156 110.644531 424.472656 109.738281 423.089844 108.933594 C 421.710938 108.125 420.277344 107.425781 418.792969 106.832031 C 417.308594 106.234375 415.789062 105.753906 414.230469 105.382812 C 412.675781 105.011719 411.101562 104.757812 409.507812 104.621094 C 408.503906 104.621094 407.5 104.476562 406.640625 104.476562 C 404.765625 104.480469 402.898438 104.644531 401.050781 104.976562 C 399.199219 105.304688 397.394531 105.792969 395.632812 106.441406 C 393.867188 107.085938 392.175781 107.882812 390.550781 108.828125 C 388.925781 109.773438 387.398438 110.851562 385.964844 112.0625 L 343.003906 148.078125 C 341.507812 149.34375 340.144531 150.738281 338.910156 152.257812 C 338.910156 152.257812 338.910156 152.257812 338.765625 152.257812 C 338.621094 152.257812 338.765625 152.257812 338.765625 152.257812 L 338.566406 152.429688 L 269.828125 238.3125 L 148.425781 215.410156 C 145.175781 214.8125 141.910156 214.707031 138.632812 215.089844 C 135.351562 215.476562 132.199219 216.335938 129.179688 217.671875 L 28.9375 262.472656 C 27.964844 262.90625 27.015625 263.386719 26.089844 263.914062 C 25.164062 264.441406 24.265625 265.011719 23.398438 265.628906 C 22.527344 266.242188 21.691406 266.898438 20.886719 267.597656 C 20.082031 268.292969 19.3125 269.03125 18.578125 269.804688 C 17.847656 270.578125 17.15625 271.382812 16.503906 272.226562 C 15.847656 273.066406 15.238281 273.9375 14.671875 274.839844 C 14.105469 275.742188 13.585938 276.667969 13.109375 277.621094 C 12.632812 278.574219 12.207031 279.546875 11.828125 280.542969 C 11.445312 281.539062 11.117188 282.550781 10.835938 283.578125 C 10.558594 284.605469 10.328125 285.644531 10.152344 286.695312 C 9.972656 287.742188 9.847656 288.800781 9.773438 289.863281 C 9.699219 290.925781 9.679688 291.988281 9.710938 293.050781 C 9.742188 294.117188 9.824219 295.175781 9.960938 296.234375 C 10.097656 297.289062 10.285156 298.335938 10.523438 299.375 C 10.761719 300.410156 11.050781 301.433594 11.390625 302.445312 C 11.730469 303.453125 12.121094 304.445312 12.554688 305.414062 C 13.195312 306.835938 13.929688 308.203125 14.765625 309.519531 C 15.601562 310.835938 16.523438 312.085938 17.539062 313.269531 C 18.554688 314.449219 19.648438 315.554688 20.820312 316.582031 C 21.992188 317.605469 23.234375 318.542969 24.542969 319.390625 C 25.851562 320.238281 27.210938 320.988281 28.628906 321.640625 C 30.042969 322.292969 31.5 322.839844 32.992188 323.28125 C 34.488281 323.726562 36.003906 324.058594 37.546875 324.285156 C 39.089844 324.507812 40.640625 324.621094 42.199219 324.625 C 46.824219 324.625 51.246094 323.671875 55.460938 321.761719 L 146.191406 281.394531 L 170.449219 285.949219 L 156.128906 330.550781 L 108.414062 330.550781 C 107.238281 330.550781 106.121094 330.804688 105.058594 331.304688 C 103.996094 331.804688 103.089844 332.507812 102.34375 333.414062 L 84.929688 354.539062 C 84.667969 354.945312 84.449219 355.367188 84.265625 355.8125 C 84.082031 356.253906 83.941406 356.714844 83.84375 357.183594 C 83.746094 357.652344 83.6875 358.128906 83.675781 358.609375 C 83.664062 359.089844 83.699219 359.566406 83.773438 360.039062 C 83.847656 360.515625 83.964844 360.976562 84.125 361.429688 C 84.285156 361.882812 84.488281 362.316406 84.726562 362.734375 C 84.96875 363.148438 85.242188 363.539062 85.554688 363.90625 C 85.867188 364.273438 86.207031 364.605469 86.582031 364.910156 C 86.953125 365.210938 87.351562 365.480469 87.769531 365.710938 C 88.191406 365.941406 88.632812 366.128906 89.089844 366.28125 C 89.542969 366.429688 90.011719 366.539062 90.488281 366.601562 C 90.964844 366.667969 91.441406 366.6875 91.921875 366.667969 C 92.402344 366.644531 92.875 366.578125 93.34375 366.46875 C 93.808594 366.359375 94.265625 366.207031 94.703125 366.015625 C 95.144531 365.824219 95.5625 365.59375 95.960938 365.324219 C 96.359375 365.054688 96.730469 364.753906 97.074219 364.417969 L 112.109375 346.152344 L 151.261719 346.152344 L 139.488281 383.082031 L 113.027344 383.082031 C 111.285156 383.082031 109.546875 383.160156 107.808594 383.316406 C 106.074219 383.472656 104.351562 383.707031 102.636719 384.019531 C 100.921875 384.332031 99.226562 384.71875 97.546875 385.183594 C 95.867188 385.648438 94.214844 386.1875 92.582031 386.800781 C 90.953125 387.410156 89.351562 388.097656 87.785156 388.851562 C 86.214844 389.609375 84.683594 390.433594 83.1875 391.328125 C 81.691406 392.222656 80.242188 393.179688 78.832031 394.207031 C 77.421875 395.230469 76.0625 396.316406 74.753906 397.460938 C 73.441406 398.609375 72.183594 399.8125 70.980469 401.070312 C 69.777344 402.328125 68.632812 403.640625 67.546875 405.003906 C 66.464844 406.363281 65.441406 407.773438 64.480469 409.226562 C 63.523438 410.679688 62.632812 412.175781 61.808594 413.707031 C 60.984375 415.242188 60.230469 416.808594 59.546875 418.410156 C 58.863281 420.011719 58.253906 421.640625 57.714844 423.300781 C 57.179688 424.957031 56.714844 426.632812 56.328125 428.332031 C 55.945312 430.027344 55.632812 431.738281 55.402344 433.464844 L 41.082031 433.464844 C 40.585938 433.496094 40.097656 433.570312 39.613281 433.695312 C 39.132812 433.816406 38.667969 433.984375 38.214844 434.195312 C 37.765625 434.40625 37.339844 434.65625 36.9375 434.949219 C 36.535156 435.238281 36.164062 435.566406 35.820312 435.925781 C 35.480469 436.289062 35.175781 436.679688 34.910156 437.097656 C 34.644531 437.519531 34.417969 437.960938 34.234375 438.421875 C 34.050781 438.882812 33.914062 439.359375 33.820312 439.847656 C 33.726562 440.335938 33.679688 440.828125 33.679688 441.324219 C 33.679688 441.820312 33.726562 442.3125 33.820312 442.800781 C 33.914062 443.289062 34.050781 443.765625 34.234375 444.226562 C 34.417969 444.6875 34.644531 445.128906 34.910156 445.546875 C 35.175781 445.96875 35.480469 446.359375 35.820312 446.71875 C 36.164062 447.082031 36.535156 447.410156 36.9375 447.699219 C 37.339844 447.992188 37.765625 448.242188 38.214844 448.453125 C 38.667969 448.664062 39.132812 448.832031 39.613281 448.953125 C 40.097656 449.078125 40.585938 449.152344 41.082031 449.183594 L 430.585938 449.183594 C 431.082031 449.152344 431.570312 449.078125 432.050781 448.953125 C 432.535156 448.832031 433 448.664062 433.449219 448.453125 C 433.902344 448.242188 434.328125 447.992188 434.730469 447.699219 C 435.132812 447.410156 435.503906 447.082031 435.84375 446.71875 C 436.1875 446.359375 436.488281 445.96875 436.757812 445.546875 C 437.023438 445.128906 437.25 444.6875 437.433594 444.226562 C 437.617188 443.765625 437.753906 443.289062 437.847656 442.800781 C 437.941406 442.3125 437.988281 441.820312 437.988281 441.324219 C 437.988281 440.828125 437.941406 440.335938 437.847656 439.847656 C 437.753906 439.359375 437.617188 438.882812 437.433594 438.421875 C 437.25 437.960938 437.023438 437.519531 436.757812 437.097656 C 436.488281 436.679688 436.1875 436.289062 435.84375 435.929688 C 435.503906 435.566406 435.132812 435.238281 434.730469 434.949219 C 434.328125 434.65625 433.902344 434.40625 433.449219 434.195312 C 433 433.984375 432.535156 433.816406 432.050781 433.695312 C 431.570312 433.570312 431.082031 433.496094 430.585938 433.464844 L 410.9375 433.464844 C 410.703125 431.742188 410.390625 430.03125 410 428.335938 C 409.609375 426.640625 409.144531 424.964844 408.601562 423.308594 C 408.0625 421.65625 407.449219 420.03125 406.761719 418.429688 C 406.078125 416.832031 405.320312 415.265625 404.492188 413.734375 C 403.664062 412.203125 402.773438 410.710938 401.8125 409.261719 C 400.851562 407.808594 399.828125 406.40625 398.738281 405.046875 C 397.652344 403.6875 396.507812 402.378906 395.300781 401.121094 C 394.097656 399.863281 392.839844 398.664062 391.527344 397.519531 C 390.214844 396.378906 388.855469 395.296875 387.445312 394.273438 C 386.035156 393.253906 384.582031 392.296875 383.085938 391.40625 C 381.59375 390.511719 380.058594 389.691406 378.492188 388.9375 C 376.921875 388.183594 375.320312 387.5 373.691406 386.890625 C 372.0625 386.28125 370.40625 385.746094 368.726562 385.28125 C 367.050781 384.820312 365.355469 384.433594 363.640625 384.125 C 361.925781 383.816406 360.203125 383.582031 358.46875 383.425781 C 356.734375 383.273438 355 383.195312 353.257812 383.195312 L 326.050781 383.195312 L 290.25 305.527344 C 293.777344 304.707031 297.074219 303.332031 300.136719 301.398438 C 303.203125 299.464844 305.863281 297.082031 308.121094 294.25 Z M 71.324219 433.464844 C 71.554688 432.261719 71.835938 431.074219 72.164062 429.894531 C 72.496094 428.71875 72.878906 427.554688 73.308594 426.410156 C 73.742188 425.265625 74.222656 424.140625 74.75 423.039062 C 75.28125 421.933594 75.855469 420.855469 76.480469 419.800781 C 77.101562 418.75 77.765625 417.722656 78.476562 416.726562 C 79.1875 415.730469 79.941406 414.765625 80.734375 413.835938 C 81.53125 412.902344 82.363281 412.007812 83.234375 411.148438 C 84.105469 410.289062 85.011719 409.46875 85.957031 408.6875 C 86.898438 407.910156 87.871094 407.167969 88.878906 406.472656 C 89.886719 405.777344 90.917969 405.125 91.984375 404.515625 C 93.046875 403.910156 94.132812 403.347656 95.242188 402.835938 C 96.355469 402.320312 97.484375 401.855469 98.636719 401.441406 C 99.789062 401.023438 100.957031 400.660156 102.140625 400.34375 C 103.320312 400.027344 104.515625 399.765625 105.722656 399.554688 C 106.925781 399.34375 108.140625 399.183594 109.359375 399.074219 C 110.578125 398.96875 111.800781 398.914062 113.027344 398.914062 L 353.257812 398.914062 C 354.480469 398.914062 355.703125 398.96875 356.921875 399.078125 C 358.140625 399.1875 359.351562 399.34375 360.558594 399.558594 C 361.761719 399.769531 362.957031 400.035156 364.136719 400.351562 C 365.320312 400.664062 366.488281 401.03125 367.636719 401.449219 C 368.789062 401.863281 369.917969 402.328125 371.027344 402.84375 C 372.140625 403.355469 373.226562 403.917969 374.289062 404.523438 C 375.347656 405.132812 376.382812 405.785156 377.390625 406.480469 C 378.394531 407.179688 379.367188 407.917969 380.308594 408.699219 C 381.25 409.480469 382.15625 410.300781 383.027344 411.160156 C 383.898438 412.019531 384.730469 412.914062 385.527344 413.84375 C 386.320312 414.773438 387.070312 415.738281 387.78125 416.734375 C 388.492188 417.730469 389.15625 418.753906 389.78125 419.808594 C 390.402344 420.863281 390.976562 421.941406 391.503906 423.042969 C 392.035156 424.144531 392.515625 425.269531 392.945312 426.414062 C 393.375 427.558594 393.757812 428.71875 394.089844 429.898438 C 394.421875 431.074219 394.699219 432.265625 394.929688 433.464844 Z M 150.886719 251.335938 C 150.847656 250.855469 150.761719 250.378906 150.632812 249.914062 C 150.503906 249.445312 150.332031 248.996094 150.121094 248.5625 C 149.90625 248.125 149.65625 247.714844 149.367188 247.328125 C 149.078125 246.9375 148.753906 246.578125 148.398438 246.25 C 148.042969 245.921875 147.660156 245.628906 147.25 245.375 C 146.835938 245.117188 146.40625 244.898438 145.957031 244.722656 C 145.503906 244.542969 145.042969 244.410156 144.566406 244.320312 C 144.089844 244.230469 143.609375 244.183594 143.125 244.179688 L 142.265625 244.179688 C 141.753906 244.234375 141.253906 244.335938 140.761719 244.488281 C 140.269531 244.640625 139.796875 244.839844 139.347656 245.082031 C 138.894531 245.328125 138.46875 245.613281 138.070312 245.941406 C 137.675781 246.269531 137.316406 246.632812 136.988281 247.03125 C 136.664062 247.429688 136.378906 247.855469 136.136719 248.308594 C 135.894531 248.761719 135.699219 249.234375 135.550781 249.726562 C 135.402344 250.21875 135.300781 250.722656 135.25 251.234375 C 135.199219 251.746094 135.199219 252.257812 135.25 252.769531 L 136.824219 268.199219 L 48.902344 307.535156 C 46.804688 308.460938 44.605469 308.917969 42.3125 308.90625 C 40.695312 308.917969 39.105469 308.703125 37.546875 308.265625 C 35.988281 307.824219 34.519531 307.179688 33.144531 306.324219 C 31.769531 305.472656 30.539062 304.445312 29.453125 303.242188 C 28.367188 302.042969 27.472656 300.714844 26.761719 299.261719 C 26.539062 298.757812 26.339844 298.246094 26.167969 297.722656 C 25.996094 297.203125 25.851562 296.671875 25.730469 296.136719 C 25.609375 295.601562 25.515625 295.058594 25.449219 294.515625 C 25.382812 293.96875 25.34375 293.421875 25.328125 292.871094 C 25.316406 292.324219 25.332031 291.773438 25.371094 291.226562 C 25.414062 290.679688 25.480469 290.132812 25.574219 289.59375 C 25.671875 289.050781 25.792969 288.515625 25.941406 287.984375 C 26.085938 287.457031 26.261719 286.9375 26.460938 286.421875 C 26.660156 285.910156 26.882812 285.410156 27.132812 284.921875 C 27.378906 284.429688 27.652344 283.953125 27.949219 283.488281 C 28.242188 283.027344 28.5625 282.578125 28.902344 282.148438 C 29.242188 281.714844 29.601562 281.300781 29.980469 280.902344 C 30.363281 280.507812 30.761719 280.128906 31.179688 279.773438 C 31.597656 279.417969 32.03125 279.082031 32.484375 278.765625 C 32.933594 278.453125 33.398438 278.160156 33.878906 277.890625 C 34.359375 277.625 34.851562 277.378906 35.355469 277.160156 L 135.59375 232.355469 C 137.777344 231.40625 140.058594 230.929688 142.4375 230.925781 C 143.480469 230.921875 144.511719 231.015625 145.53125 231.210938 L 266.9375 253.941406 L 270.859375 266.339844 C 271.113281 267.132812 271.480469 267.867188 271.964844 268.546875 C 272.453125 269.222656 273.03125 269.808594 273.703125 270.304688 C 274.375 270.796875 275.105469 271.175781 275.898438 271.4375 C 276.6875 271.699219 277.5 271.832031 278.335938 271.835938 C 279.148438 271.839844 279.941406 271.714844 280.710938 271.460938 C 281.203125 271.308594 281.675781 271.105469 282.128906 270.859375 C 282.582031 270.609375 283.003906 270.320312 283.398438 269.988281 C 283.796875 269.660156 284.152344 269.292969 284.476562 268.890625 C 284.800781 268.488281 285.082031 268.058594 285.320312 267.601562 C 285.554688 267.144531 285.746094 266.667969 285.890625 266.171875 C 286.035156 265.675781 286.128906 265.171875 286.175781 264.660156 C 286.21875 264.144531 286.214844 263.632812 286.15625 263.121094 C 286.101562 262.609375 285.996094 262.105469 285.839844 261.613281 L 281.65625 248.730469 L 345.46875 169.003906 L 370.441406 191.21875 L 295.976562 284.429688 C 295.035156 285.617188 293.949219 286.65625 292.722656 287.546875 C 291.496094 288.4375 290.171875 289.148438 288.75 289.675781 C 287.332031 290.207031 285.867188 290.535156 284.355469 290.667969 C 282.84375 290.796875 281.34375 290.722656 279.851562 290.441406 L 152.460938 266.597656 Z M 423.3125 138.488281 C 423.136719 140.71875 422.53125 142.824219 421.503906 144.8125 C 420.476562 146.796875 419.101562 148.507812 417.382812 149.9375 L 381.410156 179.910156 L 356.121094 157.496094 L 395.960938 124.171875 C 397.460938 122.910156 399.136719 121.941406 400.984375 121.273438 C 402.832031 120.605469 404.734375 120.273438 406.699219 120.28125 C 407.195312 120.253906 407.691406 120.253906 408.1875 120.28125 C 408.734375 120.328125 409.277344 120.40625 409.816406 120.507812 C 410.351562 120.609375 410.886719 120.738281 411.410156 120.894531 C 411.9375 121.046875 412.453125 121.230469 412.960938 121.433594 C 413.46875 121.640625 413.964844 121.867188 414.449219 122.125 C 414.9375 122.378906 415.410156 122.65625 415.867188 122.953125 C 416.324219 123.253906 416.765625 123.578125 417.195312 123.921875 C 417.621094 124.265625 418.027344 124.628906 418.417969 125.011719 C 418.8125 125.394531 419.183594 125.796875 419.53125 126.21875 C 419.882812 126.636719 420.214844 127.074219 420.523438 127.527344 C 420.832031 127.980469 421.117188 128.445312 421.378906 128.925781 C 421.644531 129.40625 421.882812 129.898438 422.097656 130.402344 C 422.3125 130.90625 422.5 131.421875 422.664062 131.945312 C 422.828125 132.464844 422.964844 132.996094 423.078125 133.53125 C 423.191406 134.066406 423.277344 134.609375 423.335938 135.152344 C 423.394531 135.695312 423.425781 136.242188 423.433594 136.789062 C 423.4375 137.339844 423.417969 137.882812 423.367188 138.429688 Z M 155.984375 383.195312 L 186.027344 288.867188 L 272.808594 305.128906 L 308.722656 383.195312 Z M 155.984375 383.195312 " fill-opacity="1" fill-rule="nonzero"/><path fill="#e6a6cd" d="M 49.675781 135.050781 C 50.710938 138.558594 52.496094 141.632812 55.03125 144.269531 L 55.03125 209.828125 C 54.996094 210.363281 55.019531 210.898438 55.097656 211.429688 C 55.171875 211.960938 55.304688 212.476562 55.484375 212.984375 C 55.667969 213.488281 55.902344 213.96875 56.183594 214.425781 C 56.464844 214.882812 56.789062 215.308594 57.15625 215.699219 C 57.523438 216.089844 57.929688 216.4375 58.367188 216.746094 C 58.808594 217.054688 59.273438 217.316406 59.769531 217.527344 C 60.261719 217.742188 60.769531 217.902344 61.296875 218.011719 C 61.824219 218.121094 62.355469 218.175781 62.890625 218.175781 C 63.429688 218.175781 63.960938 218.121094 64.484375 218.011719 C 65.011719 217.902344 65.523438 217.742188 66.015625 217.527344 C 66.507812 217.316406 66.972656 217.054688 67.414062 216.746094 C 67.855469 216.4375 68.257812 216.089844 68.625 215.699219 C 68.992188 215.308594 69.320312 214.882812 69.601562 214.425781 C 69.882812 213.96875 70.113281 213.488281 70.296875 212.984375 C 70.480469 212.476562 70.609375 211.960938 70.6875 211.429688 C 70.761719 210.898438 70.785156 210.363281 70.753906 209.828125 L 70.753906 153.890625 C 82.125 157.425781 93.761719 159.046875 105.664062 158.753906 C 131.277344 158.25 156.382812 154.433594 180.988281 147.304688 C 211.316406 138.800781 238.957031 126.808594 258.746094 113.238281 C 286.925781 93.972656 289.621094 78.484375 286.957031 68.867188 C 286.957031 68.867188 274.582031 24.578125 274.582031 24.578125 C 269.800781 7.832031 247.546875 0.847656 218.476562 0.847656 C 192.867188 1.351562 167.757812 5.171875 143.15625 12.296875 C 84.183594 28.730469 28.851562 60.964844 37.1875 90.738281 Z M 269.6875 70.039062 C 270.082031 70.425781 270.457031 70.835938 270.804688 71.269531 C 270.898438 71.414062 270.972656 71.566406 271.03125 71.726562 C 271.304688 72.152344 271.523438 72.597656 271.691406 73.074219 C 273.007812 77.796875 268.054688 87.757812 249.753906 100.269531 C 231.453125 112.78125 205.476562 124.117188 176.605469 132.160156 C 153.613281 138.90625 130.136719 142.492188 106.179688 142.925781 C 81.894531 142.925781 66.601562 137.773438 64.679688 130.816406 C 63.851562 127.953125 65.484375 122.886719 71.269531 116.5 C 75.890625 111.617188 81.007812 107.324219 86.621094 103.617188 C 104.921875 91.109375 130.867188 79.800781 159.738281 71.726562 C 165.464844 70.125 171.191406 68.867188 176.921875 67.492188 L 179.382812 66.917969 C 184.769531 65.773438 190.09375 64.800781 195.308594 64.054688 L 198.171875 63.625 C 203.355469 62.851562 208.453125 62.253906 213.378906 61.824219 L 215.441406 61.679688 C 220.570312 61.277344 225.582031 61.019531 230.304688 61.019531 C 233.265625 61.019531 236.128906 61.105469 238.898438 61.277344 C 245.363281 61.519531 251.722656 62.472656 257.972656 64.140625 C 258.207031 64.183594 258.433594 64.238281 258.660156 64.3125 C 260.089844 64.714844 261.324219 65.199219 262.527344 65.660156 L 263.097656 65.886719 C 264.074219 66.289062 264.847656 66.71875 265.621094 67.117188 L 266.59375 67.632812 C 267.054688 67.917969 267.492188 68.234375 267.910156 68.578125 C 268.351562 68.84375 268.773438 69.140625 269.171875 69.464844 Z M 259.320312 28.785156 L 265.046875 49.800781 L 264.875 49.800781 C 263.441406 49.3125 262.011719 48.882812 260.292969 48.484375 L 258.746094 48.054688 C 257.542969 47.765625 256.28125 47.507812 254.992188 47.28125 L 253.019531 46.90625 C 251.671875 46.679688 250.152344 46.476562 248.75 46.308594 L 246.71875 46.050781 C 244.511719 45.820312 242.21875 45.621094 239.785156 45.476562 C 236.921875 45.304688 233.714844 45.246094 230.507812 45.246094 L 230.105469 45.246094 C 225.152344 45.246094 219.9375 45.503906 214.613281 45.90625 L 212.234375 46.078125 C 207.050781 46.507812 201.695312 47.164062 196.226562 47.9375 L 193.046875 48.425781 C 187.585938 49.285156 182.007812 50.316406 176.320312 51.515625 L 173.65625 52.117188 C 167.640625 53.433594 161.628906 54.980469 155.554688 56.613281 C 125.054688 65.199219 97.445312 77.195312 77.769531 90.652344 C 75.734375 92.054688 73.902344 93.511719 72.042969 94.746094 L 70.4375 95.976562 L 67.085938 98.839844 L 65.511719 100.210938 C 64.507812 101.101562 63.59375 101.988281 62.648438 102.847656 L 61.445312 104.019531 C 60.242188 105.25 59.152344 106.425781 58.152344 107.597656 L 52.421875 86.585938 C 48.988281 74.277344 84.300781 45.132812 147.507812 27.5 C 170.464844 20.765625 193.902344 17.167969 217.820312 16.707031 C 242.105469 16.707031 257.371094 21.859375 259.320312 28.785156 Z M 259.320312 28.785156 " fill-opacity="1" fill-rule="nonzero"/></svg>