<svg height="600" preserveAspectRatio="xMidYMid meet" viewBox="0 0 450 449.999984" width="600" xmlns="http://www.w3.org/2000/svg" zoomAndPan="magnify"><g fill="#e6a6cd"><path d="m367.949219 40.179688h-62.8125c-1.097657-14.625-13.347657-26.175782-28.246094-26.175782h-33.738281c-2.085938-8.0625-9.417969-14.019531-18.105469-14.019531s-16.019531 5.957031-18.105469 14.019531h-33.738281c-14.898437 0-27.148437 11.550782-28.242187 26.175782h-62.816407c-16.007812 0-29.035156 13.027343-29.035156 29.035156v351.753906c0 16.007812 13.027344 29.046875 29.035156 29.046875h285.804688c16.011719 0 29.039062-13.035156 29.039062-29.046875v-351.753906c-.003906-16.007813-13.03125-29.035156-29.039062-29.035156zm-142.902344-30.84375c3.449219 0 6.460937 1.882812 8.082031 4.667968.800782 1.375 1.261719 2.972656 1.261719 4.675782 0 1.703124-.457031 3.300781-1.261719 4.675781-1.621094 2.785156-4.632812 4.667969-8.082031 4.667969s-6.460937-1.882813-8.078125-4.667969c-.804688-1.375-1.265625-2.972657-1.265625-4.675781 0-1.703126.460937-3.300782 1.265625-4.675782 1.617188-2.785156 4.628906-4.667968 8.078125-4.667968zm-51.84375 14.019531h33.738281c2.085938 8.050781 9.417969 14.019531 18.105469 14.019531s16.019531-5.96875 18.105469-14.019531h33.738281c9.746094 0 17.789063 7.359375 18.851563 16.824219.097656.710937.132812 1.429687.132812 2.160156v38.566406h-141.65625v-38.566406c0-.730469.035156-1.449219.128906-2.160156 1.066406-9.464844 9.109375-16.824219 18.855469-16.824219zm185.757813 306.304687h-77.636719c-2.582031 0-4.675781 2.09375-4.675781 4.675782v77.644531h-185.515626v-333.785157h53.734376v7.386719c0 2.582031 2.085937 4.675781 4.675781 4.675781h151.007812c2.589844 0 4.675781-2.09375 4.675781-4.675781v-7.386719h53.734376zm-6.609376 9.351563-66.351562 66.347656v-66.347656zm35.28125 81.957031c0 10.855469-8.828124 19.695312-19.683593 19.695312h-285.804688c-10.855469 0-19.683593-8.839843-19.683593-19.695312v-351.753906c0-10.855469 8.828124-19.683594 19.683593-19.683594h62.722657v19.3125h-58.410157c-2.589843 0-4.675781 2.09375-4.675781 4.675781v343.136719c0 2.582031 2.085938 4.675781 4.675781 4.675781h194.867188c.148437 0 .300781-.007812.457031-.019531.300781-.027344.601562-.09375.898438-.1875.429687-.121094.851562-.316406 1.234374-.578125.253907-.160156.496094-.355469.710938-.582031v-.007813l82.316406-82.3125h.007813c.109375-.113281.214843-.226562.308593-.335937v-.011719c.195313-.242187.375-.496094.515626-.765625.136718-.269531.253906-.5625.34375-.851562.039062-.140626.074218-.28125.101562-.417969.03125-.132813.050781-.253907.066406-.382813.019532-.1875.027344-.367187.027344-.542968v-260.816407c0-2.582031-2.082031-4.675781-4.675781-4.675781h-58.410157v-19.3125h62.722657c10.855469 0 19.683593 8.828125 19.683593 19.683594zm0 0"/><path d="m197.757812 186.449219c1.300782 5.414062 6.144532 9.339843 11.585938 9.339843 3.949219-.015624 7.277344-3.140624 7.585938-7.105468 1-13.074219 5.03125-25.136719 7.621093-28.195313 2.589844 3.058594 6.628907 15.121094 7.632813 28.195313.296875 3.964844 3.625 7.089844 7.628906 7.105468 5.386719 0 10.242188-3.925781 11.53125-9.339843l12.136719-50.753907c2.535156-10.585937-.019531-21.367187-6.488281-27.464843-4.601563-4.339844-10.746094-5.769531-16.851563-3.917969l-7.894531 2.394531c-5.105469 1.550781-10.285156 1.550781-15.382813 0l-7.902343-2.394531c-6.105469-1.851562-12.25-.421875-16.851563 3.917969-6.46875 6.097656-9.015625 16.878906-6.488281 27.464843zm.769532-71.417969c1.53125-1.441406 3.261718-2.171875 5.179687-2.171875.8125 0 1.664063.140625 2.542969.402344l7.894531 2.394531c6.910157 2.09375 13.914063 2.09375 20.816407 0l7.890624-2.394531c2.9375-.886719 5.535157-.289063 7.726563 1.769531 3.347656 3.148438 5.816406 10.089844 3.804687 18.488281l-12.136718 50.757813c-.148438.644531-.515625 1.179687-.957032 1.554687-.878906-7.929687-4.769531-35.144531-16.738281-35.144531-11.960937 0-15.859375 27.214844-16.738281 35.144531-.441406-.375-.796875-.910156-.953125-1.554687l-12.140625-50.757813c-2.011719-8.398437.46875-15.339843 3.808594-18.488281zm0 0"/><path d="m153.992188 222.722656c-2.089844-1.515625-5.015626-1.054687-6.53125 1.03125l-18.242188 25.078125-7.628906-7.992187c-1.78125-1.871094-4.742188-1.9375-6.609375-.15625-1.867188 1.785156-1.9375 4.742187-.15625 6.609375l11.5 12.050781c.886719.925781 2.109375 1.445312 3.382812 1.445312.105469 0 .207031-.003906.3125-.011718 1.382813-.089844 2.652344-.792969 3.46875-1.914063l21.53125-29.609375c1.519531-2.085937 1.058594-5.011718-1.027343-6.53125zm0 0"/><path d="m153.992188 283.910156c-2.089844-1.519531-5.015626-1.054687-6.53125 1.03125l-18.242188 25.078125-7.628906-7.996093c-1.78125-1.867188-4.742188-1.9375-6.609375-.152344-1.867188 1.78125-1.9375 4.742187-.15625 6.609375l11.5 12.046875c.886719.929687 2.109375 1.449218 3.382812 1.449218.105469 0 .207031-.003906.3125-.011718 1.382813-.09375 2.652344-.792969 3.46875-1.914063l21.53125-29.609375c1.519531-2.089844 1.058594-5.011718-1.027343-6.53125zm0 0"/><path d="m153.992188 345.09375c-2.089844-1.515625-5.015626-1.054688-6.53125 1.03125l-18.242188 25.078125-7.628906-7.992187c-1.78125-1.867188-4.742188-1.9375-6.609375-.15625-1.867188 1.785156-1.9375 4.742187-.15625 6.609374l11.5 12.050782c.886719.925781 2.109375 1.445312 3.382812 1.445312.105469 0 .207031-.003906.3125-.011718 1.382813-.089844 2.652344-.792969 3.46875-1.914063l21.53125-29.609375c1.519531-2.085938 1.058594-5.011719-1.027343-6.53125zm0 0"/><path d="m170.023438 233.246094c0 2.582031 2.09375 4.675781 4.675781 4.675781h159.320312c2.582031 0 4.675781-2.09375 4.675781-4.675781 0-2.582032-2.09375-4.675782-4.675781-4.675782h-159.320312c-2.582031 0-4.675781 2.09375-4.675781 4.675782zm0 0"/><path d="m334.019531 243.046875h-159.320312c-2.582031 0-4.675781 2.09375-4.675781 4.675781 0 2.582032 2.09375 4.675782 4.675781 4.675782h159.320312c2.582031 0 4.675781-2.09375 4.675781-4.675782 0-2.582031-2.09375-4.675781-4.675781-4.675781zm0 0"/><path d="m334.019531 292.304688h-159.320312c-2.582031 0-4.675781 2.09375-4.675781 4.675781 0 2.585937 2.09375 4.675781 4.675781 4.675781h159.320312c2.582031 0 4.675781-2.089844 4.675781-4.675781 0-2.582031-2.09375-4.675781-4.675781-4.675781zm0 0"/><path d="m334.019531 306.785156h-159.320312c-2.582031 0-4.675781 2.09375-4.675781 4.675782 0 2.582031 2.09375 4.675781 4.675781 4.675781h159.320312c2.582031 0 4.675781-2.09375 4.675781-4.675781 0-2.582032-2.09375-4.675782-4.675781-4.675782zm0 0"/><path d="m262.890625 356.042969h-88.191406c-2.582031 0-4.675781 2.09375-4.675781 4.675781s2.09375 4.675781 4.675781 4.675781h88.191406c2.582031 0 4.675781-2.09375 4.675781-4.675781s-2.09375-4.675781-4.675781-4.675781zm0 0"/><path d="m262.890625 370.523438h-88.191406c-2.582031 0-4.675781 2.09375-4.675781 4.675781s2.09375 4.675781 4.675781 4.675781h88.191406c2.582031 0 4.675781-2.09375 4.675781-4.675781s-2.09375-4.675781-4.675781-4.675781zm0 0"/></g></svg>