<svg xmlns="http://www.w3.org/2000/svg" xmlns:xlink="http://www.w3.org/1999/xlink" width="600" zoomAndPan="magnify" viewBox="0 0 450 449.999984" height="600" preserveAspectRatio="xMidYMid meet" version="1.0"><path fill="#e6a6cd" d="M 367.949219 40.179688 L 305.136719 40.179688 C 304.039062 25.554688 291.789062 14.003906 276.890625 14.003906 L 243.152344 14.003906 C 241.066406 5.941406 233.734375 -0.015625 225.046875 -0.015625 C 216.359375 -0.015625 209.027344 5.941406 206.941406 14.003906 L 173.203125 14.003906 C 158.304688 14.003906 146.054688 25.554688 144.960938 40.179688 L 82.144531 40.179688 C 66.136719 40.179688 53.109375 53.207031 53.109375 69.214844 L 53.109375 420.96875 C 53.109375 436.976562 66.136719 450.015625 82.144531 450.015625 L 367.949219 450.015625 C 383.960938 450.015625 396.988281 436.980469 396.988281 420.96875 L 396.988281 69.214844 C 396.984375 53.207031 383.957031 40.179688 367.949219 40.179688 Z M 225.046875 9.335938 C 228.496094 9.335938 231.507812 11.21875 233.128906 14.003906 C 233.929688 15.378906 234.390625 16.976562 234.390625 18.679688 C 234.390625 20.382812 233.933594 21.980469 233.128906 23.355469 C 231.507812 26.140625 228.496094 28.023438 225.046875 28.023438 C 221.597656 28.023438 218.585938 26.140625 216.96875 23.355469 C 216.164062 21.980469 215.703125 20.382812 215.703125 18.679688 C 215.703125 16.976562 216.164062 15.378906 216.96875 14.003906 C 218.585938 11.21875 221.597656 9.335938 225.046875 9.335938 Z M 173.203125 23.355469 L 206.941406 23.355469 C 209.027344 31.40625 216.359375 37.375 225.046875 37.375 C 233.734375 37.375 241.066406 31.40625 243.152344 23.355469 L 276.890625 23.355469 C 286.636719 23.355469 294.679688 30.714844 295.742188 40.179688 C 295.839844 40.890625 295.875 41.609375 295.875 42.339844 L 295.875 80.90625 L 154.21875 80.90625 L 154.21875 42.339844 C 154.21875 41.609375 154.253906 40.890625 154.347656 40.179688 C 155.414062 30.714844 163.457031 23.355469 173.203125 23.355469 Z M 358.960938 329.660156 L 281.324219 329.660156 C 278.742188 329.660156 276.648438 331.753906 276.648438 334.335938 L 276.648438 411.980469 L 91.132812 411.980469 L 91.132812 78.195312 L 144.867188 78.195312 L 144.867188 85.582031 C 144.867188 88.164062 146.953125 90.257812 149.542969 90.257812 L 300.550781 90.257812 C 303.140625 90.257812 305.226562 88.164062 305.226562 85.582031 L 305.226562 78.195312 L 358.960938 78.195312 Z M 352.351562 339.011719 L 286 405.359375 L 286 339.011719 Z M 387.632812 420.96875 C 387.632812 431.824219 378.804688 440.664062 367.949219 440.664062 L 82.144531 440.664062 C 71.289062 440.664062 62.460938 431.824219 62.460938 420.96875 L 62.460938 69.214844 C 62.460938 58.359375 71.289062 49.53125 82.144531 49.53125 L 144.867188 49.53125 L 144.867188 68.84375 L 86.457031 68.84375 C 83.867188 68.84375 81.78125 70.9375 81.78125 73.519531 L 81.78125 416.65625 C 81.78125 419.238281 83.867188 421.332031 86.457031 421.332031 L 281.324219 421.332031 C 281.472656 421.332031 281.625 421.324219 281.78125 421.3125 C 282.082031 421.285156 282.382812 421.21875 282.679688 421.125 C 283.109375 421.003906 283.53125 420.808594 283.914062 420.546875 C 284.167969 420.386719 284.410156 420.191406 284.625 419.964844 L 284.625 419.957031 L 366.941406 337.644531 L 366.949219 337.644531 C 367.058594 337.53125 367.164062 337.417969 367.257812 337.308594 L 367.257812 337.296875 C 367.453125 337.054688 367.632812 336.800781 367.773438 336.53125 C 367.910156 336.261719 368.027344 335.96875 368.117188 335.679688 C 368.15625 335.539062 368.191406 335.398438 368.21875 335.261719 C 368.25 335.128906 368.269531 335.007812 368.285156 334.878906 C 368.304688 334.691406 368.3125 334.511719 368.3125 334.335938 L 368.3125 73.519531 C 368.3125 70.9375 366.230469 68.84375 363.636719 68.84375 L 305.226562 68.84375 L 305.226562 49.53125 L 367.949219 49.53125 C 378.804688 49.53125 387.632812 58.359375 387.632812 69.214844 Z M 387.632812 420.96875 " fill-opacity="1" fill-rule="nonzero"/><path fill="#e6a6cd" d="M 197.757812 186.449219 C 199.058594 191.863281 203.902344 195.789062 209.34375 195.789062 C 213.292969 195.773438 216.621094 192.648438 216.929688 188.683594 C 217.929688 175.609375 221.960938 163.546875 224.550781 160.488281 C 227.140625 163.546875 231.179688 175.609375 232.183594 188.683594 C 232.480469 192.648438 235.808594 195.773438 239.8125 195.789062 C 245.199219 195.789062 250.054688 191.863281 251.34375 186.449219 L 263.480469 135.695312 C 266.015625 125.109375 263.460938 114.328125 256.992188 108.230469 C 252.390625 103.890625 246.246094 102.460938 240.140625 104.3125 L 232.246094 106.707031 C 227.140625 108.257812 221.960938 108.257812 216.863281 106.707031 L 208.960938 104.3125 C 202.855469 102.460938 196.710938 103.890625 192.109375 108.230469 C 185.640625 114.328125 183.09375 125.109375 185.621094 135.695312 Z M 198.527344 115.03125 C 200.058594 113.589844 201.789062 112.859375 203.707031 112.859375 C 204.519531 112.859375 205.371094 113 206.25 113.261719 L 214.144531 115.65625 C 221.054688 117.75 228.058594 117.75 234.960938 115.65625 L 242.851562 113.261719 C 245.789062 112.375 248.386719 112.972656 250.578125 115.03125 C 253.925781 118.179688 256.394531 125.121094 254.382812 133.519531 L 242.246094 184.277344 C 242.097656 184.921875 241.730469 185.457031 241.289062 185.832031 C 240.410156 177.902344 236.519531 150.6875 224.550781 150.6875 C 212.589844 150.6875 208.691406 177.902344 207.8125 185.832031 C 207.371094 185.457031 207.015625 184.921875 206.859375 184.277344 L 194.71875 133.519531 C 192.707031 125.121094 195.1875 118.179688 198.527344 115.03125 Z M 198.527344 115.03125 " fill-opacity="1" fill-rule="nonzero"/><path fill="#e6a6cd" d="M 153.992188 222.722656 C 151.902344 221.207031 148.976562 221.667969 147.460938 223.753906 L 129.21875 248.832031 L 121.589844 240.839844 C 119.808594 238.96875 116.847656 238.902344 114.980469 240.683594 C 113.113281 242.46875 113.042969 245.425781 114.824219 247.292969 L 126.324219 259.34375 C 127.210938 260.269531 128.433594 260.789062 129.707031 260.789062 C 129.8125 260.789062 129.914062 260.785156 130.019531 260.777344 C 131.402344 260.6875 132.671875 259.984375 133.488281 258.863281 L 155.019531 229.253906 C 156.539062 227.167969 156.078125 224.242188 153.992188 222.722656 Z M 153.992188 222.722656 " fill-opacity="1" fill-rule="nonzero"/><path fill="#e6a6cd" d="M 153.992188 283.910156 C 151.902344 282.390625 148.976562 282.855469 147.460938 284.941406 L 129.21875 310.019531 L 121.589844 302.023438 C 119.808594 300.15625 116.847656 300.085938 114.980469 301.871094 C 113.113281 303.652344 113.042969 306.613281 114.824219 308.480469 L 126.324219 320.527344 C 127.210938 321.457031 128.433594 321.976562 129.707031 321.976562 C 129.8125 321.976562 129.914062 321.972656 130.019531 321.964844 C 131.402344 321.871094 132.671875 321.171875 133.488281 320.050781 L 155.019531 290.441406 C 156.539062 288.351562 156.078125 285.429688 153.992188 283.910156 Z M 153.992188 283.910156 " fill-opacity="1" fill-rule="nonzero"/><path fill="#e6a6cd" d="M 153.992188 345.09375 C 151.902344 343.578125 148.976562 344.039062 147.460938 346.125 L 129.21875 371.203125 L 121.589844 363.210938 C 119.808594 361.34375 116.847656 361.273438 114.980469 363.054688 C 113.113281 364.839844 113.042969 367.796875 114.824219 369.664062 L 126.324219 381.714844 C 127.210938 382.640625 128.433594 383.160156 129.707031 383.160156 C 129.8125 383.160156 129.914062 383.15625 130.019531 383.148438 C 131.402344 383.058594 132.671875 382.355469 133.488281 381.234375 L 155.019531 351.625 C 156.539062 349.539062 156.078125 346.613281 153.992188 345.09375 Z M 153.992188 345.09375 " fill-opacity="1" fill-rule="nonzero"/><path fill="#e6a6cd" d="M 170.023438 233.246094 C 170.023438 235.828125 172.117188 237.921875 174.699219 237.921875 L 334.019531 237.921875 C 336.601562 237.921875 338.695312 235.828125 338.695312 233.246094 C 338.695312 230.664062 336.601562 228.570312 334.019531 228.570312 L 174.699219 228.570312 C 172.117188 228.570312 170.023438 230.664062 170.023438 233.246094 Z M 170.023438 233.246094 " fill-opacity="1" fill-rule="nonzero"/><path fill="#e6a6cd" d="M 334.019531 243.046875 L 174.699219 243.046875 C 172.117188 243.046875 170.023438 245.140625 170.023438 247.722656 C 170.023438 250.304688 172.117188 252.398438 174.699219 252.398438 L 334.019531 252.398438 C 336.601562 252.398438 338.695312 250.304688 338.695312 247.722656 C 338.695312 245.140625 336.601562 243.046875 334.019531 243.046875 Z M 334.019531 243.046875 " fill-opacity="1" fill-rule="nonzero"/><path fill="#e6a6cd" d="M 334.019531 292.304688 L 174.699219 292.304688 C 172.117188 292.304688 170.023438 294.398438 170.023438 296.980469 C 170.023438 299.566406 172.117188 301.65625 174.699219 301.65625 L 334.019531 301.65625 C 336.601562 301.65625 338.695312 299.566406 338.695312 296.980469 C 338.695312 294.398438 336.601562 292.304688 334.019531 292.304688 Z M 334.019531 292.304688 " fill-opacity="1" fill-rule="nonzero"/><path fill="#e6a6cd" d="M 334.019531 306.785156 L 174.699219 306.785156 C 172.117188 306.785156 170.023438 308.878906 170.023438 311.460938 C 170.023438 314.042969 172.117188 316.136719 174.699219 316.136719 L 334.019531 316.136719 C 336.601562 316.136719 338.695312 314.042969 338.695312 311.460938 C 338.695312 308.878906 336.601562 306.785156 334.019531 306.785156 Z M 334.019531 306.785156 " fill-opacity="1" fill-rule="nonzero"/><path fill="#e6a6cd" d="M 262.890625 356.042969 L 174.699219 356.042969 C 172.117188 356.042969 170.023438 358.136719 170.023438 360.71875 C 170.023438 363.300781 172.117188 365.394531 174.699219 365.394531 L 262.890625 365.394531 C 265.472656 365.394531 267.566406 363.300781 267.566406 360.71875 C 267.566406 358.136719 265.472656 356.042969 262.890625 356.042969 Z M 262.890625 356.042969 " fill-opacity="1" fill-rule="nonzero"/><path fill="#e6a6cd" d="M 262.890625 370.523438 L 174.699219 370.523438 C 172.117188 370.523438 170.023438 372.617188 170.023438 375.199219 C 170.023438 377.78125 172.117188 379.875 174.699219 379.875 L 262.890625 379.875 C 265.472656 379.875 267.566406 377.78125 267.566406 375.199219 C 267.566406 372.617188 265.472656 370.523438 262.890625 370.523438 Z M 262.890625 370.523438 " fill-opacity="1" fill-rule="nonzero"/></svg>