<svg xmlns="http://www.w3.org/2000/svg" xmlns:xlink="http://www.w3.org/1999/xlink" width="600" zoomAndPan="magnify" viewBox="0 0 450 449.999984" height="600" preserveAspectRatio="xMidYMid meet" version="1.0"><path fill="#e6a6cd" d="M 377.621094 367.339844 C 377.289062 367.007812 371.664062 355.769531 298.839844 256.574219 C 349.484375 219.542969 363.71875 158.375 346.175781 107.128906 C 339.222656 87.621094 331.941406 79.023438 328.628906 75.054688 C 324.988281 71.085938 323.996094 71.085938 323.335938 71.75 C 322.671875 72.410156 322.011719 73.070312 324.328125 78.03125 C 326.3125 82.992188 331.941406 91.585938 337.238281 110.101562 C 351.800781 163.335938 334.257812 219.542969 283.941406 250.957031 C 272.027344 258.230469 258.125 264.511719 242.234375 268.148438 C 226.675781 271.785156 209.132812 273.4375 190.925781 271.453125 C 171.066406 269.140625 148.558594 262.527344 128.695312 247.648438 C 118.765625 240.375 109.828125 231.117188 102.546875 220.535156 C 78.382812 186.148438 75.070312 139.859375 90.296875 102.5 C 95.59375 89.601562 102.546875 77.039062 111.8125 66.789062 C 158.15625 13.886719 255.144531 5.953125 312.078125 60.507812 C 319.363281 67.449219 322.671875 72.078125 323.335938 71.75 C 323.664062 71.417969 321.015625 66.457031 314.066406 58.855469 C 262.757812 0 156.5 1.984375 104.199219 59.515625 C 93.9375 70.425781 85.996094 83.652344 80.035156 97.871094 C 62.160156 139.859375 66.464844 190.117188 91.953125 227.480469 C 100.226562 239.382812 110.160156 249.964844 121.082031 257.898438 C 123.070312 259.550781 125.054688 260.875 127.371094 262.195312 C 122.738281 286.664062 77.058594 402.058594 77.386719 401.726562 C 77.058594 402.71875 76.726562 404.042969 76.726562 405.363281 C 76.394531 407.679688 76.394531 410.324219 77.058594 413.300781 C 77.386719 414.621094 78.050781 416.273438 79.042969 417.929688 C 80.035156 419.582031 81.359375 420.902344 83.015625 421.894531 C 86.324219 423.546875 89.636719 423.878906 92.945312 423.21875 C 95.59375 422.558594 97.582031 421.894531 99.898438 420.902344 C 108.503906 416.9375 114.460938 410.984375 120.421875 407.679688 C 126.378906 404.371094 133 403.050781 136.640625 405.363281 C 140.613281 407.347656 143.261719 412.96875 144.253906 419.25 C 145.578125 425.863281 146.570312 434.128906 152.859375 441.402344 C 155.839844 444.710938 159.480469 447.023438 163.785156 448.347656 C 167.757812 449.667969 172.722656 450 177.355469 448.015625 C 181.328125 446.363281 184.308594 443.054688 185.960938 440.082031 C 187.617188 437.105469 188.609375 434.789062 189.601562 432.144531 C 191.589844 427.1875 192.914062 421.894531 193.574219 416.9375 C 193.574219 416.605469 199.863281 285.671875 199.863281 285.011719 C 211.121094 285.671875 222.042969 285.011719 232.636719 283.359375 C 233.628906 285.011719 234.621094 286.996094 235.613281 289.308594 C 255.144531 328.65625 262.097656 371.96875 277.984375 412.636719 C 279.972656 417.929688 282.289062 422.886719 284.605469 428.179688 C 286.261719 431.152344 287.914062 433.796875 290.894531 436.445312 C 292.21875 437.765625 294.867188 439.417969 297.183594 439.75 C 299.832031 440.410156 302.148438 440.082031 304.464844 439.089844 C 305.460938 438.425781 306.785156 437.765625 307.445312 436.773438 C 308.4375 435.78125 309.101562 434.789062 309.761719 434.128906 C 316.050781 425.203125 316.382812 413.300781 319.03125 405.363281 C 320.355469 401.066406 323.003906 397.097656 325.320312 395.445312 C 327.96875 393.792969 330.617188 393.460938 333.925781 394.785156 C 335.582031 395.445312 337.238281 396.4375 339.222656 397.757812 C 344.1875 401.394531 349.484375 407.679688 356.765625 411.644531 C 358.089844 412.308594 359.414062 412.96875 360.738281 413.300781 C 362.394531 413.960938 363.71875 414.289062 365.375 414.289062 C 368.351562 414.621094 371.664062 414.289062 374.640625 413.628906 C 377.621094 412.636719 380.601562 411.316406 382.917969 408.671875 C 385.234375 406.355469 386.890625 402.71875 387.550781 399.742188 C 388.214844 395.445312 387.550781 391.808594 386.558594 389.164062 C 385.234375 382.21875 382.253906 375.277344 377.621094 367.339844 Z M 176.691406 427.1875 C 175.699219 429.167969 175.039062 431.484375 174.046875 432.808594 C 173.050781 434.128906 172.390625 435.121094 171.398438 435.453125 C 170.402344 435.78125 169.078125 436.113281 167.425781 435.453125 C 165.769531 434.789062 163.785156 433.796875 162.460938 432.144531 C 161.796875 431.484375 161.136719 430.492188 160.804688 429.5 C 160.140625 428.507812 159.8125 427.1875 159.148438 425.863281 C 158.15625 423.21875 157.496094 419.910156 156.832031 416.273438 C 156.171875 412.636719 154.847656 408.339844 152.527344 404.371094 C 150.210938 400.402344 146.902344 396.105469 141.9375 393.792969 C 136.972656 391.476562 131.675781 390.816406 126.710938 391.808594 C 121.746094 392.800781 117.773438 394.453125 113.800781 396.765625 C 105.855469 401.394531 100.558594 407.015625 94.269531 409.992188 C 92.945312 410.652344 90.960938 411.316406 89.964844 411.644531 C 88.644531 411.976562 88.3125 411.644531 88.3125 411.644531 C 88.3125 411.644531 88.3125 411.644531 87.980469 411.316406 C 87.980469 410.984375 87.648438 410.652344 87.648438 410.324219 C 87.320312 409.332031 87.320312 407.679688 87.320312 406.355469 C 87.320312 405.695312 87.648438 405.03125 87.648438 404.042969 C 99.898438 353.453125 128.035156 305.839844 129.359375 263.519531 C 149.21875 276.082031 170.402344 282.035156 189.273438 284.019531 C 190.265625 284.019531 190.925781 284.019531 191.921875 284.351562 C 177.023438 344.855469 187.617188 399.082031 176.691406 427.1875 Z M 374.640625 398.089844 C 374.640625 398.75 374.3125 399.414062 373.648438 399.742188 C 373.316406 400.402344 372.324219 400.734375 371.332031 401.066406 C 370.339844 401.394531 368.683594 401.394531 367.359375 401.394531 C 366.699219 401.394531 366.035156 401.066406 365.375 401.066406 C 364.710938 400.734375 364.050781 400.402344 363.054688 400.074219 C 360.078125 398.421875 356.765625 395.773438 353.125 392.46875 C 349.484375 389.164062 344.851562 385.523438 338.890625 383.210938 C 335.914062 382.21875 332.273438 381.226562 328.628906 381.558594 C 324.988281 381.886719 321.015625 383.542969 318.039062 385.523438 C 312.078125 390.152344 309.429688 396.105469 307.445312 401.726562 C 305.460938 407.679688 305.128906 413.300781 303.804688 417.929688 C 303.140625 420.242188 302.480469 422.558594 301.488281 424.539062 C 301.15625 425.53125 300.492188 426.523438 300.164062 427.1875 L 299.832031 427.847656 C 299.832031 427.847656 299.832031 427.847656 299.5 428.175781 C 299.5 428.175781 299.171875 428.175781 298.839844 428.175781 C 298.507812 428.175781 298.839844 428.175781 297.847656 427.515625 C 296.523438 426.523438 295.199219 424.539062 294.203125 422.558594 C 291.886719 417.929688 289.570312 412.96875 287.253906 408.007812 C 270.039062 368.332031 259.777344 320.71875 237.933594 286.996094 C 236.9375 285.339844 235.945312 283.6875 234.953125 282.367188 C 238.261719 281.703125 241.574219 281.042969 244.882812 280.382812 C 262.097656 276.414062 277.324219 269.472656 290.5625 261.535156 C 291.226562 261.203125 291.558594 260.875 292.21875 260.542969 C 317.046875 315.429688 361.070312 358.082031 371.664062 385.855469 C 373.648438 390.484375 375.304688 395.773438 374.640625 398.089844 Z M 374.640625 398.089844 " fill-opacity="1" fill-rule="nonzero"/><path fill="#e6a6cd" d="M 230.648438 193.425781 C 228.332031 193.425781 225.683594 193.09375 222.703125 193.09375 C 224.359375 185.488281 226.015625 167.964844 227.339844 128.289062 C 227.671875 122.003906 227.671875 114.730469 227.671875 106.796875 C 227.671875 102.5 227.671875 98.199219 227.671875 93.902344 C 227.671875 91.917969 228 89.933594 227.671875 87.949219 C 227.339844 85.964844 227.007812 84.644531 226.347656 83.320312 C 225.683594 82 224.691406 80.675781 223.699219 80.015625 C 222.375 79.023438 220.71875 78.363281 219.394531 78.363281 C 217.738281 78.363281 216.414062 78.363281 215.089844 79.351562 L 210.457031 82.992188 C 209.796875 83.652344 208.800781 84.3125 208.140625 84.972656 L 206.484375 86.628906 L 204.167969 88.941406 C 200.527344 91.917969 197.214844 95.222656 194.238281 98.53125 C 188.277344 104.8125 182.984375 111.09375 178.679688 116.714844 C 170.074219 127.957031 165.109375 135.894531 166.101562 136.882812 C 167.09375 137.546875 173.714844 130.933594 183.644531 121.34375 C 188.609375 116.714844 194.566406 111.09375 200.859375 105.472656 C 204.167969 102.5 207.476562 99.851562 210.789062 96.878906 L 213.4375 94.894531 L 214.097656 94.5625 L 214.429688 94.5625 C 214.761719 94.5625 215.089844 94.230469 215.089844 94.230469 C 215.421875 94.230469 215.421875 94.5625 215.421875 94.894531 C 215.421875 95.222656 215.421875 95.222656 215.089844 95.554688 C 214.761719 99.523438 214.761719 103.488281 214.429688 107.128906 C 214.097656 115.0625 213.765625 122.335938 213.4375 128.617188 C 212.113281 168.625 212.441406 186.148438 213.765625 193.753906 C 193.574219 193.753906 168.75 195.078125 168.417969 197.722656 C 168.75 201.027344 210.457031 205.988281 229.988281 206.980469 C 265.40625 208.632812 266.398438 205.65625 266.730469 202.019531 C 266.730469 198.382812 266.066406 195.40625 230.648438 193.425781 Z M 230.648438 193.425781 " fill-opacity="1" fill-rule="nonzero"/></svg>