<svg xmlns="http://www.w3.org/2000/svg" xmlns:xlink="http://www.w3.org/1999/xlink" width="600" zoomAndPan="magnify" viewBox="0 0 450 449.999984" height="600" preserveAspectRatio="xMidYMid meet" version="1.0"><defs><clipPath id="id1"><path d="M 0 7.03125 L 416 7.03125 L 416 272 L 0 272 Z M 0 7.03125 " clip-rule="nonzero"/></clipPath><clipPath id="id2"><path d="M 17 238 L 406 238 L 406 442.78125 L 17 442.78125 Z M 17 238 " clip-rule="nonzero"/></clipPath></defs><g clip-path="url(#id1)"><path fill="#e6a6cd" d="M 365.691406 107.976562 L 218.148438 162.054688 L 27.402344 92.175781 L 218.148438 21.949219 L 375.175781 79.535156 L 415.925781 79.535156 L 220.609375 7.902344 C 219.203125 7.203125 217.449219 7.203125 215.691406 7.902344 L 4.566406 85.503906 C 1.757812 86.558594 0 89.015625 0 92.175781 C 0 95.335938 1.757812 97.792969 4.566406 98.847656 L 91.335938 130.800781 L 91.335938 214.722656 C 91.335938 218.585938 91.335938 225.609375 145.082031 248.785156 C 157.378906 254.050781 198.476562 271.257812 217.097656 271.257812 C 236.066406 271.257812 277.867188 254.050781 290.164062 248.785156 C 344.613281 225.609375 344.613281 218.585938 344.613281 214.722656 L 344.613281 130.800781 L 406.441406 107.976562 C 406.441406 107.976562 365.691406 107.976562 365.691406 107.976562 Z M 330.5625 212.265625 C 318.96875 222.449219 239.578125 256.859375 217.097656 256.859375 C 195.316406 256.859375 116.980469 222.449219 105.386719 212.265625 L 105.386719 135.71875 L 215.691406 176.097656 C 216.394531 176.449219 217.449219 176.449219 218.148438 176.449219 C 218.851562 176.449219 219.90625 176.449219 220.609375 176.097656 L 330.914062 135.71875 Z M 330.5625 212.265625 " fill-opacity="1" fill-rule="nonzero"/></g><path fill="#e6a6cd" d="M 448.945312 220.691406 C 447.890625 216.128906 446.839844 211.210938 446.136719 206.648438 L 444.378906 192.601562 L 441.921875 178.554688 C 440.867188 173.289062 440.164062 168.375 439.109375 163.105469 C 444.730469 161.351562 448.945312 156.082031 448.945312 149.761719 C 448.945312 143.089844 444.378906 137.472656 438.054688 136.070312 C 438.40625 135.367188 439.109375 135.015625 439.460938 134.3125 L 441.570312 131.503906 C 442.621094 130.449219 441.570312 129.398438 441.921875 128.695312 L 441.921875 93.933594 C 441.921875 90.070312 438.757812 86.910156 434.894531 86.910156 L 322.480469 86.910156 C 303.863281 87.261719 284.894531 86.207031 266.277344 88.3125 C 254.683594 89.367188 243.089844 90.421875 231.148438 91.472656 C 229.390625 88.664062 224.121094 86.558594 217.796875 86.558594 C 210.070312 86.558594 203.746094 89.71875 203.746094 93.582031 C 203.746094 97.445312 210.070312 100.605469 217.796875 100.605469 C 224.121094 100.605469 229.039062 98.496094 231.148438 95.6875 C 242.738281 96.742188 254.332031 98.144531 266.277344 98.847656 C 284.894531 101.304688 303.863281 100.253906 322.480469 100.253906 L 427.867188 100.253906 L 427.867188 127.992188 C 428.21875 129.046875 427.167969 130.097656 428.21875 130.800781 L 430.328125 133.609375 C 430.679688 134.3125 431.382812 134.664062 431.734375 135.367188 C 425.410156 136.769531 420.84375 142.390625 420.84375 149.0625 C 420.84375 155.382812 425.058594 160.648438 430.679688 162.402344 C 429.625 167.671875 428.570312 172.585938 427.867188 177.855469 L 425.410156 191.898438 L 423.652344 205.945312 C 422.949219 210.507812 421.898438 215.425781 420.84375 219.992188 C 419.789062 224.554688 419.789062 229.472656 420.84375 234.035156 C 421.546875 238.601562 422.949219 243.515625 425.058594 248.082031 C 427.167969 252.644531 429.625 257.5625 433.488281 262.125 L 436.300781 262.125 C 440.164062 257.5625 442.972656 252.644531 444.730469 248.082031 C 446.839844 243.515625 447.890625 238.601562 448.945312 234.035156 C 450 230.171875 450 225.609375 448.945312 220.691406 Z M 448.945312 220.691406 " fill-opacity="1" fill-rule="nonzero"/><g clip-path="url(#id2)"><path fill="#e6a6cd" d="M 400.117188 349.207031 C 396.957031 344.644531 390.632812 340.429688 385.363281 339.375 C 240.632812 307.773438 52.691406 239.652344 50.9375 239.304688 C 50.585938 239.304688 49.882812 238.953125 49.53125 238.953125 C 48.828125 238.953125 28.453125 241.058594 21.078125 265.285156 C 18.265625 275.117188 17.214844 293.730469 31.96875 303.910156 C 28.804688 305.316406 24.589844 307.421875 20.023438 308.476562 C 18.617188 308.828125 17.5625 310.234375 17.5625 311.988281 C 17.5625 313.742188 18.96875 315.148438 20.375 315.148438 C 21.078125 315.148438 81.5 326.035156 148.945312 347.101562 L 88.875 366.0625 L 121.546875 368.171875 L 120.140625 384.671875 L 159.484375 366.0625 L 148.945312 399.070312 L 171.078125 393.453125 L 188.992188 405.742188 L 191.804688 361.5 C 259.953125 386.429688 322.132812 416.976562 353.746094 441.910156 C 354.449219 442.261719 355.152344 442.609375 355.855469 442.609375 C 356.558594 442.609375 357.261719 442.261719 357.960938 441.910156 C 357.960938 441.910156 373.417969 429.96875 385.363281 420.488281 C 385.714844 420.136719 386.066406 419.789062 386.066406 419.4375 C 390.984375 415.222656 394.496094 409.605469 396.957031 403.984375 C 405.035156 387.832031 409.953125 363.253906 400.117188 349.207031 Z M 27.75 267.042969 C 33.019531 249.484375 46.019531 246.324219 49.53125 245.972656 C 56.558594 248.433594 107.496094 266.691406 174.238281 288.109375 C 165.105469 291.269531 157.726562 299.347656 153.511719 307.773438 C 149.648438 315.148438 146.488281 325.332031 148.242188 334.460938 C 83.605469 312.691406 42.503906 301.804688 41.804688 301.453125 C 20.375 293.027344 27.402344 268.097656 27.75 267.042969 Z M 356.558594 434.886719 C 331.96875 415.925781 295.785156 397.316406 258.195312 380.460938 C 292.621094 393.453125 329.859375 408.550781 368.5 425.054688 L 368.851562 425.054688 C 363.582031 429.617188 359.015625 433.128906 356.558594 434.886719 Z M 391.335938 401.527344 C 388.523438 407.847656 380.796875 419.4375 372.015625 418.382812 C 367.449219 418.03125 365.339844 411.710938 364.285156 407.847656 C 360.773438 395.558594 365.339844 378.351562 373.769531 369.222656 C 376.582031 366.414062 380.796875 363.253906 384.308594 363.253906 C 386.066406 363.253906 387.472656 363.957031 388.875 365.710938 C 394.144531 371.679688 390.984375 388.183594 386.066406 395.558594 C 383.957031 398.71875 380.796875 400.824219 377.984375 401.527344 C 376.230469 401.878906 374.824219 401.527344 373.769531 400.476562 C 371.664062 398.71875 370.609375 395.558594 370.960938 392.046875 C 371.3125 387.484375 373.769531 383.621094 376.582031 382.214844 L 376.933594 382.214844 C 377.285156 382.566406 377.285156 383.621094 376.933594 385.023438 C 376.230469 386.78125 377.632812 388.886719 379.390625 389.238281 C 381.148438 389.941406 383.253906 388.535156 383.605469 386.78125 C 384.660156 382.566406 383.957031 378.703125 381.148438 376.597656 C 380.09375 375.894531 377.285156 374.140625 373.066406 376.246094 C 368.148438 379.054688 364.285156 385.023438 363.582031 391.695312 C 362.878906 397.664062 364.988281 403.285156 368.851562 406.445312 C 371.664062 408.550781 375.175781 409.605469 378.6875 408.902344 C 383.605469 408.199219 388.523438 404.6875 391.6875 399.773438 C 391.6875 399.421875 392.039062 399.421875 392.039062 399.070312 C 392.039062 399.773438 391.6875 400.824219 391.335938 401.527344 Z M 398.359375 373.085938 C 398.007812 368.519531 396.605469 364.308594 393.792969 361.5 C 390.984375 358.339844 387.820312 356.933594 383.957031 356.582031 C 383.957031 356.582031 383.957031 356.582031 383.605469 356.582031 C 376.230469 356.582031 370.257812 362.199219 367.796875 364.660156 C 357.609375 375.542969 352.691406 395.558594 356.558594 409.957031 C 356.910156 411.359375 357.261719 412.414062 357.609375 413.46875 C 297.191406 387.832031 240.632812 366.414062 192.855469 349.558594 C 189.695312 340.429688 193.910156 329.894531 198.125 321.820312 C 202.691406 313.394531 210.070312 304.964844 219.554688 302.15625 C 272.597656 318.308594 330.914062 334.460938 383.605469 346.046875 C 387.121094 346.75 392.039062 349.910156 394.144531 353.070312 C 397.65625 357.988281 399.0625 365.011719 398.359375 373.085938 Z M 398.359375 373.085938 " fill-opacity="1" fill-rule="nonzero"/></g></svg>