<svg xmlns="http://www.w3.org/2000/svg" xmlns:xlink="http://www.w3.org/1999/xlink" width="600" zoomAndPan="magnify" viewBox="0 0 450 449.999984" height="600" preserveAspectRatio="xMidYMid meet" version="1.0"><defs><clipPath id="id1"><path d="M 3 81.816406 L 450 81.816406 L 450 366 L 3 366 Z M 3 81.816406 " clip-rule="nonzero"/></clipPath></defs><g clip-path="url(#id1)"><path fill="#e6a6cd" d="M 54.0625 81.910156 C 52.941406 82.144531 52.203125 82.890625 51.085938 84.308594 C 49.742188 86.019531 47.574219 90.367188 46.261719 93.964844 C 44.953125 97.5625 43.023438 102.425781 41.976562 104.777344 C 40.925781 107.128906 40.070312 109.699219 40.070312 110.503906 C 40.070312 111.308594 38.445312 115.925781 36.460938 120.761719 C 33.503906 127.96875 31.976562 129.960938 27.992188 131.847656 C 19.335938 135.941406 13.121094 139.191406 7.597656 149.160156 C 2.074219 159.128906 0.695312 192.242188 10 203.027344 C 19.304688 213.808594 28.996094 219.09375 33.550781 219.113281 C 35.632812 219.113281 38.007812 220.273438 39.074219 221.792969 C 40.097656 223.261719 43.316406 226.34375 46.21875 228.652344 C 54.949219 235.59375 57.199219 243.925781 54.820312 260.46875 C 51.128906 285.238281 37.371094 307.433594 26.925781 323.496094 C 21.777344 331.382812 24.761719 342.589844 34.28125 351.15625 C 44.910156 360.71875 77.964844 368.234375 92.304688 364.351562 C 103.082031 361.429688 109.261719 350.785156 116.359375 322.886719 L 120.683594 305.886719 L 127.210938 305.886719 C 131.292969 305.886719 135.882812 304.457031 142.753906 302.09375 C 149.625 299.734375 155.957031 293.917969 162.332031 288.246094 C 172.128906 279.410156 178.882812 264.722656 180.386719 253.691406 C 180.96875 249.21875 181.308594 244.546875 181.148438 243.300781 C 180.984375 242.058594 181.949219 240.734375 183.289062 240.363281 C 187.304688 239.253906 205.398438 235.699219 215.542969 234.027344 C 220.757812 233.164062 228.996094 231.640625 233.839844 230.636719 C 238.683594 229.632812 245.691406 228.429688 249.417969 227.953125 C 256.089844 227.101562 257.832031 226.660156 270.917969 222.589844 C 281.269531 219.367188 291.402344 211.925781 294.683594 205.148438 C 296.242188 201.921875 297.523438 197.730469 297.523438 195.820312 C 297.523438 192.527344 298.066406 192.253906 308.019531 190.753906 C 320.574219 188.855469 349.320312 186.855469 375.4375 186.046875 C 385.871094 185.726562 395.015625 185.335938 395.761719 185.183594 C 402.078125 183.898438 408.378906 185.578125 413.316406 189.84375 C 420.265625 195.851562 427.300781 197.984375 434.101562 196.152344 C 439.617188 194.667969 445.53125 189.382812 447.835938 183.878906 C 448.617188 182.011719 449.0625 180.644531 449.261719 172.117188 C 449.460938 163.589844 438.035156 150.671875 425.375 153.640625 C 412.710938 156.613281 410.558594 160.847656 408.226562 164.539062 C 406.886719 166.660156 362.878906 166.925781 340.199219 164.945312 C 332.003906 164.230469 319.746094 163.332031 312.96875 162.953125 C 306.1875 162.570312 299.71875 161.90625 298.578125 161.46875 C 297.371094 161.003906 296.175781 158.226562 295.703125 154.769531 C 295.257812 151.519531 293.421875 145.605469 291.621094 141.628906 C 287.644531 132.851562 280.855469 114.933594 278.351562 106.605469 C 276.734375 101.226562 276.011719 100.457031 272.257812 100.09375 C 267.398438 99.621094 265.238281 102.035156 259.003906 114.964844 L 255.300781 122.652344 L 247.617188 119.996094 C 243.390625 118.53125 225.601562 113.386719 208.085938 108.566406 C 178.9375 100.542969 174.351562 99.65625 153.886719 98.042969 C 141.589844 97.078125 123.601562 96.464844 113.914062 96.695312 C 100.757812 97.003906 95.265625 96.628906 92.230469 95.183594 C 85.609375 92.035156 78.332031 88.980469 77.445312 88.980469 C 76.992188 88.980469 74.03125 87.855469 70.875 86.472656 C 67.714844 85.09375 62.523438 83.339844 59.335938 82.582031 C 56.6875 81.953125 55.179688 81.675781 54.058594 81.910156 Z M 57.414062 92.765625 C 59.457031 93.03125 63.769531 94.1875 68.519531 95.800781 C 75.796875 98.269531 78.671875 99.726562 76.328125 99.765625 C 72.585938 99.820312 55.75 105.90625 52.605469 108.332031 C 51.410156 109.257812 50.910156 109.007812 50.910156 107.476562 C 50.910156 105.191406 54.808594 94.371094 56.195312 92.808594 C 56.308594 92.683594 56.730469 92.675781 57.414062 92.765625 Z M 116.289062 104.273438 C 131.523438 104.140625 164.742188 106.222656 171.503906 107.964844 C 174.113281 108.636719 183.257812 110.816406 191.832031 112.808594 C 200.402344 114.800781 211.683594 117.644531 216.902344 119.128906 C 222.117188 120.613281 226.988281 121.921875 227.734375 122.039062 C 228.480469 122.160156 230.925781 122.957031 233.160156 123.816406 C 237.945312 125.648438 255.292969 131.101562 258.222656 131.6875 C 259.339844 131.914062 262.898438 133.152344 266.125 134.449219 C 271.085938 136.441406 271.851562 137.25 271.101562 139.667969 C 267.304688 151.914062 266.191406 161.347656 266.664062 177.007812 C 266.917969 184.949219 268.375 193.941406 271.703125 203.691406 C 273.230469 207.148438 274.488281 210.082031 274.488281 210.203125 C 274.488281 210.960938 228.921875 223.175781 223.046875 223.988281 C 220.472656 224.347656 214.148438 225.597656 208.996094 226.769531 C 203.84375 227.941406 198.019531 229.078125 196.0625 229.285156 C 194.105469 229.492188 188.539062 230.070312 183.695312 230.566406 C 178.851562 231.058594 172.457031 231.792969 169.472656 232.191406 C 160.238281 233.421875 118.773438 234.359375 113.894531 233.441406 C 109.441406 232.605469 109.332031 232.441406 110.914062 228.898438 C 119.320312 210.066406 143.609375 183.851562 164.542969 171 C 165.757812 170.253906 168.277344 168.65625 170.144531 167.453125 C 176.941406 163.058594 198.175781 155.597656 208.085938 154.125 C 221.496094 152.128906 222.992188 151.597656 222.992188 148.769531 C 222.992188 145.222656 221.761719 144.578125 217.808594 146.085938 C 215.851562 146.828125 209.96875 147.707031 204.734375 148.035156 C 199.496094 148.359375 193.691406 148.910156 191.828125 149.253906 C 189.964844 149.597656 183.253906 150.253906 176.917969 150.71875 C 160.777344 151.902344 131.375 158.609375 111.886719 165.554688 C 94.085938 171.898438 64.707031 192.171875 52.328125 206.65625 L 47.019531 212.871094 L 44.328125 209.5625 C 36.433594 198.105469 34.253906 183.695312 34.765625 171.46875 C 35.382812 153.722656 38.34375 143.238281 47.796875 128.960938 C 51.839844 123.867188 62.511719 116.265625 69.195312 113.71875 C 79.820312 109.671875 98.125 105.617188 110.984375 104.46875 C 112.296875 104.351562 114.109375 104.292969 116.289062 104.273438 Z M 271.640625 111.328125 C 272.050781 111.402344 272.371094 112.152344 272.847656 113.382812 C 273.570312 115.246094 275.152344 119.136719 276.359375 122.023438 C 277.566406 124.910156 278.546875 128.378906 278.546875 129.738281 C 278.546875 132.082031 278.222656 132.0625 272.117188 129.410156 C 268.578125 127.875 265.273438 126.238281 264.777344 125.765625 C 264.28125 125.292969 265.597656 121.554688 267.707031 117.453125 C 270.023438 112.941406 270.957031 111.199219 271.640625 111.328125 Z M 117.746094 118.882812 C 115.734375 118.863281 113.546875 119.308594 111 120.195312 C 107.941406 121.261719 106.109375 123.523438 103.246094 129.761719 C 97.71875 141.808594 97.34375 146.0625 101.410156 150.453125 C 106.792969 156.265625 112.003906 157.449219 118.195312 154.273438 C 123.523438 151.542969 127.964844 147.339844 130.628906 142.527344 C 131.453125 141.035156 132.148438 136.996094 132.171875 133.550781 C 132.207031 127.988281 131.652344 126.808594 127.25 123.046875 C 123.976562 120.25 121.105469 118.914062 117.746094 118.882812 Z M 153.316406 120.265625 C 151.195312 120.460938 149.230469 121.277344 147.777344 122.886719 C 146.28125 124.539062 145.066406 128.449219 144.707031 132.773438 C 144 141.296875 145.667969 143.269531 154.234375 144.089844 C 160.167969 144.65625 162.660156 143.425781 165.667969 138.429688 C 166.554688 136.957031 167.316406 133.824219 167.359375 131.46875 C 167.484375 124.78125 159.683594 119.683594 153.316406 120.265625 Z M 188.851562 122.386719 C 185.050781 122.152344 181.386719 123.925781 180.476562 127.320312 C 177.679688 137.765625 181.761719 144.070312 190.226562 142.375 C 194.878906 141.445312 196.609375 139.890625 197.628906 135.75 C 198.992188 130.195312 198.523438 128.082031 195.261719 125.058594 C 193.457031 123.382812 191.128906 122.523438 188.851562 122.386719 Z M 119.941406 124.910156 C 120.917969 125.070312 121.800781 125.894531 123.417969 127.511719 C 125.273438 129.367188 126.789062 132.296875 126.789062 134.027344 C 126.789062 139.847656 115.335938 149.484375 109.691406 148.414062 C 107.785156 148.050781 107.046875 146.566406 106.773438 142.515625 C 106.320312 135.914062 110.03125 129.320312 115.910156 126.277344 C 117.902344 125.25 118.964844 124.75 119.941406 124.910156 Z M 214.652344 125.582031 C 207.890625 125.582031 205.433594 135.984375 211.292969 139.824219 C 215.335938 142.476562 221.191406 140.59375 222.859375 136.109375 C 224.976562 130.40625 221.214844 125.578125 214.652344 125.578125 Z M 77.609375 125.703125 C 74.664062 125.488281 71.398438 126.25 67.550781 127.972656 C 59.625 131.523438 55.320312 137.027344 52.042969 147.8125 C 48.257812 160.273438 48.320312 164.472656 52.351562 170.59375 C 59.957031 182.140625 71.230469 180.910156 82.132812 167.335938 C 85.03125 163.730469 87.699219 158.175781 89.164062 152.703125 C 92.34375 140.835938 91.363281 134.136719 85.742188 129.3125 C 83.183594 127.117188 80.554688 125.921875 77.609375 125.703125 Z M 156.351562 126.269531 C 157.308594 126.199219 158.324219 126.410156 159.34375 126.957031 C 160.816406 127.746094 161.957031 128.824219 161.882812 129.359375 C 160.511719 139.1875 151.183594 142.558594 151.183594 133.222656 C 151.183594 129.238281 153.484375 126.480469 156.351562 126.269531 Z M 188.191406 128.511719 C 188.820312 128.550781 189.605469 128.699219 190.378906 128.941406 C 193.863281 130.050781 193.972656 132.589844 190.667969 135.582031 C 188.664062 137.394531 187.875 137.503906 186.777344 136.128906 C 185.445312 134.453125 185.507812 130.109375 186.882812 128.730469 C 187.070312 128.546875 187.558594 128.480469 188.191406 128.519531 Z M 215.910156 130.621094 C 216.292969 130.621094 217.792969 131.425781 218.199219 131.789062 C 219.039062 132.550781 218.15625 135.289062 216.4375 135.789062 C 214.085938 136.472656 212.015625 133.386719 213.757812 131.648438 C 214.242188 131.160156 215.527344 130.632812 215.910156 130.621094 Z M 76.328125 132.359375 C 77.714844 132.359375 79.945312 133.160156 81.285156 134.140625 C 87.421875 138.632812 83.1875 157.484375 74.148438 165.914062 C 64.277344 175.125 57.6875 171.402344 57.6875 156.621094 C 59.25 147.492188 65.421875 132.730469 76.328125 132.359375 Z M 24.75 144.117188 C 25.398438 144.242188 24.765625 147.25 22.964844 154.28125 C 20.316406 164.621094 21.140625 178.832031 25.164062 192.015625 C 26.640625 196.859375 27.859375 201.613281 27.863281 202.578125 C 27.878906 205.832031 21.507812 199.78125 16.835938 192.113281 C 13.324219 185.53125 13.160156 184.480469 12.519531 172.886719 C 11.921875 162.027344 14.632812 154.898438 18.433594 151.34375 C 18.832031 150.972656 20.511719 148.90625 22.164062 146.753906 C 23.507812 145.003906 24.355469 144.039062 24.75 144.117188 Z M 174.269531 155.828125 C 174.773438 155.828125 175.097656 155.828125 175.1875 155.925781 C 176.570312 157.3125 164.570312 162.183594 159.773438 162.183594 C 152.453125 162.183594 155.734375 159.628906 166.136719 157.222656 C 169.605469 156.421875 172.757812 155.894531 174.269531 155.828125 Z M 143.957031 164.175781 C 145.859375 164.03125 147.5625 164.289062 149.789062 164.890625 C 152.789062 165.699219 155.25 166.851562 155.25 167.453125 C 155.25 168.050781 153.195312 169.640625 150.6875 170.992188 C 146.535156 173.226562 145.386719 173.289062 137.816406 171.609375 C 133.246094 170.59375 129.503906 169.425781 129.507812 169.023438 C 129.511719 168.617188 132.851562 167.191406 136.925781 165.855469 C 139.949219 164.859375 142.054688 164.320312 143.957031 164.175781 Z M 428.210938 162.285156 C 432.164062 162.496094 438.242188 166.957031 439.773438 171.0625 C 441.304688 175.167969 436.652344 187.667969 428.910156 186.425781 C 421.167969 185.1875 414.828125 177.835938 415.761719 172.617188 C 416.691406 167.398438 424.261719 162.070312 428.210938 162.285156 Z M 292.390625 168.34375 C 295.660156 168.390625 302.667969 168.898438 310.464844 169.683594 C 320.296875 170.671875 343.042969 171.417969 358.605469 172.164062 C 380.34375 173.203125 396.191406 173.042969 401.132812 172.855469 C 402.351562 172.8125 404.464844 172.316406 405.21875 173.019531 C 406.660156 174.363281 406.160156 177.433594 406.160156 177.816406 C 406.160156 178.808594 370.859375 178.445312 354.625 179.574219 C 350.546875 179.859375 318.144531 181.679688 315.394531 182.375 C 312.644531 183.074219 305.671875 184.054688 299.894531 184.554688 L 289.390625 185.464844 L 289.390625 177.292969 C 289.390625 172.800781 289.878906 168.828125 290.472656 168.457031 C 290.625 168.367188 291.300781 168.328125 292.386719 168.34375 Z M 283.375 180.609375 C 283.425781 183.066406 283.53125 187.132812 284.644531 189.285156 C 286.367188 192.636719 286.332031 195.425781 286.320312 199.023438 C 285.953125 201.210938 284.863281 203.507812 284.070312 205.410156 C 283.285156 206.683594 282.792969 206.386719 282.253906 204.328125 C 281.722656 201.40625 279.664062 197.125 279.363281 194.597656 C 278.691406 191.371094 277.675781 180.980469 277.730469 174.066406 C 277.773438 169.15625 278.328125 161.875 278.34375 159.6875 C 278.359375 157.503906 280.347656 151.675781 281.199219 147.632812 L 281.914062 144.246094 L 283.785156 147.632812 C 286.214844 152.039062 290.1875 158.992188 287.105469 162.042969 C 285.699219 163.4375 284.410156 167.050781 283.8125 171 C 283.21875 174.949219 283.324219 178.148438 283.375 180.609375 Z M 119.699219 173.417969 C 123.988281 173.214844 129.136719 173.992188 135.257812 175.757812 C 141.324219 177.503906 141.53125 178.449219 136.617188 181.980469 C 133.703125 184.074219 131.710938 184.457031 127.46875 183.742188 C 118.027344 182.160156 107.824219 179.203125 107.824219 178.058594 C 107.824219 177.453125 110.09375 176.011719 112.878906 174.847656 C 114.859375 174.019531 117.125 173.539062 119.699219 173.417969 Z M 97.792969 182.277344 L 111.671875 185.792969 C 119.300781 187.722656 125.832031 189.296875 126.171875 189.296875 C 128.023438 189.296875 126.269531 192.210938 122.519531 195.367188 C 117.546875 199.554688 115.566406 199.417969 94.945312 193.496094 L 82.0625 189.796875 L 89.933594 186.039062 Z M 77.257812 195.554688 C 79.605469 195.496094 83.101562 196.449219 90.207031 198.359375 C 94.304688 199.460938 100.964844 201.097656 105.011719 201.988281 C 109.054688 202.878906 112.535156 204.199219 112.746094 204.925781 C 113.453125 207.359375 109.296875 213.347656 106.378906 214.113281 C 102.796875 215.050781 88.007812 212.589844 83.433594 210.292969 C 81.570312 209.359375 76.539062 207.820312 72.253906 206.867188 C 67.96875 205.917969 64.464844 204.625 64.464844 204 C 64.464844 203.371094 64.921875 202.851562 65.480469 202.851562 C 66.039062 202.851562 68.605469 201.046875 71.1875 198.835938 C 73.703125 196.6875 74.90625 195.609375 77.257812 195.550781 Z M 60.644531 210.488281 C 68.582031 212.578125 78.148438 215.109375 83.703125 216.671875 C 89.257812 218.234375 89.976562 219.214844 93.710938 219.726562 C 102.722656 220.96875 104.015625 221.855469 101.605469 225.15625 C 100.550781 226.597656 99.691406 228.804688 99.691406 230.0625 C 99.691406 232.5625 98.085938 232.398438 77.335938 227.707031 C 68.359375 225.675781 52.265625 218.464844 52.265625 216.46875 C 52.265625 215.964844 53.78125 214.226562 55.632812 212.613281 C 57.71875 210.800781 58.921875 210.203125 60.644531 210.488281 Z M 70.914062 240.652344 C 71.0625 240.609375 71.230469 240.652344 71.417969 240.699219 C 72.4375 241.007812 77.53125 241.9375 82.742188 242.773438 C 89.28125 243.824219 92.339844 244.9375 92.617188 246.355469 C 92.832031 247.488281 92.699219 248.71875 92.324219 249.09375 C 91.949219 249.46875 91.308594 253.097656 90.894531 257.160156 C 88.894531 276.738281 76.40625 326.738281 68.734375 345.886719 L 66.027344 352.667969 L 58.953125 352.359375 C 46.367188 351.804688 34.316406 343.5 35.484375 336.191406 C 47.054688 306.628906 70.261719 283.339844 69.804688 251.171875 C 69.632812 243.5 69.867188 240.902344 70.914062 240.667969 Z M 167.441406 242.171875 C 171.03125 242.171875 171.007812 248.3125 167.378906 258.4375 C 162.179688 272.9375 157.417969 280.726562 148.164062 289.875 C 143.421875 294.566406 133.152344 299.109375 127.292969 299.109375 C 120.390625 299.109375 121.496094 295.671875 129.003906 293.777344 C 141.523438 290.625 147.351562 286.476562 156.140625 274.457031 C 160.433594 268.585938 164.519531 256.640625 164.40625 250.300781 C 164.28125 243.398438 164.742188 242.171875 167.441406 242.171875 Z M 153.378906 243.523438 C 156.367188 243.523438 156.597656 244.046875 156.570312 250.644531 C 156.503906 267.054688 140.441406 286.75 127.027344 286.875 C 122.453125 286.921875 126.003906 273.824219 126.003906 273.824219 C 130.796875 272.292969 138.625 269.660156 141.203125 264.722656 C 142.210938 262.792969 144.167969 258.210938 145.046875 253.058594 C 146.878906 242.332031 148.878906 243.523438 153.378906 243.523438 Z M 135.355469 244.996094 C 137.457031 245.054688 137.632812 245.847656 137.632812 248.542969 C 137.632812 254.082031 128.367188 265.886719 125.933594 263.453125 C 125.609375 263.125 125.816406 258.96875 126.402344 254.210938 L 127.46875 245.5625 L 132.550781 245.136719 C 133.742188 245.039062 134.65625 244.972656 135.355469 244.996094 Z M 108.996094 245.128906 C 109.691406 245.128906 110.574219 245.25 111.730469 245.417969 C 114.421875 245.808594 117.082031 246.15625 117.640625 246.183594 C 118.898438 246.25 118.996094 253.574219 117.757812 254.816406 C 116.410156 256.164062 105.117188 255.910156 105.117188 254.535156 C 105.117188 253.882812 105.496094 251.40625 105.972656 249.027344 C 106.582031 245.96875 106.917969 245.09375 108.996094 245.128906 Z M 103.007812 263.742188 L 109.816406 264.140625 C 116.351562 264.523438 116.636719 264.703125 116.796875 268.605469 C 117.105469 276.210938 115.914062 279.824219 112.824219 280.652344 C 108.609375 281.785156 101.316406 281.671875 100.632812 280.46875 C 100.316406 279.910156 100.722656 275.917969 101.535156 271.597656 Z M 101.621094 290.105469 C 102.667969 290.054688 104.011719 290.058594 105.769531 290.105469 C 109.875 290.203125 113.167969 290.578125 113.082031 290.953125 C 112.992188 291.324219 112.339844 294.839844 111.625 298.753906 L 110.328125 305.867188 L 104.445312 305.867188 C 95.746094 305.867188 94.269531 305 95.625 300.679688 C 96.25 298.6875 97.101562 295.457031 97.527344 293.496094 C 98.074219 290.980469 98.488281 290.230469 101.621094 290.085938 Z M 98.984375 314.023438 C 106.953125 314.023438 107 314.078125 105.511719 321.816406 C 104.78125 325.609375 102.203125 327.035156 93.789062 328.296875 L 87.207031 329.285156 L 88.203125 324.703125 C 90.441406 314.410156 90.835938 314.023438 98.984375 314.023438 Z M 93.980469 337.535156 C 99.382812 337.355469 99.46875 339.183594 95.984375 346.1875 C 94.246094 349.679688 92.375 350.980469 86.714844 352.628906 C 82.8125 353.761719 79.25 354.695312 78.792969 354.695312 C 77.554688 354.695312 79.421875 347.820312 81.921875 343.167969 C 83.125 340.929688 84.15625 338.949219 84.21875 338.761719 C 84.277344 338.578125 87.484375 338.113281 91.335938 337.730469 C 92.328125 337.632812 93.210938 337.5625 93.984375 337.535156 Z M 93.980469 337.535156 " fill-opacity="1" fill-rule="nonzero"/></g></svg>