<svg height="600" preserveAspectRatio="xMidYMid meet" viewBox="0 0 450 449.999984" width="600" xmlns="http://www.w3.org/2000/svg" xmlns:xlink="http://www.w3.org/1999/xlink" zoomAndPan="magnify"><clipPath id="a"><path d="m2 142h447v304.15625h-447zm0 0"/></clipPath><clipPath id="b"><path d="m205 3.65625h244v170.34375h-244zm0 0"/></clipPath><path d="m129.386719 130.929688c1.6875 0 3.375-.082032 5.054687-.246094 1.679688-.167969 3.347656-.414063 5.003906-.742188s3.292969-.738281 4.910157-1.226562c1.613281-.492188 3.203125-1.058594 4.761719-1.707032 1.5625-.644531 3.085937-1.363281 4.574218-2.160156 1.488282-.796875 2.9375-1.664062 4.339844-2.601562 1.40625-.9375 2.761719-1.941406 4.066406-3.011719 1.304688-1.070313 2.554688-2.203125 3.75-3.394531 1.191406-1.195313 2.324219-2.445313 3.398438-3.75 1.070312-1.304688 2.074218-2.660156 3.011718-4.0625s1.804688-2.851563 2.601563-4.339844 1.519531-3.011719 2.164063-4.570312c.648437-1.5625 1.214843-3.148438 1.707031-4.765626.488281-1.613281.898437-3.25 1.226562-4.90625.332031-1.65625.578125-3.324218.742188-5.003906.167969-1.679687.25-3.363281.25-5.050781 0-1.691406-.082031-3.375-.25-5.054687-.164063-1.679688-.414063-3.347657-.742188-5.003907-.332031-1.65625-.742187-3.292969-1.234375-4.910156-.488281-1.613281-1.058594-3.203125-1.703125-4.761719-.648437-1.5625-1.371093-3.085937-2.167969-4.574218-.796874-1.488282-1.664062-2.9375-2.601562-4.339844s-1.945312-2.757813-3.015625-4.0625c-1.074219-1.304688-2.207031-2.554688-3.402344-3.75-1.191406-1.191406-2.441406-2.324219-3.75-3.394532-1.304687-1.070312-2.660156-2.074218-4.066406-3.011718-1.402344-.9375-2.851563-1.804688-4.339844-2.601563-1.492187-.792969-3.015625-1.515625-4.578125-2.160156-1.558594-.644531-3.148437-1.214844-4.765625-1.703125-1.613281-.488281-3.25-.898438-4.910156-1.226562-1.65625-.328126-3.324219-.578126-5.003906-.742188-1.679688-.164062-3.367188-.246094-5.054688-.246094-1.691406 0-3.375.085938-5.054687.25-1.679688.167969-3.351563.417969-5.007813.746094-1.65625.332031-3.292969.742188-4.90625 1.230469-1.617187.492187-3.203125 1.0625-4.765625 1.707031-1.558594.648438-3.085937 1.371094-4.574218 2.167969-1.488282.796875-2.933594 1.664062-4.339844 2.601562-1.402344.9375-2.757813 1.945313-4.0625 3.015625-1.304688 1.070313-2.554688 2.203125-3.746094 3.398438-1.195312 1.195312-2.328125 2.445312-3.398438 3.75-1.070312 1.308594-2.074218 2.660156-3.011718 4.066406-.9375 1.402344-1.804688 2.851562-2.597656 4.339844-.796876 1.488281-1.515626 3.015625-2.160157 4.574218-.648437 1.5625-1.214843 3.148438-1.703125 4.765626-.488281 1.613281-.898437 3.25-1.226562 4.90625s-.574219 3.324218-.738282 5.003906c-.164062 1.683594-.246093 3.367187-.246093 5.054687.003906 1.6875.085937 3.371094.253906 5.046875.167969 1.679688.417969 3.347656.75 5s.742187 3.289063 1.234375 4.902344 1.058594 3.199219 1.707031 4.757812c.648438 1.558594 1.371094 3.078126 2.164063 4.566407.796875 1.488281 1.664062 2.933593 2.605468 4.335937.9375 1.402344 1.941407 2.753906 3.011719 4.058594 1.074219 1.300781 2.207031 2.550781 3.398438 3.742188 1.195312 1.191406 2.445312 2.324218 3.75 3.394531 1.304687 1.070312 2.65625 2.070312 4.0625 3.007812 1.402343.9375 2.847656 1.804688 4.335937 2.601563 1.488282.792968 3.011719 1.515625 4.570313 2.160156 1.558593.644531 3.148437 1.214844 4.761719 1.703125 1.613281.492187 3.25.902344 4.90625 1.230469 1.652343.332031 3.320312.578125 5 .746094 1.679687.164062 3.363281.25 5.050781.25zm0-86.214844c1.136719 0 2.273437.054687 3.402343.167968 1.132813.109376 2.257813.277344 3.371094.5 1.117188.21875 2.21875.496094 3.308594.828126 1.085938.328124 2.15625.710937 3.207031 1.144531 1.050781.4375 2.078125.921875 3.082031 1.457031 1 .535156 1.976563 1.121094 2.921876 1.75.945312.632812 1.859374 1.308594 2.738281 2.03125.878906.722656 1.71875 1.484375 2.523437 2.289062.804688.800782 1.566406 1.644532 2.289063 2.523438.722656.878906 1.398437 1.789062 2.03125 2.734375.628906.945313 1.214843 1.917969 1.75 2.921875.535156 1.003906 1.023437 2.027344 1.457031 3.078125s.816406 2.121094 1.148438 3.207031c.328124 1.089844.605468 2.191406.828124 3.304688.222657 1.117187.386719 2.238281.5 3.371094.109376 1.132812.167969 2.265624.167969 3.402343s-.058593 2.269531-.167969 3.402344c-.113281 1.128906-.277343 2.253906-.5 3.367187-.222656 1.117188-.5 2.21875-.828124 3.304688-.332032 1.089844-.714844 2.160156-1.148438 3.207031-.433594 1.050781-.921875 2.078125-1.457031 3.082031-.535157 1-1.121094 1.976563-1.75 2.921876-.632813.945312-1.308594 1.855468-2.03125 2.734374-.722657.878907-1.484375 1.71875-2.289063 2.523438-.804687.804688-1.644531 1.566406-2.523437 2.289062-.878907.71875-1.792969 1.398438-2.738281 2.027344-.945313.632813-1.921876 1.214844-2.921876 1.753906-1.003906.535157-2.03125 1.019532-3.082031 1.453126-1.050781.4375-2.121093.820312-3.207031 1.148437-1.089844.332031-2.191406.605469-3.308594.828125-1.113281.222656-2.238281.390625-3.371094.5-1.128906.113281-2.265624.167969-3.402343.167969s-2.273438-.054688-3.402344-.167969c-1.132813-.109375-2.257813-.277344-3.371094-.5-1.117187-.222656-2.21875-.496094-3.308593-.828125-1.085938-.328125-2.15625-.710937-3.207032-1.148437-1.050781-.433594-2.078125-.917969-3.082031-1.453126-1-.539062-1.976563-1.121093-2.921875-1.753906-.945312-.628906-1.859375-1.308594-2.738281-2.027344-.878907-.722656-1.71875-1.484374-2.523438-2.289062-.804687-.804688-1.566406-1.644531-2.289062-2.523438-.722657-.878906-1.398438-1.789062-2.03125-2.734374-.628907-.945313-1.214844-1.921876-1.75-2.921876-.535157-1.003906-1.023438-2.03125-1.457031-3.082031-.433594-1.046875-.816407-2.117187-1.148438-3.207031-.328125-1.085938-.605469-2.1875-.828125-3.304688-.222656-1.113281-.386719-2.238281-.5-3.367187-.109375-1.132813-.167969-2.265625-.167969-3.402344s.058594-2.269531.167969-3.402343c.113281-1.132813.277344-2.253907.5-3.371094.222656-1.113282.5-2.214844.828125-3.304688.332031-1.085937.714844-2.15625 1.148438-3.207031.433593-1.046875.921874-2.074219 1.457031-3.078125.535156-1.003906 1.121093-1.976562 1.75-2.921875.632812-.945313 1.308593-1.855469 2.03125-2.734375.722656-.878906 1.484375-1.722656 2.289062-2.523438.804688-.804687 1.644531-1.566406 2.523438-2.289062.878906-.722656 1.792969-1.398438 2.738281-2.03125.945312-.628906 1.921875-1.214844 2.921875-1.75 1.003906-.535156 2.03125-1.019531 3.082031-1.457031 1.050782-.433594 2.121094-.816407 3.207032-1.144531 1.089843-.332032 2.191406-.609376 3.308593-.828126 1.113281-.222656 2.238281-.390624 3.371094-.5 1.128906-.113281 2.265625-.167968 3.402344-.167968zm0 0" fill="#e6a6cd"/><g clip-path="url(#a)"><path d="m435.640625 225.125c-1.191406-.761719-2.4375-1.421875-3.730469-1.988281-1.296875-.566407-2.625-1.03125-3.992187-1.390625-1.367188-.359375-2.753907-.613282-4.160157-.757813s-2.8125-.179687-4.226562-.105469c-1.410156.074219-2.804688.257813-4.191406.550782-1.382813.289062-2.734375.6875-4.054688 1.1875-1.320312.503906-2.59375 1.101562-3.824218 1.800781-1.226563.699219-2.394532 1.488281-3.5 2.371094l-56.421876 44.757812h-41.1875l-56.421874-44.757812s-32.660157-55.347657-32.660157-55.347657c-1.296875-2.203124-2.730469-4.308593-4.300781-6.320312-1.570312-2.015625-3.265625-3.917969-5.082031-5.710938-1.820313-1.792968-3.746094-3.464843-5.78125-5.007812-2.035157-1.542969-4.160157-2.945312-6.378907-4.214844-2.21875-1.265625-4.507812-2.382812-6.871093-3.351562s-4.78125-1.78125-7.25-2.4375-4.96875-1.148438-7.503907-1.480469c-2.53125-.328125-5.074218-.496094-7.628906-.496094h-74.277344c-2.554687 0-5.101562.167969-7.632812.496094-2.53125.332031-5.035156.824219-7.503906 1.480469s-4.882813 1.46875-7.246094 2.4375-4.65625 2.085937-6.875 3.351562c-2.214844 1.269532-4.34375 2.671875-6.378906 4.214844s-3.960938 3.214844-5.78125 5.007812c-1.816406 1.792969-3.511719 3.695313-5.082032 5.710938-1.570312 2.011719-3.003906 4.117188-4.300781 6.320312l-35.378906 60.351563c-.605469 1.03125-1.136719 2.09375-1.601563 3.191406-.464843 1.097657-.851562 2.222657-1.167968 3.375-.316406 1.148438-.554688 2.316407-.714844 3.496094-.164062 1.179687-.246094 2.367187-.253906 3.5625-.003906 1.191406.070312 2.378906.21875 3.5625.152344 1.183594.378906 2.351563.683594 3.503906.304687 1.152344.6875 2.28125 1.140624 3.382813.453126 1.101562.976563 2.171875 1.570313 3.207031.59375 1.03125 1.253906 2.023437 1.976563 2.96875.726562.949219 1.511718 1.84375 2.351562 2.6875.84375.84375 1.738281 1.628906 2.683594 2.355469.949218.726562 1.9375 1.386718 2.972656 1.984375 1.03125.597656 2.097656 1.121093 3.203125 1.578125 1.101563.453125 2.230469.835937 3.382813 1.144531 1.152343.304687 2.320312.535156 3.503906.6875 1.183594.15625 2.371094.230469 3.5625.226563 2.15625.007812 4.285156-.238282 6.382812-.738282 2.097656-.496094 4.109375-1.230468 6.035156-2.207031 1.921876-.972656 3.703126-2.15625 5.347657-3.554687 1.644531-1.398438 3.097656-2.964844 4.371093-4.707032l23.910157-32.96875v200.9375h-60.304688c-.554687 0-1.101562.054688-1.644531.160156-.542969.109376-1.066406.269532-1.578125.480469-.511719.210938-.996094.46875-1.457031.777344-.457032.304687-.882813.65625-1.273438 1.046875s-.742187.816406-1.046875 1.273438c-.308593.460937-.566406.945312-.78125 1.457031-.210937.507812-.371093 1.035156-.476562 1.578125-.109375.539062-.164063 1.089844-.164063 1.640625s.054688 1.101562.164063 1.640625c.105469.542968.265625 1.070312.476562 1.578125.214844.511719.472657.996093.78125 1.457031.304688.457031.65625.882812 1.046875 1.273438.390625.390624.816406.742187 1.273438 1.046874.460937.308594.945312.566407 1.457031.777344.511719.210938 1.035156.371094 1.578125.480469.542969.105469 1.089844.160156 1.644531.160156h390.070313c.554687 0 1.101562-.054687 1.644531-.160156.539063-.109375 1.066406-.269531 1.578125-.480469.511719-.210937.996094-.46875 1.457031-.777344.457031-.304687.882813-.65625 1.273438-1.046874.390625-.390626.738281-.816407 1.046875-1.273438.308594-.460938.566406-.945312.777344-1.457031.210937-.507813.371093-1.035157.480468-1.578125.109375-.539063.160156-1.089844.160156-1.640625s-.050781-1.101563-.160156-1.640625c-.109375-.542969-.269531-1.070313-.480468-1.578125-.210938-.511719-.46875-.996094-.777344-1.457031-.308594-.457032-.65625-.882813-1.046875-1.273438s-.816407-.742188-1.273438-1.046875c-.460937-.308594-.945312-.566406-1.457031-.777344-.511719-.210937-1.039062-.371093-1.578125-.480469-.542969-.105468-1.089844-.160156-1.644531-.160156h-24.527344v-106.128906l58.890625-54.914062c.761719-.710938 1.480469-1.464844 2.15625-2.257813.671875-.792969 1.300781-1.625 1.882813-2.488281.578124-.867188 1.109374-1.761719 1.585937-2.691406.476563-.925782.902344-1.875 1.269531-2.847657.371094-.976562.683594-1.96875.9375-2.976562.257813-1.011719.457032-2.03125.59375-3.066407.140625-1.03125.222656-2.070312.242188-3.109374.019531-1.042969-.019532-2.082032-.117188-3.121094-.097656-1.035156-.253906-2.066406-.46875-3.085938-.214844-1.019531-.488281-2.023437-.816406-3.011718-.332031-.988282-.714844-1.953126-1.15625-2.898438s-.933594-1.863281-1.476562-2.75c-.546876-.886719-1.140626-1.742188-1.78125-2.5625-.644532-.820312-1.332032-1.601562-2.0625-2.34375-.730469-.742188-1.503907-1.441406-2.316407-2.097656-.808593-.652344-1.65625-1.257813-2.535156-1.816406zm-252.332031 3.410156 23.949218 33.039063c1.167969 1.578125 2.5 3.003906 3.988282 4.28125.800781.6875 1.5625 1.414062 2.433594 2.03125l59.398437 55.457031v106.128906h-89.769531zm-8.417969-34.421875c-.878906.007813-1.738281.140625-2.578125.398438-.847656.273437-1.632812.675781-2.351562 1.195312-.722657.523438-1.34375 1.144531-1.867188 1.867188-.527344.71875-.925781 1.5-1.203125 2.347656s-.417969 1.714844-.417969 2.605469v226.945312h-28.59375v-108.8125c0-.550781-.054687-1.097656-.164062-1.640625s-.269532-1.066406-.480469-1.578125c-.210937-.507812-.472656-.992187-.777344-1.453125-.308593-.457031-.65625-.882812-1.046875-1.273437s-.816406-.738282-1.277344-1.042969c-.457031-.308594-.945312-.566406-1.453124-.777344-.511719-.210937-1.039063-.371093-1.578126-.480469-.542968-.105468-1.089843-.160156-1.640624-.160156-.554688 0-1.101563.054688-1.644532.160156-.539062.109376-1.066406.269532-1.578125.480469-.507812.210938-.992187.46875-1.453125.777344-.460937.304687-.886718.652344-1.277344 1.042969-.390624.390625-.738281.816406-1.046874 1.273437-.304688.460938-.566407.945313-.777344 1.453125-.210938.511719-.371094 1.035156-.480469 1.578125-.105469.542969-.160156 1.089844-.164063 1.640625v108.8125h-28.628906v-227.019531c.003906-.886719-.132812-1.753906-.40625-2.601563-.273437-.84375-.671875-1.628906-1.191406-2.347656-.523438-.71875-1.140625-1.34375-1.859375-1.867187-.71875-.523438-1.503906-.921875-2.347656-1.199219-.851563-.257812-1.722657-.390625-2.613281-.398438-1.359376.023438-2.644532.355469-3.847657.992188-1.203125.640625-2.191406 1.519531-2.972656 2.636719l-39.152344 53.96875c-.484375.664062-1.039062 1.261719-1.660156 1.792969-.625.53125-1.304687.984374-2.035156 1.355468s-1.496094.65625-2.296875.84375c-.796875.191406-1.605469.289063-2.425782.289063-1.726562.003906-3.347656-.40625-4.863281-1.234375-1.242187-.660156-2.304687-1.535156-3.1875-2.632813-.882812-1.097656-1.515625-2.320312-1.890625-3.675781-.421875-1.347656-.558594-2.71875-.40625-4.117188.148438-1.402343.574219-2.714843 1.273438-3.9375l35.527344-60.390624c.925781-1.570313 1.949218-3.074219 3.070312-4.515626 1.121094-1.4375 2.332031-2.796874 3.628906-4.078124 1.300782-1.28125 2.675782-2.472657 4.128906-3.574219 1.453126-1.101563 2.972657-2.105469 4.558594-3.007813 1.582032-.90625 3.21875-1.703125 4.910156-2.394531 1.6875-.691406 3.414063-1.269531 5.175782-1.738281 1.765625-.464844 3.550781-.816406 5.359375-1.050782 1.8125-.234374 3.628906-.351562 5.453125-.351562h74.347656c1.824219 0 3.644531.117188 5.453125.351562 1.808594.234376 3.59375.585938 5.359375 1.050782 1.761719.46875 3.488281 1.046875 5.175781 1.738281 1.691407.691406 3.328125 1.488281 4.910157 2.394531 1.585937.902344 3.105468 1.90625 4.558593 3.007813 1.453125 1.101562 2.828125 2.292969 4.128907 3.574219 1.296874 1.28125 2.507812 2.640624 3.628906 4.078124 1.121094 1.441407 2.144531 2.945313 3.070312 4.515626l30.480469 52.230468-16.109375 14.507813-35.632812-49.144531c-.792969-1.09375-1.792969-1.945313-2.992188-2.558594-1.203125-.613282-2.480469-.921875-3.828125-.925782zm256.613281 53.207031c.074219.804688.058594 1.605469-.050781 2.40625-.105469.800782-.304687 1.578126-.589844 2.332032-.285156.753906-.652343 1.464844-1.101562 2.136718-.453125.667969-.972657 1.28125-1.5625 1.832032l-61.683594 57.597656c-.847656.792969-1.503906 1.722656-1.960937 2.789062-.460938 1.066407-.691407 2.179688-.6875 3.339844v109.71875h-28.523438v-69.820312c0-.554688-.050781-1.101563-.160156-1.644532-.109375-.539062-.269532-1.066406-.480469-1.578124-.210937-.507813-.46875-.996094-.777344-1.453126-.304687-.460937-.65625-.886718-1.046875-1.277343s-.816406-.738281-1.273437-1.042969c-.460938-.308594-.945313-.566406-1.457031-.78125-.511719-.210938-1.035157-.367188-1.578126-.476562-.542968-.109376-1.089843-.160157-1.644531-.160157-.550781 0-1.097656.050781-1.640625.160157-.542968.109374-1.070312.265624-1.578125.476562-.511719.214844-.996093.472656-1.457031.78125-.460938.304688-.886719.652344-1.277344 1.042969s-.738281.816406-1.046875 1.277343c-.304687.457032-.566406.945313-.777343 1.453126-.210938.511718-.371094 1.039062-.476563 1.578124-.109375.542969-.164063 1.089844-.164063 1.644532v69.820312h-28.59375v-109.792968c-.003906-1.15625-.238281-2.269532-.699218-3.332032-.457032-1.066406-1.109375-1.996094-1.949219-2.796875l-58.382813-54.40625 16.148438-14.507812 53.15625 41.929687c1.53125 1.21875 3.269531 1.824219 5.226562 1.8125h47.171876c1.953124.011719 3.695312-.59375 5.222656-1.8125l58.710937-46.570312c.9375-.742188 1.964844-1.308594 3.089844-1.699219 1.128906-.390625 2.289063-.585937 3.480469-.585937.648437 0 1.292968.0625 1.933594.179687.640624.121094 1.261718.296875 1.871093.53125.605469.238281 1.183594.523437 1.738281.867187.554688.339844 1.070313.730469 1.554688 1.167969.480469.433594.917969.914063 1.3125 1.429688.394531.519531.738281 1.066406 1.03125 1.648437.292969.578125.527344 1.183594.710938 1.804688.183593.625.304687 1.261718.371093 1.910156zm0 0" fill="#e6a6cd"/></g><path d="m378.488281 203.976562c.003907-1.6875-.078125-3.371093-.242187-5.050781-.167969-1.679687-.414063-3.347656-.742188-5.003906s-.734375-3.292969-1.226562-4.910156c-.488282-1.613281-1.054688-3.203125-1.699219-4.761719-.644531-1.5625-1.367187-3.085938-2.160156-4.574219-.796875-1.492187-1.664063-2.9375-2.601563-4.339843-.9375-1.40625-1.941406-2.761719-3.011718-4.066407-1.070313-1.304687-2.203126-2.554687-3.394532-3.75-1.195312-1.195312-2.445312-2.328125-3.75-3.398437-1.304687-1.074219-2.660156-2.078125-4.0625-3.015625-1.402344-.941407-2.851562-1.808594-4.339844-2.605469-1.488281-.796875-3.011718-1.519531-4.574218-2.164062-1.558594-.648438-3.148438-1.214844-4.761719-1.707032-1.617187-.492187-3.253906-.902344-4.910156-1.230468-1.65625-.332032-3.324219-.578126-5.007813-.746094-1.679687-.167969-3.363281-.25-5.054687-.25-1.6875 0-3.371094.082031-5.054688.246094-1.679687.164062-3.351562.414062-5.007812.742187s-3.292969.738281-4.910157 1.226563c-1.617187.492187-3.203124 1.058593-4.765624 1.703124-1.5625.648438-3.085938 1.367188-4.578126 2.164063-1.488281.792969-2.9375 1.660156-4.339843 2.597656-1.40625.9375-2.761719 1.945313-4.066407 3.015625-1.308593 1.070313-2.558593 2.203125-3.75 3.394532-1.195312 1.195312-2.328124 2.445312-3.402343 3.75-1.070313 1.304687-2.078125 2.65625-3.015625 4.0625-.9375 1.402343-1.804688 2.847656-2.601563 4.339843-.796875 1.488281-1.519531 3.011719-2.164062 4.570313-.648438 1.558594-1.214844 3.148437-1.707031 4.761718-.488282 1.617188-.898438 3.253907-1.230469 4.910157-.328125 1.65625-.578125 3.324219-.742188 5.003906-.164062 1.679687-.25 3.363281-.25 5.050781s.082031 3.371094.25 5.050782c.164063 1.679687.410157 3.347656.738281 5.003906.332032 1.65625.742188 3.292968 1.230469 4.90625.488281 1.617187 1.058594 3.203125 1.703125 4.761718.648438 1.558594 1.367188 3.085938 2.164063 4.574219s1.664062 2.933594 2.601562 4.335938c.9375 1.40625 1.941407 2.757812 3.015625 4.0625 1.070313 1.304687 2.203125 2.554687 3.394532 3.75 1.195312 1.191406 2.445312 2.324219 3.75 3.394531 1.308593 1.074219 2.660156 2.078125 4.066406 3.015625 1.402344.9375 2.851562 1.804687 4.339844 2.597656 1.488281.796875 3.015624 1.519531 4.574218 2.164063 1.5625.644531 3.148438 1.214844 4.765625 1.703125 1.617188.492187 3.253907.902343 4.910157 1.230469 1.65625.328124 3.324218.578124 5.003906.742187 1.683594.164063 3.367187.246094 5.054687.246094s3.371094-.085938 5.050781-.253907c1.679688-.167968 3.34375-.414062 5-.746093s3.289063-.742188 4.902344-1.230469c1.617188-.492188 3.203125-1.0625 4.761719-1.707031s3.082031-1.367188 4.566406-2.164063c1.488281-.792968 2.933594-1.660156 4.339844-2.597656 1.402344-.9375 2.753906-1.941406 4.058594-3.011719 1.304687-1.066406 2.554687-2.199219 3.746093-3.390625 1.195313-1.191406 2.328126-2.441406 3.398438-3.742187 1.070312-1.304688 2.074219-2.65625 3.015625-4.058594.9375-1.402344 1.804687-2.847656 2.601563-4.332031.796874-1.488282 1.519531-3.007813 2.167968-4.566406.648438-1.558594 1.21875-3.144532 1.707032-4.757813.492187-1.613281.90625-3.246094 1.238281-4.898437.332031-1.652344.582031-3.320313.75-5 .167969-1.675782.253906-3.359376.257812-5.046876zm-51.5625-34.710937c1.140625 0 2.273438.054687 3.40625.164063 1.132813.113281 2.253907.277343 3.371094.496093 1.117187.222657 2.21875.496094 3.308594.828125 1.089843.328125 2.160156.707032 3.210937 1.144532 1.050782.433593 2.078125.917968 3.082032 1.453124 1.003906.535157 1.976562 1.117188 2.925781 1.746094.945312.632813 1.859375 1.308594 2.738281 2.027344.878906.722656 1.722656 1.484375 2.527344 2.289062.804687.800782 1.570312 1.644532 2.292968 2.519532.722657.878906 1.398438 1.792968 2.03125 2.738281.632813.941406 1.21875 1.917969 1.753907 2.917969.539062 1.003906 1.023437 2.03125 1.460937 3.078125.4375 1.050781.820313 2.121093 1.152344 3.207031.328125 1.089844.605469 2.191406.828125 3.304688.222656 1.117187.390625 2.238281.503906 3.371093.113281 1.132813.167969 2.265625.167969 3.402344.003906 1.136719-.054688 2.273437-.164062 3.402344-.109376 1.132812-.277344 2.257812-.496094 3.371093-.222656 1.117188-.496094 2.21875-.828125 3.308594-.328125 1.085938-.710938 2.15625-1.144531 3.207032-.4375 1.050781-.921876 2.078124-1.457032 3.082031-.535156 1-1.117187 1.976562-1.75 2.921875-.632812.945312-1.308594 1.859375-2.027344 2.738281-.722656.878906-1.484374 1.722656-2.289062 2.523437-.804688.804688-1.644531 1.570313-2.523438 2.292969-.878906.71875-1.792968 1.398438-2.738281 2.027344-.945312.632813-1.917969 1.21875-2.921875 1.753906-1.003906.539063-2.03125 1.023438-3.082031 1.460938-1.050781.433593-2.121094.816406-3.207031 1.148437-1.089844.328125-2.191406.605469-3.308594.828125-1.113281.222657-2.238281.390625-3.371094.5-1.132812.113281-2.265625.167969-3.402344.167969-1.140624 0-2.273437-.054688-3.40625-.164062-1.132812-.113282-2.253906-.277344-3.371093-.5-1.117188-.222657-2.21875-.496094-3.308594-.828126-1.085937-.328124-2.15625-.710937-3.207031-1.144531-1.050782-.433593-2.078125-.921875-3.082032-1.457031-1.003906-.535156-1.976562-1.117188-2.925781-1.75-.945312-.632812-1.855469-1.308594-2.738281-2.03125-.878906-.71875-1.71875-1.480469-2.523438-2.285156-.804687-.804688-1.570312-1.644532-2.289062-2.523438-.722656-.878906-1.398438-1.792968-2.03125-2.738281s-1.21875-1.917969-1.753906-2.921875-1.023438-2.027344-1.457032-3.078125c-.4375-1.050781-.820312-2.121094-1.148437-3.210937-.332031-1.085938-.605469-2.1875-.828125-3.304688-.222656-1.113281-.390625-2.238281-.5-3.367188-.113281-1.132812-.167969-2.265624-.167969-3.40625 0-1.132812.058594-2.265624.167969-3.398437.113281-1.128906.28125-2.25.503906-3.363281.222656-1.113282.5-2.214844.828125-3.300782.332031-1.089843.714844-2.15625 1.148438-3.207031.4375-1.046875.921875-2.074219 1.457031-3.074219s1.117188-1.976562 1.75-2.917968c.632812-.945313 1.308594-1.855469 2.027344-2.734375.71875-.878907 1.480468-1.71875 2.285156-2.523438.804688-.804687 1.644531-1.566406 2.519531-2.285156.878907-.722656 1.789063-1.398437 2.734375-2.03125.945313-.632813 1.917969-1.214844 2.917969-1.753906 1.003906-.535157 2.027344-1.019531 3.078125-1.457031 1.046875-.4375 2.117188-.820313 3.203125-1.152344 1.085937-.328125 2.1875-.605469 3.300781-.832032 1.113282-.222656 2.234375-.390624 3.367188-.503906 1.128906-.113281 2.261718-.171875 3.398437-.175781zm0 0" fill="#e6a6cd"/><g clip-path="url(#b)"><path d="m448.703125 82.074219c0-43.164063-32.441406-78.417969-72.574219-78.417969-4.589844.027344-9.128906.507812-13.625 1.4375-4.492187.933594-8.851562 2.296875-13.074218 4.09375-4.226563 1.792969-8.230469 3.988281-12.015626 6.582031-3.789062 2.589844-7.285156 5.527344-10.488281 8.816407-3.203125-3.296876-6.703125-6.238282-10.496093-8.835938-3.789063-2.597656-7.800782-4.792969-12.03125-6.589844-4.230469-1.796875-8.597657-3.15625-13.101563-4.085937-4.5-.925781-9.050781-1.398438-13.644531-1.417969-39.917969 0-72.574219 35.21875-72.574219 78.527344-.019531 2.191406.078125 4.378906.292969 6.5625.566406 7.289062 2.054687 14.386718 4.460937 21.292968 3.773438 11.375 8.796875 22.171876 15.070313 32.382813 6.277344 10.214844 13.640625 19.574219 22.085937 28.078125.785157.835938 1.707031 1.480469 2.757813 1.9375 1.054687.453125 2.15625.679688 3.304687.675781.824219.003907 1.636719-.113281 2.429688-.347656.792969-.238281 1.535156-.582031 2.226562-1.035156.691407-.453125 1.300781-1 1.832031-1.632813.53125-.636718.960938-1.332031 1.285157-2.09375.324219-.757812.535156-1.550781.625-2.371094.09375-.824218.0625-1.640624-.085938-2.453124-.148437-.816407-.414062-1.589844-.789062-2.324219-.378907-.738281-.855469-1.402344-1.429688-1.996094-7.585937-7.613281-14.191406-15.996094-19.820312-25.152344-5.625-9.152343-10.125-18.832031-13.488281-29.039062-1.984376-5.640625-3.195313-11.445313-3.628907-17.40625-.175781-1.59375-.25-3.1875-.21875-4.789063 0-34.347656 24.964844-62.058594 55.699219-62.058594 2.074219.03125 4.140625.179688 6.195312.449219 2.054688.269531 4.089844.660157 6.101563 1.164063 2.011719.507812 3.988281 1.128906 5.925781 1.867187 1.9375.734375 3.828125 1.578125 5.671875 2.535157 1.839844.957031 3.617188 2.015624 5.335938 3.175781 1.71875 1.160156 3.363281 2.417969 4.933593 3.773437 1.574219 1.351563 3.0625 2.792969 4.464844 4.316406 1.40625 1.527344 2.714844 3.128907 3.933594 4.808594.410156.484375.867188.925782 1.375 1.3125.507812.386719 1.050781.714844 1.628906.984375s1.175782.472657 1.800782.613281c.621093.136719 1.253906.207032 1.890624.207032.636719 0 1.269532-.070313 1.890626-.207032.625-.140624 1.222656-.34375 1.800781-.613281s1.121093-.597656 1.628906-.984375c.503906-.386718.964844-.828125 1.375-1.3125 1.21875-1.675781 2.527344-3.269531 3.933594-4.792968 1.402343-1.519532 2.886719-2.953126 4.457031-4.300782s3.214844-2.601562 4.929688-3.757812c1.714843-1.160156 3.488281-2.214844 5.328124-3.167969 1.835938-.949219 3.722657-1.792969 5.65625-2.527344 1.9375-.734375 3.90625-1.351562 5.914063-1.855469 2.007813-.507812 4.039063-.894531 6.089844-1.164062s4.113281-.421875 6.179687-.453125c30.734375 0 55.699219 27.710937 55.699219 61.660156.035156 1.648438-.035156 3.292969-.214844 4.933594-.441406 5.953125-1.648437 11.742187-3.628906 17.375-3.382813 10.238281-7.898437 19.957031-13.542969 29.144531-5.644531 9.191406-12.269531 17.613282-19.878906 25.261719-.378906.398437-.71875.832031-1.011719 1.296875-.296875.46875-.542969.960938-.742187 1.476562-.199219.511719-.34375 1.042969-.4375 1.585938-.09375.546875-.136719 1.09375-.121094 1.644531.011719.554688.082031 1.097657.203125 1.636719s.292969 1.0625.515625 1.566406.496094.984375.8125 1.433594c.320312.453125.679688.867188 1.078125 1.25.398437.378906.832031.71875 1.300781 1.015625.464844.292969.957032.542969 1.472656.738281.515626.199219 1.042969.347656 1.589844.441406.542969.09375 1.089844.136719 1.644532.121094.550781-.011718 1.097656-.078125 1.636718-.199218.539063-.121094 1.0625-.292969 1.566406-.515626.503907-.222656.984376-.492187 1.4375-.8125.449219-.316406.867188-.675781 1.246094-1.074218 8.476563-8.546875 15.859375-17.953125 22.148438-28.214844 6.289062-10.261719 11.316406-21.109375 15.082031-32.539062 2.496094-6.84375 4.070313-13.890626 4.71875-21.144532.15625-2.164062.15625-4.328125 0-6.492187zm0 0" fill="#e6a6cd"/></g></svg>