<svg xmlns="http://www.w3.org/2000/svg" xmlns:xlink="http://www.w3.org/1999/xlink" width="600" zoomAndPan="magnify" viewBox="0 0 450 449.999984" height="600" preserveAspectRatio="xMidYMid meet" version="1.0"><defs><clipPath id="id1"><path d="M 2 142 L 449 142 L 449 446.15625 L 2 446.15625 Z M 2 142 " clip-rule="nonzero"/></clipPath><clipPath id="id2"><path d="M 205 3.65625 L 449 3.65625 L 449 174 L 205 174 Z M 205 3.65625 " clip-rule="nonzero"/></clipPath></defs><path fill="#e6a6cd" d="M 129.386719 130.929688 C 131.074219 130.929688 132.761719 130.847656 134.441406 130.683594 C 136.121094 130.515625 137.789062 130.269531 139.445312 129.941406 C 141.101562 129.613281 142.738281 129.203125 144.355469 128.714844 C 145.96875 128.222656 147.558594 127.65625 149.117188 127.007812 C 150.679688 126.363281 152.203125 125.644531 153.691406 124.847656 C 155.179688 124.050781 156.628906 123.183594 158.03125 122.246094 C 159.4375 121.308594 160.792969 120.304688 162.097656 119.234375 C 163.402344 118.164062 164.652344 117.03125 165.847656 115.839844 C 167.039062 114.644531 168.171875 113.394531 169.246094 112.089844 C 170.316406 110.785156 171.320312 109.429688 172.257812 108.027344 C 173.195312 106.625 174.0625 105.175781 174.859375 103.6875 C 175.65625 102.199219 176.378906 100.675781 177.023438 99.117188 C 177.671875 97.554688 178.238281 95.96875 178.730469 94.351562 C 179.21875 92.738281 179.628906 91.101562 179.957031 89.445312 C 180.289062 87.789062 180.535156 86.121094 180.699219 84.441406 C 180.867188 82.761719 180.949219 81.078125 180.949219 79.390625 C 180.949219 77.699219 180.867188 76.015625 180.699219 74.335938 C 180.535156 72.65625 180.285156 70.988281 179.957031 69.332031 C 179.625 67.675781 179.214844 66.039062 178.722656 64.421875 C 178.234375 62.808594 177.664062 61.21875 177.019531 59.660156 C 176.371094 58.097656 175.648438 56.574219 174.851562 55.085938 C 174.054688 53.597656 173.1875 52.148438 172.25 50.746094 C 171.3125 49.34375 170.304688 47.988281 169.234375 46.683594 C 168.160156 45.378906 167.027344 44.128906 165.832031 42.933594 C 164.640625 41.742188 163.390625 40.609375 162.082031 39.539062 C 160.777344 38.46875 159.421875 37.464844 158.015625 36.527344 C 156.613281 35.589844 155.164062 34.722656 153.675781 33.925781 C 152.183594 33.132812 150.660156 32.410156 149.097656 31.765625 C 147.539062 31.121094 145.949219 30.550781 144.332031 30.0625 C 142.71875 29.574219 141.082031 29.164062 139.421875 28.835938 C 137.765625 28.507812 136.097656 28.257812 134.417969 28.09375 C 132.738281 27.929688 131.050781 27.847656 129.363281 27.847656 C 127.671875 27.847656 125.988281 27.933594 124.308594 28.097656 C 122.628906 28.265625 120.957031 28.515625 119.300781 28.84375 C 117.644531 29.175781 116.007812 29.585938 114.394531 30.074219 C 112.777344 30.566406 111.191406 31.136719 109.628906 31.78125 C 108.070312 32.429688 106.542969 33.152344 105.054688 33.949219 C 103.566406 34.746094 102.121094 35.613281 100.714844 36.550781 C 99.3125 37.488281 97.957031 38.496094 96.652344 39.566406 C 95.347656 40.636719 94.097656 41.769531 92.90625 42.964844 C 91.710938 44.160156 90.578125 45.410156 89.507812 46.714844 C 88.4375 48.023438 87.433594 49.375 86.496094 50.78125 C 85.558594 52.183594 84.691406 53.632812 83.898438 55.121094 C 83.101562 56.609375 82.382812 58.136719 81.738281 59.695312 C 81.089844 61.257812 80.523438 62.84375 80.035156 64.460938 C 79.546875 66.074219 79.136719 67.710938 78.808594 69.367188 C 78.480469 71.023438 78.234375 72.691406 78.070312 74.371094 C 77.90625 76.054688 77.824219 77.738281 77.824219 79.425781 C 77.828125 81.113281 77.910156 82.796875 78.078125 84.472656 C 78.246094 86.152344 78.496094 87.820312 78.828125 89.472656 C 79.160156 91.125 79.570312 92.761719 80.0625 94.375 C 80.554688 95.988281 81.121094 97.574219 81.769531 99.132812 C 82.417969 100.691406 83.140625 102.210938 83.933594 103.699219 C 84.730469 105.1875 85.597656 106.632812 86.539062 108.035156 C 87.476562 109.4375 88.480469 110.789062 89.550781 112.09375 C 90.625 113.394531 91.757812 114.644531 92.949219 115.835938 C 94.144531 117.027344 95.394531 118.160156 96.699219 119.230469 C 98.003906 120.300781 99.355469 121.300781 100.761719 122.238281 C 102.164062 123.175781 103.609375 124.042969 105.097656 124.839844 C 106.585938 125.632812 108.109375 126.355469 109.667969 127 C 111.226562 127.644531 112.816406 128.214844 114.429688 128.703125 C 116.042969 129.195312 117.679688 129.605469 119.335938 129.933594 C 120.988281 130.265625 122.65625 130.511719 124.335938 130.679688 C 126.015625 130.84375 127.699219 130.929688 129.386719 130.929688 Z M 129.386719 44.714844 C 130.523438 44.714844 131.660156 44.769531 132.789062 44.882812 C 133.921875 44.992188 135.046875 45.160156 136.160156 45.382812 C 137.277344 45.601562 138.378906 45.878906 139.46875 46.210938 C 140.554688 46.539062 141.625 46.921875 142.675781 47.355469 C 143.726562 47.792969 144.753906 48.277344 145.757812 48.8125 C 146.757812 49.347656 147.734375 49.933594 148.679688 50.5625 C 149.625 51.195312 150.539062 51.871094 151.417969 52.59375 C 152.296875 53.316406 153.136719 54.078125 153.941406 54.882812 C 154.746094 55.683594 155.507812 56.527344 156.230469 57.40625 C 156.953125 58.285156 157.628906 59.195312 158.261719 60.140625 C 158.890625 61.085938 159.476562 62.058594 160.011719 63.0625 C 160.546875 64.066406 161.035156 65.089844 161.46875 66.140625 C 161.902344 67.191406 162.285156 68.261719 162.617188 69.347656 C 162.945312 70.4375 163.222656 71.539062 163.445312 72.652344 C 163.667969 73.769531 163.832031 74.890625 163.945312 76.023438 C 164.054688 77.15625 164.113281 78.289062 164.113281 79.425781 C 164.113281 80.5625 164.054688 81.695312 163.945312 82.828125 C 163.832031 83.957031 163.667969 85.082031 163.445312 86.195312 C 163.222656 87.3125 162.945312 88.414062 162.617188 89.5 C 162.285156 90.589844 161.902344 91.660156 161.46875 92.707031 C 161.035156 93.757812 160.546875 94.785156 160.011719 95.789062 C 159.476562 96.789062 158.890625 97.765625 158.261719 98.710938 C 157.628906 99.65625 156.953125 100.566406 156.230469 101.445312 C 155.507812 102.324219 154.746094 103.164062 153.941406 103.96875 C 153.136719 104.773438 152.296875 105.535156 151.417969 106.257812 C 150.539062 106.976562 149.625 107.65625 148.679688 108.285156 C 147.734375 108.917969 146.757812 109.5 145.757812 110.039062 C 144.753906 110.574219 143.726562 111.058594 142.675781 111.492188 C 141.625 111.929688 140.554688 112.3125 139.46875 112.640625 C 138.378906 112.972656 137.277344 113.246094 136.160156 113.46875 C 135.046875 113.691406 133.921875 113.859375 132.789062 113.96875 C 131.660156 114.082031 130.523438 114.136719 129.386719 114.136719 C 128.25 114.136719 127.113281 114.082031 125.984375 113.96875 C 124.851562 113.859375 123.726562 113.691406 122.613281 113.46875 C 121.496094 113.246094 120.394531 112.972656 119.304688 112.640625 C 118.21875 112.3125 117.148438 111.929688 116.097656 111.492188 C 115.046875 111.058594 114.019531 110.574219 113.015625 110.039062 C 112.015625 109.5 111.039062 108.917969 110.09375 108.285156 C 109.148438 107.65625 108.234375 106.976562 107.355469 106.257812 C 106.476562 105.535156 105.636719 104.773438 104.832031 103.96875 C 104.027344 103.164062 103.265625 102.324219 102.542969 101.445312 C 101.820312 100.566406 101.144531 99.65625 100.511719 98.710938 C 99.882812 97.765625 99.296875 96.789062 98.761719 95.789062 C 98.226562 94.785156 97.738281 93.757812 97.304688 92.707031 C 96.871094 91.660156 96.488281 90.589844 96.15625 89.5 C 95.828125 88.414062 95.550781 87.3125 95.328125 86.195312 C 95.105469 85.082031 94.941406 83.957031 94.828125 82.828125 C 94.71875 81.695312 94.660156 80.5625 94.660156 79.425781 C 94.660156 78.289062 94.71875 77.15625 94.828125 76.023438 C 94.941406 74.890625 95.105469 73.769531 95.328125 72.652344 C 95.550781 71.539062 95.828125 70.4375 96.15625 69.347656 C 96.488281 68.261719 96.871094 67.191406 97.304688 66.140625 C 97.738281 65.09375 98.226562 64.066406 98.761719 63.0625 C 99.296875 62.058594 99.882812 61.085938 100.511719 60.140625 C 101.144531 59.195312 101.820312 58.285156 102.542969 57.40625 C 103.265625 56.527344 104.027344 55.683594 104.832031 54.882812 C 105.636719 54.078125 106.476562 53.316406 107.355469 52.59375 C 108.234375 51.871094 109.148438 51.195312 110.09375 50.5625 C 111.039062 49.933594 112.015625 49.347656 113.015625 48.8125 C 114.019531 48.277344 115.046875 47.792969 116.097656 47.355469 C 117.148438 46.921875 118.21875 46.539062 119.304688 46.210938 C 120.394531 45.878906 121.496094 45.601562 122.613281 45.382812 C 123.726562 45.160156 124.851562 44.992188 125.984375 44.882812 C 127.113281 44.769531 128.25 44.714844 129.386719 44.714844 Z M 129.386719 44.714844 " fill-opacity="1" fill-rule="nonzero"/><g clip-path="url(#id1)"><path fill="#e6a6cd" d="M 435.640625 225.125 C 434.449219 224.363281 433.203125 223.703125 431.910156 223.136719 C 430.613281 222.570312 429.285156 222.105469 427.917969 221.746094 C 426.550781 221.386719 425.164062 221.132812 423.757812 220.988281 C 422.351562 220.84375 420.945312 220.808594 419.53125 220.882812 C 418.121094 220.957031 416.726562 221.140625 415.339844 221.433594 C 413.957031 221.722656 412.605469 222.121094 411.285156 222.621094 C 409.964844 223.125 408.691406 223.722656 407.460938 224.421875 C 406.234375 225.121094 405.066406 225.910156 403.960938 226.792969 L 347.539062 271.550781 L 306.351562 271.550781 L 249.929688 226.792969 C 249.929688 226.792969 217.269531 171.445312 217.269531 171.445312 C 215.972656 169.242188 214.539062 167.136719 212.96875 165.125 C 211.398438 163.109375 209.703125 161.207031 207.886719 159.414062 C 206.066406 157.621094 204.140625 155.949219 202.105469 154.40625 C 200.070312 152.863281 197.945312 151.460938 195.726562 150.191406 C 193.507812 148.925781 191.21875 147.808594 188.855469 146.839844 C 186.492188 145.871094 184.074219 145.058594 181.605469 144.402344 C 179.136719 143.746094 176.636719 143.253906 174.101562 142.921875 C 171.570312 142.59375 169.027344 142.425781 166.472656 142.425781 L 92.195312 142.425781 C 89.640625 142.425781 87.09375 142.59375 84.5625 142.921875 C 82.03125 143.253906 79.527344 143.746094 77.058594 144.402344 C 74.589844 145.058594 72.175781 145.871094 69.8125 146.839844 C 67.449219 147.808594 65.15625 148.925781 62.9375 150.191406 C 60.722656 151.460938 58.59375 152.863281 56.558594 154.40625 C 54.523438 155.949219 52.597656 157.621094 50.777344 159.414062 C 48.960938 161.207031 47.265625 163.109375 45.695312 165.125 C 44.125 167.136719 42.691406 169.242188 41.394531 171.445312 L 6.015625 231.796875 C 5.410156 232.828125 4.878906 233.890625 4.414062 234.988281 C 3.949219 236.085938 3.5625 237.210938 3.246094 238.363281 C 2.929688 239.511719 2.691406 240.679688 2.53125 241.859375 C 2.367188 243.039062 2.285156 244.226562 2.277344 245.421875 C 2.273438 246.613281 2.347656 247.800781 2.496094 248.984375 C 2.648438 250.167969 2.875 251.335938 3.179688 252.488281 C 3.484375 253.640625 3.867188 254.769531 4.320312 255.871094 C 4.773438 256.972656 5.296875 258.042969 5.890625 259.078125 C 6.484375 260.109375 7.144531 261.101562 7.867188 262.046875 C 8.59375 262.996094 9.378906 263.890625 10.21875 264.734375 C 11.0625 265.578125 11.957031 266.363281 12.902344 267.089844 C 13.851562 267.816406 14.839844 268.476562 15.875 269.074219 C 16.90625 269.671875 17.972656 270.195312 19.078125 270.652344 C 20.179688 271.105469 21.308594 271.488281 22.460938 271.796875 C 23.613281 272.101562 24.78125 272.332031 25.964844 272.484375 C 27.148438 272.640625 28.335938 272.714844 29.527344 272.710938 C 31.683594 272.71875 33.8125 272.472656 35.910156 271.972656 C 38.007812 271.476562 40.019531 270.742188 41.945312 269.765625 C 43.867188 268.792969 45.648438 267.609375 47.292969 266.210938 C 48.9375 264.8125 50.390625 263.246094 51.664062 261.503906 L 75.574219 228.535156 L 75.574219 429.472656 L 15.269531 429.472656 C 14.714844 429.472656 14.167969 429.527344 13.625 429.632812 C 13.082031 429.742188 12.558594 429.902344 12.046875 430.113281 C 11.535156 430.324219 11.050781 430.582031 10.589844 430.890625 C 10.132812 431.195312 9.707031 431.546875 9.316406 431.9375 C 8.925781 432.328125 8.574219 432.753906 8.269531 433.210938 C 7.960938 433.671875 7.703125 434.15625 7.488281 434.667969 C 7.277344 435.175781 7.117188 435.703125 7.011719 436.246094 C 6.902344 436.785156 6.847656 437.335938 6.847656 437.886719 C 6.847656 438.4375 6.902344 438.988281 7.011719 439.527344 C 7.117188 440.070312 7.277344 440.597656 7.488281 441.105469 C 7.703125 441.617188 7.960938 442.101562 8.269531 442.5625 C 8.574219 443.019531 8.925781 443.445312 9.316406 443.835938 C 9.707031 444.226562 10.132812 444.578125 10.589844 444.882812 C 11.050781 445.191406 11.535156 445.449219 12.046875 445.660156 C 12.558594 445.871094 13.082031 446.03125 13.625 446.140625 C 14.167969 446.246094 14.714844 446.300781 15.269531 446.300781 L 405.339844 446.300781 C 405.894531 446.300781 406.441406 446.246094 406.984375 446.140625 C 407.523438 446.03125 408.050781 445.871094 408.5625 445.660156 C 409.074219 445.449219 409.558594 445.191406 410.019531 444.882812 C 410.476562 444.578125 410.902344 444.226562 411.292969 443.835938 C 411.683594 443.445312 412.03125 443.019531 412.339844 442.5625 C 412.648438 442.101562 412.90625 441.617188 413.117188 441.105469 C 413.328125 440.597656 413.488281 440.070312 413.597656 439.527344 C 413.707031 438.988281 413.757812 438.4375 413.757812 437.886719 C 413.757812 437.335938 413.707031 436.785156 413.597656 436.246094 C 413.488281 435.703125 413.328125 435.175781 413.117188 434.667969 C 412.90625 434.15625 412.648438 433.671875 412.339844 433.210938 C 412.03125 432.753906 411.683594 432.328125 411.292969 431.9375 C 410.902344 431.546875 410.476562 431.195312 410.019531 430.890625 C 409.558594 430.582031 409.074219 430.324219 408.5625 430.113281 C 408.050781 429.902344 407.523438 429.742188 406.984375 429.632812 C 406.441406 429.527344 405.894531 429.472656 405.339844 429.472656 L 380.8125 429.472656 L 380.8125 323.34375 L 439.703125 268.429688 C 440.464844 267.71875 441.183594 266.964844 441.859375 266.171875 C 442.53125 265.378906 443.160156 264.546875 443.742188 263.683594 C 444.320312 262.816406 444.851562 261.921875 445.328125 260.992188 C 445.804688 260.066406 446.230469 259.117188 446.597656 258.144531 C 446.96875 257.167969 447.28125 256.175781 447.535156 255.167969 C 447.792969 254.15625 447.992188 253.136719 448.128906 252.101562 C 448.269531 251.070312 448.351562 250.03125 448.371094 248.992188 C 448.390625 247.949219 448.351562 246.910156 448.253906 245.871094 C 448.15625 244.835938 448 243.804688 447.785156 242.785156 C 447.570312 241.765625 447.296875 240.761719 446.96875 239.773438 C 446.636719 238.785156 446.253906 237.820312 445.8125 236.875 C 445.371094 235.929688 444.878906 235.011719 444.335938 234.125 C 443.789062 233.238281 443.195312 232.382812 442.554688 231.5625 C 441.910156 230.742188 441.222656 229.960938 440.492188 229.21875 C 439.761719 228.476562 438.988281 227.777344 438.175781 227.121094 C 437.367188 226.46875 436.519531 225.863281 435.640625 225.304688 Z M 183.308594 228.535156 L 207.257812 261.574219 C 208.425781 263.152344 209.757812 264.578125 211.246094 265.855469 C 212.046875 266.542969 212.808594 267.269531 213.679688 267.886719 L 273.078125 323.34375 L 273.078125 429.472656 L 183.308594 429.472656 Z M 174.890625 194.113281 C 174.011719 194.121094 173.152344 194.253906 172.3125 194.511719 C 171.464844 194.785156 170.679688 195.1875 169.960938 195.707031 C 169.238281 196.230469 168.617188 196.851562 168.09375 197.574219 C 167.566406 198.292969 167.167969 199.074219 166.890625 199.921875 C 166.613281 200.769531 166.472656 201.636719 166.472656 202.527344 L 166.472656 429.472656 L 137.878906 429.472656 L 137.878906 320.660156 C 137.878906 320.109375 137.824219 319.5625 137.714844 319.019531 C 137.605469 318.476562 137.445312 317.953125 137.234375 317.441406 C 137.023438 316.933594 136.761719 316.449219 136.457031 315.988281 C 136.148438 315.53125 135.800781 315.105469 135.410156 314.714844 C 135.019531 314.324219 134.59375 313.976562 134.132812 313.671875 C 133.675781 313.363281 133.1875 313.105469 132.679688 312.894531 C 132.167969 312.683594 131.640625 312.523438 131.101562 312.414062 C 130.558594 312.308594 130.011719 312.253906 129.460938 312.253906 C 128.90625 312.253906 128.359375 312.308594 127.816406 312.414062 C 127.277344 312.523438 126.75 312.683594 126.238281 312.894531 C 125.730469 313.105469 125.246094 313.363281 124.785156 313.671875 C 124.324219 313.976562 123.898438 314.324219 123.507812 314.714844 C 123.117188 315.105469 122.769531 315.53125 122.460938 315.988281 C 122.15625 316.449219 121.894531 316.933594 121.683594 317.441406 C 121.472656 317.953125 121.3125 318.476562 121.203125 319.019531 C 121.097656 319.5625 121.042969 320.109375 121.039062 320.660156 L 121.039062 429.472656 L 92.410156 429.472656 L 92.410156 202.453125 C 92.414062 201.566406 92.277344 200.699219 92.003906 199.851562 C 91.730469 199.007812 91.332031 198.222656 90.8125 197.503906 C 90.289062 196.785156 89.671875 196.160156 88.953125 195.636719 C 88.234375 195.113281 87.449219 194.714844 86.605469 194.4375 C 85.753906 194.179688 84.882812 194.046875 83.992188 194.039062 C 82.632812 194.0625 81.347656 194.394531 80.144531 195.03125 C 78.941406 195.671875 77.953125 196.550781 77.171875 197.667969 L 38.019531 251.636719 C 37.535156 252.300781 36.980469 252.898438 36.359375 253.429688 C 35.734375 253.960938 35.054688 254.414062 34.324219 254.785156 C 33.59375 255.15625 32.828125 255.441406 32.027344 255.628906 C 31.230469 255.820312 30.421875 255.917969 29.601562 255.917969 C 27.875 255.921875 26.253906 255.511719 24.738281 254.683594 C 23.496094 254.023438 22.433594 253.148438 21.550781 252.050781 C 20.667969 250.953125 20.035156 249.730469 19.660156 248.375 C 19.238281 247.027344 19.101562 245.65625 19.253906 244.257812 C 19.402344 242.855469 19.828125 241.542969 20.527344 240.320312 L 56.054688 179.929688 C 56.980469 178.359375 58.003906 176.855469 59.125 175.414062 C 60.246094 173.976562 61.457031 172.617188 62.753906 171.335938 C 64.054688 170.054688 65.429688 168.863281 66.882812 167.761719 C 68.335938 166.660156 69.855469 165.65625 71.441406 164.753906 C 73.023438 163.847656 74.660156 163.050781 76.351562 162.359375 C 78.039062 161.667969 79.765625 161.089844 81.527344 160.621094 C 83.292969 160.15625 85.078125 159.804688 86.886719 159.570312 C 88.699219 159.335938 90.515625 159.21875 92.339844 159.21875 L 166.6875 159.21875 C 168.511719 159.21875 170.332031 159.335938 172.140625 159.570312 C 173.949219 159.804688 175.734375 160.15625 177.5 160.621094 C 179.261719 161.089844 180.988281 161.667969 182.675781 162.359375 C 184.367188 163.050781 186.003906 163.847656 187.585938 164.753906 C 189.171875 165.65625 190.691406 166.660156 192.144531 167.761719 C 193.597656 168.863281 194.972656 170.054688 196.273438 171.335938 C 197.570312 172.617188 198.78125 173.976562 199.902344 175.414062 C 201.023438 176.855469 202.046875 178.359375 202.972656 179.929688 L 233.453125 232.160156 L 217.34375 246.667969 L 181.710938 197.523438 C 180.917969 196.429688 179.917969 195.578125 178.71875 194.964844 C 177.515625 194.351562 176.238281 194.042969 174.890625 194.039062 Z M 431.503906 247.320312 C 431.578125 248.125 431.5625 248.925781 431.453125 249.726562 C 431.347656 250.527344 431.148438 251.304688 430.863281 252.058594 C 430.578125 252.8125 430.210938 253.523438 429.761719 254.195312 C 429.308594 254.863281 428.789062 255.476562 428.199219 256.027344 L 366.515625 313.625 C 365.667969 314.417969 365.011719 315.347656 364.554688 316.414062 C 364.09375 317.480469 363.863281 318.59375 363.867188 319.753906 L 363.867188 429.472656 L 335.34375 429.472656 L 335.34375 359.652344 C 335.34375 359.097656 335.292969 358.550781 335.183594 358.007812 C 335.074219 357.46875 334.914062 356.941406 334.703125 356.429688 C 334.492188 355.921875 334.234375 355.433594 333.925781 354.976562 C 333.621094 354.515625 333.269531 354.089844 332.878906 353.699219 C 332.488281 353.308594 332.0625 352.960938 331.605469 352.65625 C 331.144531 352.347656 330.660156 352.089844 330.148438 351.875 C 329.636719 351.664062 329.113281 351.507812 328.570312 351.398438 C 328.027344 351.289062 327.480469 351.238281 326.925781 351.238281 C 326.375 351.238281 325.828125 351.289062 325.285156 351.398438 C 324.742188 351.507812 324.214844 351.664062 323.707031 351.875 C 323.195312 352.089844 322.710938 352.347656 322.25 352.65625 C 321.789062 352.960938 321.363281 353.308594 320.972656 353.699219 C 320.582031 354.089844 320.234375 354.515625 319.925781 354.976562 C 319.621094 355.433594 319.359375 355.921875 319.148438 356.429688 C 318.9375 356.941406 318.777344 357.46875 318.671875 358.007812 C 318.5625 358.550781 318.507812 359.097656 318.507812 359.652344 L 318.507812 429.472656 L 289.914062 429.472656 L 289.914062 319.679688 C 289.910156 318.523438 289.675781 317.410156 289.214844 316.347656 C 288.757812 315.28125 288.105469 314.351562 287.265625 313.550781 L 228.882812 259.144531 L 245.03125 244.636719 L 298.1875 286.566406 C 299.71875 287.785156 301.457031 288.390625 303.414062 288.378906 L 350.585938 288.378906 C 352.539062 288.390625 354.28125 287.785156 355.808594 286.566406 L 414.519531 239.996094 C 415.457031 239.253906 416.484375 238.6875 417.609375 238.296875 C 418.738281 237.90625 419.898438 237.710938 421.089844 237.710938 C 421.738281 237.710938 422.382812 237.773438 423.023438 237.890625 C 423.664062 238.011719 424.285156 238.1875 424.894531 238.421875 C 425.5 238.660156 426.078125 238.945312 426.632812 239.289062 C 427.1875 239.628906 427.703125 240.019531 428.1875 240.457031 C 428.667969 240.890625 429.105469 241.371094 429.5 241.886719 C 429.894531 242.40625 430.238281 242.953125 430.53125 243.535156 C 430.824219 244.113281 431.058594 244.71875 431.242188 245.339844 C 431.425781 245.964844 431.546875 246.601562 431.613281 247.25 Z M 431.503906 247.320312 " fill-opacity="1" fill-rule="nonzero"/></g><path fill="#e6a6cd" d="M 378.488281 203.976562 C 378.492188 202.289062 378.410156 200.605469 378.246094 198.925781 C 378.078125 197.246094 377.832031 195.578125 377.503906 193.921875 C 377.175781 192.265625 376.769531 190.628906 376.277344 189.011719 C 375.789062 187.398438 375.222656 185.808594 374.578125 184.25 C 373.933594 182.6875 373.210938 181.164062 372.417969 179.675781 C 371.621094 178.183594 370.753906 176.738281 369.816406 175.335938 C 368.878906 173.929688 367.875 172.574219 366.804688 171.269531 C 365.734375 169.964844 364.601562 168.714844 363.410156 167.519531 C 362.214844 166.324219 360.964844 165.191406 359.660156 164.121094 C 358.355469 163.046875 357 162.042969 355.597656 161.105469 C 354.195312 160.164062 352.746094 159.296875 351.257812 158.5 C 349.769531 157.703125 348.246094 156.980469 346.683594 156.335938 C 345.125 155.6875 343.535156 155.121094 341.921875 154.628906 C 340.304688 154.136719 338.667969 153.726562 337.011719 153.398438 C 335.355469 153.066406 333.6875 152.820312 332.003906 152.652344 C 330.324219 152.484375 328.640625 152.402344 326.949219 152.402344 C 325.261719 152.402344 323.578125 152.484375 321.894531 152.648438 C 320.214844 152.8125 318.542969 153.0625 316.886719 153.390625 C 315.230469 153.71875 313.59375 154.128906 311.976562 154.617188 C 310.359375 155.109375 308.773438 155.675781 307.210938 156.320312 C 305.648438 156.96875 304.125 157.6875 302.632812 158.484375 C 301.144531 159.277344 299.695312 160.144531 298.292969 161.082031 C 296.886719 162.019531 295.53125 163.027344 294.226562 164.097656 C 292.917969 165.167969 291.667969 166.300781 290.476562 167.492188 C 289.28125 168.6875 288.148438 169.9375 287.074219 171.242188 C 286.003906 172.546875 284.996094 173.898438 284.058594 175.304688 C 283.121094 176.707031 282.253906 178.152344 281.457031 179.644531 C 280.660156 181.132812 279.9375 182.65625 279.292969 184.214844 C 278.644531 185.773438 278.078125 187.363281 277.585938 188.976562 C 277.097656 190.59375 276.6875 192.230469 276.355469 193.886719 C 276.027344 195.542969 275.777344 197.210938 275.613281 198.890625 C 275.449219 200.570312 275.363281 202.253906 275.363281 203.941406 C 275.363281 205.628906 275.445312 207.3125 275.613281 208.992188 C 275.777344 210.671875 276.023438 212.339844 276.351562 213.996094 C 276.683594 215.652344 277.09375 217.289062 277.582031 218.902344 C 278.070312 220.519531 278.640625 222.105469 279.285156 223.664062 C 279.933594 225.222656 280.652344 226.75 281.449219 228.238281 C 282.246094 229.726562 283.113281 231.171875 284.050781 232.574219 C 284.988281 233.980469 285.992188 235.332031 287.066406 236.636719 C 288.136719 237.941406 289.269531 239.191406 290.460938 240.386719 C 291.65625 241.578125 292.90625 242.710938 294.210938 243.78125 C 295.519531 244.855469 296.871094 245.859375 298.277344 246.796875 C 299.679688 247.734375 301.128906 248.601562 302.617188 249.394531 C 304.105469 250.191406 305.632812 250.914062 307.191406 251.558594 C 308.753906 252.203125 310.339844 252.773438 311.957031 253.261719 C 313.574219 253.753906 315.210938 254.164062 316.867188 254.492188 C 318.523438 254.820312 320.191406 255.070312 321.871094 255.234375 C 323.554688 255.398438 325.238281 255.480469 326.925781 255.480469 C 328.613281 255.480469 330.296875 255.394531 331.976562 255.226562 C 333.65625 255.058594 335.320312 254.8125 336.976562 254.480469 C 338.632812 254.148438 340.265625 253.738281 341.878906 253.25 C 343.496094 252.757812 345.082031 252.1875 346.640625 251.542969 C 348.199219 250.898438 349.722656 250.175781 351.207031 249.378906 C 352.695312 248.585938 354.140625 247.71875 355.546875 246.78125 C 356.949219 245.84375 358.300781 244.839844 359.605469 243.769531 C 360.910156 242.703125 362.160156 241.570312 363.351562 240.378906 C 364.546875 239.1875 365.679688 237.9375 366.75 236.636719 C 367.820312 235.332031 368.824219 233.980469 369.765625 232.578125 C 370.703125 231.175781 371.570312 229.730469 372.367188 228.246094 C 373.164062 226.757812 373.886719 225.238281 374.535156 223.679688 C 375.183594 222.121094 375.753906 220.535156 376.242188 218.921875 C 376.734375 217.308594 377.148438 215.675781 377.480469 214.023438 C 377.8125 212.371094 378.0625 210.703125 378.230469 209.023438 C 378.398438 207.347656 378.484375 205.664062 378.488281 203.976562 Z M 326.925781 169.265625 C 328.066406 169.265625 329.199219 169.320312 330.332031 169.429688 C 331.464844 169.542969 332.585938 169.707031 333.703125 169.925781 C 334.820312 170.148438 335.921875 170.421875 337.011719 170.753906 C 338.101562 171.082031 339.171875 171.460938 340.222656 171.898438 C 341.273438 172.332031 342.300781 172.816406 343.304688 173.351562 C 344.308594 173.886719 345.28125 174.46875 346.230469 175.097656 C 347.175781 175.730469 348.089844 176.40625 348.96875 177.125 C 349.847656 177.847656 350.691406 178.609375 351.496094 179.414062 C 352.300781 180.214844 353.066406 181.058594 353.789062 181.933594 C 354.511719 182.8125 355.1875 183.726562 355.820312 184.671875 C 356.453125 185.613281 357.039062 186.589844 357.574219 187.589844 C 358.113281 188.59375 358.597656 189.621094 359.035156 190.667969 C 359.472656 191.71875 359.855469 192.789062 360.1875 193.875 C 360.515625 194.964844 360.792969 196.066406 361.015625 197.179688 C 361.238281 198.296875 361.40625 199.417969 361.519531 200.550781 C 361.632812 201.683594 361.6875 202.816406 361.6875 203.953125 C 361.691406 205.089844 361.632812 206.226562 361.523438 207.355469 C 361.414062 208.488281 361.246094 209.613281 361.027344 210.726562 C 360.804688 211.84375 360.53125 212.945312 360.199219 214.035156 C 359.871094 215.121094 359.488281 216.191406 359.054688 217.242188 C 358.617188 218.292969 358.132812 219.320312 357.597656 220.324219 C 357.0625 221.324219 356.480469 222.300781 355.847656 223.246094 C 355.214844 224.191406 354.539062 225.105469 353.820312 225.984375 C 353.097656 226.863281 352.335938 227.707031 351.53125 228.507812 C 350.726562 229.3125 349.886719 230.078125 349.007812 230.800781 C 348.128906 231.519531 347.214844 232.199219 346.269531 232.828125 C 345.324219 233.460938 344.351562 234.046875 343.347656 234.582031 C 342.34375 235.121094 341.316406 235.605469 340.265625 236.042969 C 339.214844 236.476562 338.144531 236.859375 337.058594 237.191406 C 335.96875 237.519531 334.867188 237.796875 333.75 238.019531 C 332.636719 238.242188 331.511719 238.410156 330.378906 238.519531 C 329.246094 238.632812 328.113281 238.6875 326.976562 238.6875 C 325.835938 238.6875 324.703125 238.632812 323.570312 238.523438 C 322.4375 238.410156 321.316406 238.246094 320.199219 238.023438 C 319.082031 237.800781 317.980469 237.527344 316.890625 237.195312 C 315.804688 236.867188 314.734375 236.484375 313.683594 236.050781 C 312.632812 235.617188 311.605469 235.128906 310.601562 234.59375 C 309.597656 234.058594 308.625 233.476562 307.675781 232.84375 C 306.730469 232.210938 305.820312 231.535156 304.9375 230.8125 C 304.058594 230.09375 303.21875 229.332031 302.414062 228.527344 C 301.609375 227.722656 300.84375 226.882812 300.125 226.003906 C 299.402344 225.125 298.726562 224.210938 298.09375 223.265625 C 297.460938 222.320312 296.875 221.347656 296.339844 220.34375 C 295.804688 219.339844 295.316406 218.316406 294.882812 217.265625 C 294.445312 216.214844 294.0625 215.144531 293.734375 214.054688 C 293.402344 212.96875 293.128906 211.867188 292.90625 210.75 C 292.683594 209.636719 292.515625 208.511719 292.40625 207.382812 C 292.292969 206.25 292.238281 205.117188 292.238281 203.976562 C 292.238281 202.84375 292.296875 201.710938 292.40625 200.578125 C 292.519531 199.449219 292.6875 198.328125 292.910156 197.214844 C 293.132812 196.101562 293.410156 195 293.738281 193.914062 C 294.070312 192.824219 294.453125 191.757812 294.886719 190.707031 C 295.324219 189.660156 295.808594 188.632812 296.34375 187.632812 C 296.878906 186.632812 297.460938 185.65625 298.09375 184.714844 C 298.726562 183.769531 299.402344 182.859375 300.121094 181.980469 C 300.839844 181.101562 301.601562 180.261719 302.40625 179.457031 C 303.210938 178.652344 304.050781 177.890625 304.925781 177.171875 C 305.804688 176.449219 306.714844 175.773438 307.660156 175.140625 C 308.605469 174.507812 309.578125 173.925781 310.578125 173.386719 C 311.582031 172.851562 312.605469 172.367188 313.65625 171.929688 C 314.703125 171.492188 315.773438 171.109375 316.859375 170.777344 C 317.945312 170.449219 319.046875 170.171875 320.160156 169.945312 C 321.273438 169.722656 322.394531 169.554688 323.527344 169.441406 C 324.65625 169.328125 325.789062 169.269531 326.925781 169.265625 Z M 326.925781 169.265625 " fill-opacity="1" fill-rule="nonzero"/><g clip-path="url(#id2)"><path fill="#e6a6cd" d="M 448.703125 82.074219 C 448.703125 38.910156 416.261719 3.65625 376.128906 3.65625 C 371.539062 3.683594 367 4.164062 362.503906 5.09375 C 358.011719 6.027344 353.652344 7.390625 349.429688 9.1875 C 345.203125 10.980469 341.199219 13.175781 337.414062 15.769531 C 333.625 18.359375 330.128906 21.296875 326.925781 24.585938 C 323.722656 21.289062 320.222656 18.347656 316.429688 15.75 C 312.640625 13.152344 308.628906 10.957031 304.398438 9.160156 C 300.167969 7.363281 295.800781 6.003906 291.296875 5.074219 C 286.796875 4.148438 282.246094 3.675781 277.652344 3.65625 C 237.734375 3.65625 205.078125 38.875 205.078125 82.183594 C 205.058594 84.375 205.15625 86.5625 205.371094 88.746094 C 205.9375 96.035156 207.425781 103.132812 209.832031 110.039062 C 213.605469 121.414062 218.628906 132.210938 224.902344 142.421875 C 231.179688 152.636719 238.542969 161.996094 246.988281 170.5 C 247.773438 171.335938 248.695312 171.980469 249.746094 172.4375 C 250.800781 172.890625 251.902344 173.117188 253.050781 173.113281 C 253.875 173.117188 254.6875 173 255.480469 172.765625 C 256.273438 172.527344 257.015625 172.183594 257.707031 171.730469 C 258.398438 171.277344 259.007812 170.730469 259.539062 170.097656 C 260.070312 169.460938 260.5 168.765625 260.824219 168.003906 C 261.148438 167.246094 261.359375 166.453125 261.449219 165.632812 C 261.542969 164.808594 261.511719 163.992188 261.363281 163.179688 C 261.214844 162.363281 260.949219 161.589844 260.574219 160.855469 C 260.195312 160.117188 259.71875 159.453125 259.144531 158.859375 C 251.558594 151.246094 244.953125 142.863281 239.324219 133.707031 C 233.699219 124.554688 229.199219 114.875 225.835938 104.667969 C 223.851562 99.027344 222.640625 93.222656 222.207031 87.261719 C 222.03125 85.667969 221.957031 84.074219 221.988281 82.472656 C 221.988281 48.125 246.953125 20.414062 277.6875 20.414062 C 279.761719 20.445312 281.828125 20.59375 283.882812 20.863281 C 285.9375 21.132812 287.972656 21.523438 289.984375 22.027344 C 291.996094 22.535156 293.972656 23.15625 295.910156 23.894531 C 297.847656 24.628906 299.738281 25.472656 301.582031 26.429688 C 303.421875 27.386719 305.199219 28.445312 306.917969 29.605469 C 308.636719 30.765625 310.28125 32.023438 311.851562 33.378906 C 313.425781 34.730469 314.914062 36.171875 316.316406 37.695312 C 317.722656 39.222656 319.03125 40.824219 320.25 42.503906 C 320.660156 42.988281 321.117188 43.429688 321.625 43.816406 C 322.132812 44.203125 322.675781 44.53125 323.253906 44.800781 C 323.832031 45.070312 324.429688 45.273438 325.054688 45.414062 C 325.675781 45.550781 326.308594 45.621094 326.945312 45.621094 C 327.582031 45.621094 328.214844 45.550781 328.835938 45.414062 C 329.460938 45.273438 330.058594 45.070312 330.636719 44.800781 C 331.214844 44.53125 331.757812 44.203125 332.265625 43.816406 C 332.769531 43.429688 333.230469 42.988281 333.640625 42.503906 C 334.859375 40.828125 336.167969 39.234375 337.574219 37.710938 C 338.976562 36.191406 340.460938 34.757812 342.03125 33.410156 C 343.601562 32.0625 345.246094 30.808594 346.960938 29.652344 C 348.675781 28.492188 350.449219 27.4375 352.289062 26.484375 C 354.125 25.535156 356.011719 24.691406 357.945312 23.957031 C 359.882812 23.222656 361.851562 22.605469 363.859375 22.101562 C 365.867188 21.59375 367.898438 21.207031 369.949219 20.9375 C 372 20.667969 374.0625 20.515625 376.128906 20.484375 C 406.863281 20.484375 431.828125 48.195312 431.828125 82.144531 C 431.863281 83.792969 431.792969 85.4375 431.613281 87.078125 C 431.171875 93.03125 429.964844 98.820312 427.984375 104.453125 C 424.601562 114.691406 420.085938 124.410156 414.441406 133.597656 C 408.796875 142.789062 402.171875 151.210938 394.5625 158.859375 C 394.183594 159.257812 393.84375 159.691406 393.550781 160.15625 C 393.253906 160.625 393.007812 161.117188 392.808594 161.632812 C 392.609375 162.144531 392.464844 162.675781 392.371094 163.21875 C 392.277344 163.765625 392.234375 164.3125 392.25 164.863281 C 392.261719 165.417969 392.332031 165.960938 392.453125 166.5 C 392.574219 167.039062 392.746094 167.5625 392.96875 168.066406 C 393.191406 168.570312 393.464844 169.050781 393.78125 169.5 C 394.101562 169.953125 394.460938 170.367188 394.859375 170.75 C 395.257812 171.128906 395.691406 171.46875 396.160156 171.765625 C 396.625 172.058594 397.117188 172.308594 397.632812 172.503906 C 398.148438 172.703125 398.675781 172.851562 399.222656 172.945312 C 399.765625 173.039062 400.3125 173.082031 400.867188 173.066406 C 401.417969 173.054688 401.964844 172.988281 402.503906 172.867188 C 403.042969 172.746094 403.566406 172.574219 404.070312 172.351562 C 404.574219 172.128906 405.054688 171.859375 405.507812 171.539062 C 405.957031 171.222656 406.375 170.863281 406.753906 170.464844 C 415.230469 161.917969 422.613281 152.511719 428.902344 142.25 C 435.191406 131.988281 440.21875 121.140625 443.984375 109.710938 C 446.480469 102.867188 448.054688 95.820312 448.703125 88.566406 C 448.859375 86.402344 448.859375 84.238281 448.703125 82.074219 Z M 448.703125 82.074219 " fill-opacity="1" fill-rule="nonzero"/></g></svg>