<svg height="150" preserveAspectRatio="xMidYMid meet" viewBox="0 0 450 112.499997" width="600" xmlns="http://www.w3.org/2000/svg" xmlns:xlink="http://www.w3.org/1999/xlink" zoomAndPan="magnify"><clipPath id="a"><path d="m408 34h41.003906v44h-41.003906zm0 0"/></clipPath><path d="m5.90625 81.949219c26.671875-13.832031 57.789062-17.015625 87.363281-17.742188 31.84375-.820312 63.597657 1.273438 95.257813 4.183594 32.023437 3.003906 63.957031 6.734375 96.074218 9.007813 15.964844 1.09375 32.023438 1.730468 48.082032 1.820312 15.058594.089844 30.300781.179688 45.359375-1.636719 15.148437-1.820312 30.300781-6.097656 41.910156-16.558593 10.164063-9.191407 17.511719-23.203126 14.699219-37.121094-1.179688-5.824219-10.253906-4.460938-10.253906 1.363281.09375 12.375-4.714844 22.835937-14.242188 30.660156-10.703125 8.828125-25.039062 11.917969-38.375 13.558594-30.300781 3.546875-61.144531 2.363281-91.535156.273437-61.691406-4.367187-123.199219-14.46875-185.160156-12.285156-31.570313 1-63.503907 4.640625-90.992188 21.382813-1.996094 1.179687-.273438 4.183593 1.8125 3.09375zm0 0" fill="#ff66c4"/><path d="m17.882812 61.75c27.035157-9.917969 54.976563-12.28125 83.550782-12.464844 1.542968 0 2.089844-2.636718.363281-2.820312-28.574219-4.277344-58.332031 2.546875-84.550781 14.101562-.542969.273438-.089844 1.457032.636718 1.183594zm0 0" fill="#ff66c4"/><g clip-path="url(#a)"><path d="m409.339844 77.671875c10.433594-1.457031 20.050781-6.460937 27.308594-14.011719 3.71875-3.820312 6.894531-8.1875 9.070312-13.011718 1.816406-3.820313 5.171875-10.644532 2.449219-14.554688-1.269531-1.820312-3.445313-2.09375-5.078125-.636719-3.085938 2.636719-2.632813 8.640625-3.902344 12.464844-1.453125 4.367187-3.539062 8.460937-6.167969 12.191406-5.898437 8.097657-14.335937 14.011719-23.949219 16.648438-.636718.089843-.363281 1 .269532.910156zm0 0" fill="#ff66c4"/></g></svg>