<svg xmlns="http://www.w3.org/2000/svg" xmlns:xlink="http://www.w3.org/1999/xlink" width="600" zoomAndPan="magnify" viewBox="0 0 450 449.999984" height="600" preserveAspectRatio="xMidYMid meet" version="1.0"><defs><clipPath id="id1"><path d="M 0 100.40625 L 450 100.40625 L 450 346 L 0 346 Z M 0 100.40625 " clip-rule="nonzero"/></clipPath></defs><g clip-path="url(#id1)"><path fill="#e6a6cd" d="M 121.851562 161.589844 C 120.558594 154.949219 121.5 148.226562 125.054688 142.386719 C 131.039062 132.546875 143.078125 126.746094 154.417969 130.300781 C 165.527344 133.78125 174.226562 144.492188 173.804688 156.382812 C 173.609375 162.054688 169.324219 166.253906 163.675781 166.503906 C 158.335938 166.742188 153.363281 161.675781 153.546875 156.382812 C 153.558594 156.003906 153.546875 155.640625 153.546875 155.273438 C 153.433594 154.8125 153.320312 154.332031 153.164062 153.882812 C 152.886719 153.335938 152.574219 152.804688 152.238281 152.296875 C 151.789062 151.804688 151.324219 151.328125 150.820312 150.878906 C 150.285156 150.527344 149.75 150.21875 149.191406 149.925781 C 148.753906 149.785156 148.304688 149.660156 147.855469 149.558594 C 147.519531 149.546875 147.167969 149.546875 146.828125 149.558594 C 146.449219 149.644531 146.085938 149.742188 145.707031 149.867188 C 145.269531 150.109375 144.835938 150.347656 144.414062 150.628906 C 143.90625 151.078125 143.429688 151.554688 142.980469 152.046875 C 142.613281 152.605469 142.261719 153.195312 141.953125 153.785156 C 141.785156 154.304688 141.632812 154.839844 141.519531 155.371094 C 141.492188 155.976562 141.503906 156.59375 141.5625 157.199219 C 142.164062 162.378906 139.550781 166.980469 134.324219 168.667969 C 129.378906 170.253906 122.863281 166.800781 121.851562 161.589844 Z M 246.128906 137.332031 C 247.886719 139.085938 250.765625 140.40625 253.296875 140.292969 C 258.3125 140.070312 264.027344 135.816406 263.425781 130.171875 C 263.328125 129.273438 263.4375 128.375 263.410156 127.476562 C 263.507812 127.085938 263.636719 126.691406 263.761719 126.3125 C 263.777344 126.285156 263.789062 126.269531 263.804688 126.242188 C 264.058594 125.765625 264.324219 125.300781 264.617188 124.851562 C 264.648438 124.808594 264.660156 124.78125 264.6875 124.753906 C 264.929688 124.488281 265.167969 124.207031 265.421875 123.953125 C 265.769531 123.589844 266.136719 123.25 266.515625 122.914062 C 267.273438 122.480469 268.257812 122.058594 269.015625 121.566406 C 269.507812 121.414062 270 121.3125 270.492188 121.175781 C 270.886719 121.160156 271.277344 121.132812 271.671875 121.144531 C 271.671875 121.144531 271.671875 121.144531 271.6875 121.144531 C 271.785156 121.144531 272.078125 121.144531 272.386719 121.1875 C 272.699219 121.214844 273.019531 121.242188 273.328125 121.257812 C 273.0625 121.242188 272.839844 121.242188 272.640625 121.230469 C 272.699219 121.242188 272.753906 121.257812 272.808594 121.257812 C 273.34375 121.382812 273.878906 121.523438 274.398438 121.691406 C 274.453125 121.707031 274.511719 121.734375 274.582031 121.761719 C 274.425781 121.679688 274.242188 121.582031 274.03125 121.46875 C 274.242188 121.582031 274.453125 121.691406 274.679688 121.804688 C 275.171875 122.003906 275.648438 122.28125 275.410156 122.183594 C 275.929688 122.453125 276.449219 122.730469 276.941406 123.054688 C 277.054688 123.125 277.152344 123.195312 277.25 123.265625 C 277.488281 123.460938 277.742188 123.644531 277.953125 123.839844 C 278.667969 124.488281 279.34375 125.554688 280.101562 126.144531 C 280.382812 126.566406 280.664062 126.984375 280.917969 127.421875 C 281.226562 127.941406 281.492188 128.472656 281.757812 129.007812 C 282.109375 130.089844 282.449219 131.15625 282.671875 132.265625 C 283.753906 137.457031 290.160156 140.953125 295.132812 139.339844 C 300.628906 137.558594 303.367188 132.445312 302.214844 126.886719 C 299.277344 112.707031 285.902344 100.648438 271.136719 100.875 C 256.273438 101.097656 241.535156 114.675781 243.164062 130.171875 C 243.445312 132.9375 244.09375 135.3125 246.128906 137.332031 Z M 271.6875 121.132812 C 271.546875 121.144531 271.742188 121.175781 272.65625 121.214844 C 272.570312 121.203125 272.488281 121.1875 272.402344 121.175781 C 272.164062 121.160156 271.925781 121.144531 271.6875 121.132812 Z M 274.578125 121.75 C 275.042969 121.988281 275.296875 122.113281 275.394531 122.171875 C 275.15625 122.042969 274.902344 121.917969 274.664062 121.792969 C 274.636719 121.777344 274.609375 121.761719 274.578125 121.75 Z M 449.226562 110.785156 C 448.441406 108.328125 446.910156 105.96875 444.5625 104.734375 C 441.992188 103.371094 439.617188 103.300781 436.75 103.710938 C 424.066406 105.507812 411.378906 107.304688 398.691406 109.113281 C 396.359375 109.453125 393.761719 111.839844 392.636719 113.777344 C 391.371094 115.953125 390.824219 119.152344 391.609375 121.582031 C 392.398438 124.039062 393.929688 126.394531 396.273438 127.632812 C 398.847656 128.992188 401.21875 129.0625 404.085938 128.65625 C 404.929688 128.542969 405.757812 128.417969 406.601562 128.304688 C 414.285156 198.625 373.839844 267.402344 313.511719 302.289062 C 250.738281 338.59375 172.625 330.195312 112.28125 292.953125 C 95.15625 282.382812 79.5625 269.550781 65.878906 254.792969 C 59.132812 247.523438 52.910156 239.816406 47.316406 231.628906 C 41.09375 222.519531 34.125 212.71875 35.292969 201.195312 C 35.726562 200.984375 36.148438 200.757812 36.597656 200.5625 C 38.777344 199.582031 40.644531 196.714844 41.261719 194.511719 C 41.9375 192.082031 41.628906 188.855469 40.238281 186.707031 C 38.847656 184.542969 36.765625 182.636719 34.183594 182.046875 C 33.28125 181.917969 32.382812 181.808594 31.484375 181.679688 C 29.65625 181.679688 27.945312 182.144531 26.371094 183.058594 C 17.703125 186.960938 9.722656 192.617188 2.976562 199.300781 C 1.125 201.097656 0 203.847656 0 206.429688 C 0 208.917969 1.109375 211.878906 2.964844 213.589844 C 4.890625 215.359375 7.433594 216.679688 10.128906 216.554688 C 12.265625 216.453125 14.273438 215.867188 15.988281 214.65625 C 19.824219 231.070312 32.398438 246.316406 42.441406 258.628906 C 55.085938 274.125 69.851562 287.671875 85.941406 299.535156 C 117.183594 322.558594 154.445312 338.242188 192.910156 343.6875 C 232.628906 349.304688 272.878906 344.363281 309.324219 327.277344 C 344.417969 310.824219 374.386719 283.660156 395.542969 251.328125 C 419.21875 215.164062 431.625 171.164062 426.820312 127.96875 C 426.71875 127.113281 426.550781 126.285156 426.296875 125.484375 C 431.582031 124.738281 436.851562 123.980469 442.132812 123.238281 C 444.464844 122.902344 447.0625 120.515625 448.1875 118.578125 C 449.480469 116.414062 450.015625 113.214844 449.226562 110.785156 Z M 449.226562 110.785156 " fill-opacity="1" fill-rule="nonzero"/></g></svg>