<svg xmlns="http://www.w3.org/2000/svg" xmlns:xlink="http://www.w3.org/1999/xlink" width="600" zoomAndPan="magnify" viewBox="0 0 450 449.999984" height="600" preserveAspectRatio="xMidYMid meet" version="1.0"><defs><clipPath id="id1"><path d="M 0 10.40625 L 450 10.40625 L 450 439.40625 L 0 439.40625 Z M 0 10.40625 " clip-rule="nonzero"/></clipPath></defs><g clip-path="url(#id1)"><path fill="#e6a6cd" d="M 225 10.40625 C 146.164062 10.40625 95.507812 19.980469 62.816406 31.074219 C 30.125 42.167969 14.757812 55.574219 9.726562 60 L 9.6875 60 L 9.6875 60.042969 C 3.382812 65.628906 2.382812 72.210938 1.304688 79.234375 C 0.265625 86.253906 0.0664062 94.035156 0.226562 101.816406 C 0.585938 117.335938 2.421875 132.378906 3.699219 139.28125 C 6.773438 155.480469 19.746094 165.535156 33.117188 163.339844 L 33.160156 163.339844 C 36.03125 162.863281 39.90625 161.863281 45.933594 160.390625 C 52 158.871094 59.464844 156.996094 67.007812 155.082031 C 82.097656 151.25 97.863281 147.183594 101.417969 146.382812 C 112.59375 143.871094 118.699219 134.492188 122.015625 124.359375 L 122.015625 124.398438 C 122.773438 122.046875 128.203125 108.839844 133.03125 97.507812 C 136.824219 88.648438 138.898438 83.78125 140.335938 80.589844 C 145.765625 79.074219 173.867188 71.691406 225 71.691406 C 276.09375 71.691406 304.234375 79.074219 309.664062 80.589844 C 311.0625 83.78125 313.175781 88.648438 316.96875 97.507812 C 321.796875 108.839844 327.1875 122.003906 327.984375 124.398438 C 331.300781 134.453125 337.328125 144.070312 348.742188 146.464844 C 351.695312 147.101562 367.582031 151.171875 382.59375 155.003906 C 390.136719 156.957031 397.601562 158.871094 403.707031 160.390625 C 409.816406 161.90625 413.808594 162.902344 417 163.421875 C 430.214844 165.375 443.1875 155.601562 446.300781 139.320312 C 447.578125 132.417969 449.414062 117.378906 449.773438 101.816406 C 449.933594 94.035156 449.734375 86.253906 448.695312 79.234375 C 447.617188 72.25 446.617188 65.585938 440.273438 60.042969 L 440.230469 60.042969 C 435.203125 55.574219 419.875 42.167969 387.183594 31.074219 C 354.449219 20.023438 303.796875 10.40625 225 10.40625 Z M 225 30.835938 C 302.160156 30.835938 350.578125 40.25 380.597656 50.464844 C 410.613281 60.640625 421.511719 70.734375 426.742188 75.363281 C 425.542969 74.285156 427.699219 77.199219 428.457031 82.265625 C 429.214844 87.371094 429.496094 94.316406 429.335938 101.378906 C 429.015625 115.5 427.101562 130.824219 426.179688 135.53125 C 424.863281 142.472656 419.15625 143.074219 420.074219 143.191406 C 419.714844 143.152344 414.566406 142.035156 408.617188 140.558594 C 402.628906 139.082031 395.207031 137.167969 387.703125 135.253906 C 372.691406 131.382812 358.242188 127.589844 352.972656 126.472656 L 352.933594 126.472656 C 353.132812 126.515625 349.300781 123.800781 347.425781 118.015625 L 347.425781 117.976562 C 345.550781 112.46875 340.640625 100.9375 335.769531 89.488281 C 330.859375 78.035156 326.347656 67.621094 326.347656 67.621094 L 324.433594 63.234375 L 319.882812 61.875 C 319.882812 61.875 283.796875 51.261719 225 51.261719 C 166.203125 51.261719 130.117188 61.875 130.117188 61.875 L 125.566406 63.234375 L 123.652344 67.621094 C 123.652344 67.621094 119.140625 78.035156 114.230469 89.449219 C 109.359375 100.898438 104.449219 112.46875 102.574219 117.976562 L 102.574219 118.015625 C 100.699219 123.722656 96.867188 126.472656 96.90625 126.472656 C 91.957031 127.589844 77.027344 131.421875 61.980469 135.253906 C 54.433594 137.167969 47.011719 139.082031 41.0625 140.519531 C 35.15625 141.996094 30.085938 143.152344 29.804688 143.191406 C 30.523438 143.074219 25.136719 142.59375 23.820312 135.53125 L 23.820312 135.492188 C 22.898438 130.785156 20.984375 115.460938 20.664062 101.335938 C 20.503906 94.273438 20.746094 87.371094 21.503906 82.265625 C 22.300781 77.160156 24.457031 74.246094 23.257812 75.324219 C 28.488281 70.695312 39.386719 60.601562 69.402344 50.386719 C 99.382812 40.210938 147.839844 30.835938 225 30.835938 Z M 153.46875 122.761719 C 147.839844 122.761719 143.25 127.351562 143.25 132.976562 L 143.25 159.3125 C 138.699219 163.582031 104.730469 195.539062 58.867188 248.886719 C 27.691406 285.15625 20.546875 322.0625 20.625 347.519531 C 20.664062 358.609375 23.300781 378.480469 25.855469 396.714844 C 28.410156 414.949219 30.964844 430.789062 30.964844 430.789062 C 31.761719 435.777344 36.03125 439.40625 41.0625 439.40625 L 92.15625 439.40625 C 97.785156 439.40625 102.375 434.816406 102.375 429.191406 L 102.375 418.976562 L 347.625 418.976562 L 347.625 429.191406 C 347.625 434.816406 352.214844 439.40625 357.84375 439.40625 L 408.9375 439.40625 C 413.925781 439.40625 418.199219 435.777344 418.996094 430.828125 C 418.996094 430.828125 421.589844 414.949219 424.144531 396.753906 C 426.699219 378.558594 429.335938 358.648438 429.375 347.476562 C 429.414062 322.0625 422.230469 285.074219 391.132812 248.886719 C 345.269531 195.539062 311.300781 163.582031 306.75 159.3125 L 306.75 132.976562 C 306.75 127.351562 302.160156 122.761719 296.53125 122.761719 L 255.65625 122.761719 C 250.027344 122.761719 245.4375 127.351562 245.4375 132.976562 L 245.4375 153.40625 L 204.5625 153.40625 L 204.5625 132.976562 C 204.5625 127.351562 199.972656 122.761719 194.34375 122.761719 Z M 163.6875 143.191406 L 184.125 143.191406 L 184.125 163.621094 C 184.125 169.246094 188.714844 173.835938 194.34375 173.835938 L 255.65625 173.835938 C 261.285156 173.835938 265.875 169.246094 265.875 163.621094 L 265.875 143.191406 L 286.3125 143.191406 L 286.3125 163.621094 C 286.3125 166.453125 287.511719 169.167969 289.585938 171.121094 C 289.585938 171.121094 327.347656 206.035156 375.605469 262.210938 C 403.308594 294.410156 408.976562 325.773438 408.9375 347.476562 C 408.9375 354.9375 406.421875 375.925781 403.90625 393.921875 C 402.03125 407.289062 400.992188 413.671875 400.15625 418.976562 L 368.0625 418.976562 L 368.0625 408.761719 C 368.0625 403.136719 363.472656 398.550781 357.84375 398.550781 L 92.15625 398.550781 C 86.527344 398.550781 81.9375 403.136719 81.9375 408.761719 L 81.9375 418.976562 L 49.84375 418.976562 C 49.046875 413.671875 47.96875 407.246094 46.09375 393.882812 C 43.578125 375.847656 41.101562 354.898438 41.0625 347.4375 C 40.984375 325.773438 46.609375 294.53125 74.394531 262.210938 C 122.652344 206.035156 160.414062 171.121094 160.414062 171.121094 C 162.488281 169.167969 163.6875 166.453125 163.6875 163.621094 Z M 143.25 224.90625 L 143.25 245.335938 L 184.125 245.335938 L 184.125 224.90625 Z M 204.5625 224.90625 L 204.5625 245.335938 L 245.4375 245.335938 L 245.4375 224.90625 Z M 265.875 224.90625 L 265.875 245.335938 L 306.75 245.335938 L 306.75 224.90625 Z M 143.25 265.761719 L 143.25 286.191406 L 184.125 286.191406 L 184.125 265.761719 Z M 204.5625 265.761719 L 204.5625 286.191406 L 245.4375 286.191406 L 245.4375 265.761719 Z M 265.875 265.761719 L 265.875 286.191406 L 306.75 286.191406 L 306.75 265.761719 Z M 143.25 306.621094 L 143.25 327.050781 L 184.125 327.050781 L 184.125 306.621094 Z M 204.5625 306.621094 L 204.5625 327.050781 L 245.4375 327.050781 L 245.4375 306.621094 Z M 265.875 306.621094 L 265.875 327.050781 L 306.75 327.050781 L 306.75 306.621094 Z M 265.875 306.621094 " fill-opacity="1" fill-rule="nonzero"/></g></svg>