<svg height="600" preserveAspectRatio="xMidYMid meet" viewBox="0 0 450 449.999984" width="600" xmlns="http://www.w3.org/2000/svg" xmlns:xlink="http://www.w3.org/1999/xlink" zoomAndPan="magnify"><clipPath id="a"><path d="m0 10.40625h450v429h-450zm0 0"/></clipPath><g clip-path="url(#a)"><path d="m225 10.40625c-78.835938 0-129.492188 9.574219-162.183594 20.667969s-48.058594 24.5-53.089844 28.925781h-.039062v.042969c-6.304688 5.585937-7.304688 12.167969-8.382812 19.191406-1.039063 7.019531-1.2382818 14.800781-1.078126 22.582031.359376 15.519532 2.195313 30.5625 3.472657 37.464844 3.074219 16.199219 16.046875 26.253906 29.417969 24.058594h.042968c2.871094-.476563 6.746094-1.476563 12.773438-2.949219 6.066406-1.519531 13.53125-3.394531 21.074218-5.308594 15.089844-3.832031 30.855469-7.898437 34.410157-8.699219 11.175781-2.511718 17.28125-11.890624 20.597656-22.023437v.039063c.757813-2.351563 6.1875-15.558594 11.015625-26.890626 3.792969-8.859374 5.867188-13.726562 7.304688-16.917968 5.429687-1.515625 33.53125-8.898438 84.664062-8.898438 51.09375 0 79.234375 7.382813 84.664062 8.898438 1.398438 3.191406 3.511719 8.058594 7.304688 16.917968 4.828125 11.332032 10.21875 24.496094 11.015625 26.890626 3.316406 10.054687 9.34375 19.671874 20.757813 22.066406 2.953124.636718 18.839843 4.707031 33.851562 8.539062 7.542969 1.953125 15.007812 3.867188 21.113281 5.386719 6.109375 1.515625 10.101563 2.511719 13.292969 3.03125 13.214844 1.953125 26.1875-7.820313 29.300781-24.101563 1.277344-6.902343 3.113281-21.941406 3.472657-37.503906.160156-7.78125-.039063-15.5625-1.078126-22.582031-1.078124-6.984375-2.078124-13.648437-8.421874-19.191406h-.042969c-5.027344-4.46875-20.355469-17.875-53.046875-28.96875-32.734375-11.050781-83.386719-20.667969-162.183594-20.667969zm0 20.429688c77.160156 0 125.578125 9.414062 155.597656 19.628906 30.015625 10.175781 40.914063 20.269531 46.144532 24.898437-1.199219-1.078125.957031 1.835938 1.714843 6.902344.757813 5.105469 1.039063 12.050781.878907 19.113281-.320313 14.121094-2.234376 29.445313-3.15625 34.152344-1.316407 6.941406-7.023438 7.542969-6.105469 7.660156-.359375-.039062-5.507813-1.15625-11.457031-2.632812-5.988282-1.476563-13.410157-3.390625-20.914063-5.304688-15.011719-3.871094-29.460937-7.664062-34.730469-8.78125h-.039062c.199218.042969-3.632813-2.671875-5.507813-8.457031v-.039063c-1.875-5.507812-6.785156-17.039062-11.65625-28.488281-4.910156-11.453125-9.421875-21.867187-9.421875-21.867187l-1.914062-4.386719-4.550782-1.359375s-36.085937-10.613281-94.882812-10.613281-94.882812 10.613281-94.882812 10.613281l-4.550782 1.359375-1.914062 4.386719s-4.511719 10.414062-9.421875 21.828125c-4.871094 11.449219-9.78125 23.019531-11.65625 28.527343v.039063c-1.875 5.707031-5.707031 8.457031-5.667969 8.457031-4.949219 1.117188-19.878906 4.949219-34.925781 8.78125-7.546875 1.914063-14.96875 3.828125-20.917969 5.265625-5.90625 1.476563-10.976562 2.632813-11.257812 2.671875.71875-.117187-4.667969-.597656-5.984376-7.660156v-.039062c-.921874-4.707032-2.835937-20.03125-3.15625-34.15625-.160156-7.0625.082032-13.964844.839844-19.070313.796875-5.105469 2.953125-8.019531 1.753906-6.941406 5.230469-4.628907 16.128907-14.722657 46.144532-24.9375 29.980468-10.175781 78.4375-19.550781 155.597656-19.550781zm-71.53125 91.925781c-5.628906 0-10.21875 4.589843-10.21875 10.214843v26.335938c-4.550781 4.269531-38.519531 36.226562-84.382812 89.574219-31.175782 36.269531-38.320313 73.175781-38.242188 98.632812.039062 11.089844 2.675781 30.960938 5.230469 49.195313 2.554687 18.234375 5.109375 34.074218 5.109375 34.074218.796875 4.988282 5.066406 8.617188 10.097656 8.617188h51.09375c5.628906 0 10.21875-4.589844 10.21875-10.214844v-10.214844h245.25v10.214844c0 5.625 4.589844 10.214844 10.21875 10.214844h51.09375c4.988281 0 9.261719-3.628906 10.058594-8.578125 0 0 2.59375-15.878906 5.148437-34.074219 2.554688-18.195312 5.191407-38.105468 5.230469-49.277344.039062-25.414062-7.144531-62.402343-38.242188-98.589843-45.863281-53.347657-79.832031-85.304688-84.382812-89.574219v-26.335938c0-5.625-4.589844-10.214843-10.21875-10.214843h-40.875c-5.628906 0-10.21875 4.589843-10.21875 10.214843v20.429688h-40.875v-20.429688c0-5.625-4.589844-10.214843-10.21875-10.214843zm10.21875 20.429687h20.4375v20.429688c0 5.625 4.589844 10.214844 10.21875 10.214844h61.3125c5.628906 0 10.21875-4.589844 10.21875-10.214844v-20.429688h20.4375v20.429688c0 2.832031 1.199219 5.546875 3.273438 7.5 0 0 37.761718 34.914062 86.019531 91.089844 27.703125 32.199218 33.371093 63.5625 33.332031 85.265624 0 7.460938-2.515625 28.449219-5.03125 46.445313-1.875 13.367187-2.914062 19.75-3.75 25.054687h-32.09375v-10.214843c0-5.625-4.589844-10.210938-10.21875-10.210938h-265.6875c-5.628906 0-10.21875 4.585938-10.21875 10.210938v10.214843h-32.09375c-.796875-5.304687-1.875-11.730468-3.75-25.09375-2.515625-18.035156-4.992188-38.984374-5.03125-46.445312-.078125-21.664062 5.546875-52.90625 33.332031-85.226562 48.257813-56.175782 86.019531-91.089844 86.019531-91.089844 2.074219-1.953125 3.273438-4.667969 3.273438-7.5zm-20.4375 81.714844v20.429688h40.875v-20.429688zm61.3125 0v20.429688h40.875v-20.429688zm61.3125 0v20.429688h40.875v-20.429688zm-122.625 40.855469v20.429687h40.875v-20.429687zm61.3125 0v20.429687h40.875v-20.429687zm61.3125 0v20.429687h40.875v-20.429687zm-122.625 40.859375v20.429687h40.875v-20.429687zm61.3125 0v20.429687h40.875v-20.429687zm61.3125 0v20.429687h40.875v-20.429687zm0 0" fill="#e6a6cd"/></g></svg>