<svg height="600" preserveAspectRatio="xMidYMid meet" viewBox="0 0 450 449.999984" width="600" xmlns="http://www.w3.org/2000/svg" xmlns:xlink="http://www.w3.org/1999/xlink" zoomAndPan="magnify"><clipPath id="a"><path d="m112 23h338v421.84375h-338zm0 0"/></clipPath><path d="m121.601562 202.277344 87.382813 87.390625c.339844.34375.707031.648437 1.109375.917969.398438.269531.820312.496093 1.265625.683593s.90625.324219 1.378906.421875c.472657.09375.949219.140625 1.433594.140625.480469 0 .960937-.046875 1.433594-.140625.472656-.09375.929687-.234375 1.375-.421875.445312-.1875.867187-.414062 1.269531-.683593.398438-.269532.769531-.574219 1.109375-.917969.339844-.339844.640625-.710938.910156-1.113281.265625-.402344.488281-.824219.671875-1.269532.1875-.445312.324219-.902344.417969-1.375s.140625-.949218.140625-1.433594c0-.480468-.046875-.957031-.140625-1.429687s-.230469-.929687-.417969-1.375c-.183594-.445313-.40625-.867187-.671875-1.269531-.269531-.402344-.570312-.773438-.910156-1.113282l-87.355469-87.390624 9.039063-9.070313 64.171875 64.199219c.339844.34375.707031.652344 1.109375.921875.398437.269531.820312.496093 1.265625.679687.445312.1875.90625.328125 1.378906.421875s.949219.140625 1.433594.140625c.480468 0 .957031-.046875 1.429687-.140625.476563-.09375.933594-.234375 1.378907-.421875.445312-.183594.867187-.410156 1.269531-.679687.398437-.269531.769531-.578125 1.109375-.921875.335937-.339844.640625-.710938.90625-1.113282.269531-.398437.492187-.824218.675781-1.269531.183594-.441406.324219-.902343.417969-1.375.09375-.472656.140625-.949219.140625-1.429687 0-.480469-.046875-.960938-.140625-1.429688-.09375-.472656-.234375-.933594-.417969-1.378906s-.40625-.867188-.675781-1.269531c-.265625-.398438-.570313-.769531-.90625-1.113281l-64.175782-64.199219 8.636719-8.640625 87.410157 87.417968c.339843.34375.710937.648438 1.109374.914063.402344.269531.824219.492187 1.269532.679687.445312.183594.902344.324219 1.375.417969s.949218.140625 1.433594.140625c.480468 0 .957031-.046875 1.429687-.140625s.933594-.234375 1.375-.417969c.445313-.1875.871094-.410156 1.269531-.679687.402344-.265625.773438-.570313 1.113282-.914063.339843-.339843.644531-.710937.910156-1.109374.269531-.402344.496094-.824219.679687-1.269532.183594-.445312.324219-.90625.417969-1.378906s.140625-.949219.140625-1.429688c0-.480468-.046875-.960937-.140625-1.433593-.09375-.472657-.234375-.929688-.417969-1.375-.183593-.445313-.410156-.867188-.679687-1.269531-.265625-.398438-.570313-.769532-.910156-1.113282l-87.410157-87.417968 6.550781-6.550782 75.832032 75.835938c.339844.335937.710937.640625 1.113281.90625.398437.269531.824219.492187 1.265625.675781.445312.1875.90625.324219 1.378906.417969.46875.09375.949219.140625 1.429688.140625.480468 0 .957031-.046875 1.429687-.140625.472657-.09375.929688-.230469 1.375-.417969.445313-.183594.867188-.40625 1.269531-.675781.398438-.265625.769532-.570313 1.113282-.90625.339844-.339844.648437-.710938.917968-1.113282.269532-.398437.496094-.820312.683594-1.265624.183594-.445313.324219-.90625.417969-1.378907.097656-.472656.144531-.949219.144531-1.433593 0-.484376-.046875-.960938-.144531-1.433594-.09375-.472656-.234375-.933594-.417969-1.378906-.1875-.445313-.414062-.867188-.683594-1.265626-.269531-.402343-.578124-.773437-.917968-1.109374l-75.832032-75.835938 15.828126-15.863281 75.777343 75.835937c.347657.316406.71875.597656 1.117188.839844.402343.246094.820312.453125 1.257812.617188.441407.164062.890625.285156 1.351563.363281.460937.082031.929687.113281 1.394531.105469.46875-.011719.933594-.066407 1.390625-.164063.460938-.097656.902344-.238281 1.335938-.421875.429687-.1875.839843-.410156 1.226562-.671875.390625-.261719.75-.558594 1.082031-.890625.332031-.328125.628907-.6875.894531-1.078125.261719-.386719.484376-.796875.671876-1.226563.183593-.429687.324218-.875.425781-1.332031.097656-.460937.15625-.921875.167969-1.390625.007812-.46875-.023438-.9375-.101563-1.398437-.078125-.460938-.199219-.914063-.363281-1.351563-.164063-.441406-.367188-.859375-.609375-1.257812-.246094-.402344-.523438-.777344-.839844-1.121094l-75.804687-75.808594 6.550781-6.554687 87.382812 87.390625c.339844.34375.707031.648437 1.109375.917968.398438.269532.820313.5 1.265625.683594.445313.1875.90625.328125 1.378907.421875.472656.09375.949218.140625 1.433593.140625.480469 0 .960938-.046875 1.433594-.140625s.929687-.234375 1.375-.421875c.445313-.183594.867187-.414062 1.269531-.683594.398438-.269531.769532-.574218 1.109375-.917968.339844-.339844.640625-.710938.910157-1.113282.265624-.402343.492187-.824218.675781-1.269531.183593-.445312.320312-.902343.414062-1.375.09375-.472656.140625-.949219.140625-1.429687 0-.484375-.046875-.960938-.140625-1.433594s-.230469-.929688-.414062-1.375c-.183594-.445312-.410157-.867188-.675781-1.269531-.269532-.402344-.570313-.773438-.910157-1.113281l-87.382812-87.390626 8.636719-8.640624 64.171874 64.199218c.6875.6875 1.480469 1.21875 2.378907 1.589844.902343.371094 1.835937.554688 2.808593.550781.972657.007813 1.910157-.171875 2.8125-.542969.898438-.371093 1.691407-.90625 2.375-1.597656.34375-.339844.648438-.710937.917969-1.109375.269531-.402343.5-.824219.683594-1.269531.1875-.445312.324219-.902344.421875-1.378906.09375-.472656.140625-.949219.140625-1.433594 0-.480469-.046875-.957031-.140625-1.433594-.097656-.472656-.234375-.929687-.421875-1.375-.183594-.445312-.414063-.867187-.683594-1.269531-.269531-.398437-.574219-.769531-.917969-1.109375l-64.171874-64.199219 9.039062-9.042969 87.378906 87.445313c.339844.339844.710938.644531 1.113282.914063.398437.265624.824218.492187 1.269531.675781.441406.183593.902343.324219 1.375.417969.472656.09375.949219.140624 1.429687.140624.480469-.003906.957032-.050781 1.429688-.144531s.929687-.230469 1.375-.417969c.445312-.183593.867187-.410156 1.269531-.675781.398437-.269531.769531-.574219 1.109375-.914062.339844-.339844.644531-.710938.914062-1.109375.265626-.402344.492188-.824219.675782-1.269532.183594-.445312.324218-.902343.417968-1.375.09375-.472656.140626-.949218.140626-1.433593 0-.480469-.046876-.957031-.140626-1.429688-.09375-.472656-.230468-.929687-.414062-1.375-.183594-.445312-.410156-.867187-.679688-1.269531-.265624-.402344-.570312-.769531-.910156-1.113281l-88.824218-88.914063c.382812-.84375.730468-1.699218 1.042968-2.570312.308594-.871094.582032-1.753906.816406-2.648438.230469-.894531.425782-1.796875.582032-2.707031.152344-.910156.269531-1.828125.34375-2.75.074218-.921875.109375-1.84375.105468-2.769531-.007812-.925782-.050781-1.847656-.136718-2.765625-.085938-.921875-.210938-1.835938-.378906-2.746094-.164063-.910156-.367188-1.8125-.613282-2.703125-.242187-.890625-.523437-1.773438-.84375-2.640625-.320312-.867187-.675781-1.71875-1.070312-2.554687-.394532-.835938-.824219-1.652344-1.289063-2.453126-.46875-.796874-.964843-1.574218-1.5-2.328124-.53125-.757813-1.097656-1.488282-1.695312-2.195313-.59375-.703125-1.222657-1.382813-1.878907-2.035156-.652343-.652344-1.335937-1.273438-2.046874-1.863281-.710938-.59375-1.445313-1.152344-2.203126-1.683594-.757812-.527344-1.539062-1.019532-2.339843-1.480469s-1.621094-.886719-2.460938-1.273437c-.835937-.390626-1.691406-.742188-2.558593-1.054688-.871094-.316406-1.75-.589844-2.644532-.828125-.894531-.238281-1.796875-.4375-2.707031-.597656-.910156-.15625-1.824219-.277344-2.746094-.355469s-1.84375-.117188-2.765625-.117188c-.925781 0-1.847656.042969-2.769531.121094-.917969.082032-1.835937.203125-2.746094.363282-.910156.164062-1.808593.363281-2.703125.601562-.890625.242188-1.773437.519531-2.640625.835938-.867187.316406-1.722656.667968-2.558593 1.058593-.839844.390625-1.65625.816407-2.457032 1.277344-.800781.464844-1.582031.960937-2.339844 1.488281-.757812.53125-1.488281 1.09375-2.199218 1.6875-.707032.59375-1.386719 1.214844-2.042969 1.867188l-204.09375 204.183594c-.34375.339843-.648437.707031-.917969 1.109374-.269531.398438-.496094.820313-.683594 1.265626-.1875.445312-.324218.90625-.421874 1.378906-.09375.472656-.140626.953125-.140626 1.433594 0 .484374.046876.960937.140626 1.433593.097656.472657.234374.933594.421874 1.378907.1875.445312.414063.867187.683594 1.269531.269532.398437.574219.769531.917969 1.109375.683594.691406 1.476563 1.222656 2.375 1.597656.902344.371094 1.839844.550781 2.8125.542969.972656.003906 1.90625-.179688 2.808594-.550781.898437-.371094 1.691406-.902344 2.378906-1.589844l204.09375-204.183594c.597656-.601562 1.234375-1.160156 1.914063-1.667969.679687-.507812 1.394531-.964843 2.140624-1.367187.746094-.40625 1.519532-.75 2.316407-1.039063.800781-.289062 1.613281-.515625 2.445312-.683593.832031-.171876 1.671875-.277344 2.519531-.320313.847657-.042969 1.695313-.023437 2.539063.058594.847656.082031 1.679687.226562 2.503906.429687.824219.207032 1.628907.472656 2.410157.796875.785156.324219 1.542968.703125 2.269531 1.140625.730469.4375 1.421875.925782 2.078125 1.464844s1.265625 1.121094 1.835937 1.753906c.570313.628906 1.089844 1.296875 1.558594 2.003906.472656.707032.886719 1.445313 1.246094 2.214844.363281.765625.664062 1.558594.910156 2.371094.242187.8125.425781 1.640625.546875 2.480469.121094.839843.179688 1.6875.175781 2.535156 0 1.730469-.257812 3.425781-.769531 5.078125-.507812 1.65625-1.25 3.199219-2.222656 4.632812l-19.039063 19.019532-49.089843 49.058594-30.054688 30.066406-38.421875 38.441406c-.34375.410156-.640625.855469-.882813 1.335938l-12.542968 12.519531c-.6875.679687-1.429688 1.296875-2.226563 1.855469-.792969.554687-1.628906 1.042968-2.503906 1.457031-.875.417969-1.78125.757812-2.714844 1.019531-.933593.265625-1.878906.449219-2.84375.554688-.964843.105468-1.929687.128906-2.898437.070312-.96875-.054688-1.921875-.195312-2.867188-.410156-.945312-.21875-1.867187-.515625-2.761718-.886719-.894532-.371094-1.753907-.816406-2.574219-1.332031-.703125-.457032-1.460938-.785156-2.273438-.980469-.816406-.195313-1.640625-.246094-2.472656-.15625-.835937.089844-1.628906.316406-2.382813.683594-.753906.363281-1.425781.84375-2.015624 1.441406l-68.636719 68.613281c-.367188.335938-.695313.703125-.988281 1.105469-.292969.402344-.539063.832031-.746094 1.285156-.203125.453125-.363282.921875-.472656 1.40625-.109376.484375-.171876.976563-.179688 1.472657-.011719.496093.027344.988281.117188 1.480468.089843.488282.226562.960938.410156 1.421875.1875.464844.417968.902344.691406 1.316407.273438.414062.585938.796874.9375 1.148437s.734375.664063 1.152344.9375c.414062.273437.851562.5 1.3125.683594.464844.1875.9375.324219 1.425781.410156.492187.089844.984375.125 1.480469.113281.496094-.011718.988281-.074218 1.472656-.183594.484375-.113281.953125-.273437 1.402344-.476562.453125-.207031.878906-.457031 1.28125-.75s.769531-.625 1.105468-.992188l64.839844-64.867187c1.441406.566406 2.914063 1.027344 4.417969 1.382813 1.507813.355468 3.03125.597656 4.574219.734374 1.539062.132813 3.082031.15625 4.628906.066407 1.542969-.089844 3.074219-.289063 4.589844-.597657 1.515625-.3125 3-.730468 4.457031-1.257812 1.457031-.523438 2.867187-1.152344 4.230469-1.882812 1.363281-.726563 2.667968-1.550782 3.914062-2.472657 1.246094-.917969 2.417969-1.921875 3.519532-3.007812zm0 0" fill="#e6a6cd"/><g clip-path="url(#a)"><path d="m338.71875 23.238281c-7.402344.003907-14.710938.824219-21.929688 2.457031-7.21875 1.636719-14.167968 4.042969-20.851562 7.226563-.75.359375-1.421875.835937-2.011719 1.421875-.589843.589844-1.066406 1.257812-1.429687 2.007812-.363282.75-.589844 1.535157-.6875 2.363282-.09375.828125-.050782 1.648437.132812 2.460937s.496094 1.570313.9375 2.277344.984375 1.320313 1.636719 1.84375c.648437.519531 1.363281.917969 2.148437 1.195313.785157.277343 1.59375.417968 2.429688.421874 1.09375.003907 2.136719-.230468 3.125-.695312 5.703125-2.730469 11.632812-4.796875 17.796875-6.195312 6.164063-1.398438 12.40625-2.097657 18.730469-2.097657 52.996094 0 96.257812 49.140625 96.257812 109.511719 0 1.6875-.507812 168.792969-65.242187 273.707031-.695313 1.292969-1.546875 2.472657-2.554688 3.542969-1.007812 1.070312-2.132812 1.992188-3.382812 2.765625-1.246094.773437-2.574219 1.375-3.976563 1.800781-1.40625.429688-2.84375.667969-4.3125.71875-1.492187-.007812-2.953125-.222656-4.382812-.644531-6.390625-1.792969-13.824219-8.292969-13.824219-20.570313v-46.519531c0-36.617187-26.738281-66.445312-59.652344-66.445312-32.917969 0-59.65625 29.828125-59.65625 66.445312v46.519531c0 12.277344-7.457031 18.726563-13.820312 20.570313-1.425781.421875-2.875.636719-4.359375.644531-1.46875-.050781-2.90625-.292968-4.316406-.71875-1.40625-.425781-2.734376-1.027344-3.984376-1.800781s-2.378906-1.695313-3.386718-2.765625c-1.007813-1.070312-1.863282-2.25-2.566406-3.542969-35.375-57.085937-51.363282-132.359375-58.449219-185.484375-.058594-.4375-.15625-.867187-.292969-1.285156s-.3125-.824219-.519531-1.210938c-.210938-.386718-.453125-.753906-.730469-1.097656-.273438-.34375-.578125-.664062-.914062-.953125-.332032-.289062-.6875-.542969-1.066407-.769531-.378906-.226562-.777343-.414062-1.191406-.566406s-.835937-.269532-1.269531-.347656c-.4375-.074219-.875-.113282-1.316406-.109376h-.960938c-.476562.066407-.941406.175782-1.398438.335938-.457031.15625-.890624.355469-1.308593.601562-.414063.242188-.800781.523438-1.164063.84375-.359375.316407-.6875.667969-.976562 1.054688-.292969.382812-.542969.789062-.753906 1.222656-.210938.433594-.378907.882813-.503907 1.347656-.121093.46875-.199219.941407-.230469 1.421876-.027343.480468-.011718.960937.050782 1.4375 7.382812 54.515624 23.878906 131.929687 60.457031 191.179687.675781 1.175781 1.425781 2.300781 2.25 3.375.820313 1.078125 1.710937 2.097656 2.664063 3.058594.953124.960937 1.960937 1.859375 3.03125 2.691406 1.066406.832031 2.183593 1.59375 3.351562 2.28125s2.371094 1.300781 3.617188 1.832031c1.246093.535156 2.519531.984375 3.820312 1.355469 1.304688.367187 2.625.652344 3.964844.851563 1.339844.199218 2.6875.3125 4.039062.339843 2.828125 0 5.601563-.394531 8.316406-1.179687 14.652344-4.144532 24.492188-18.109375 24.492188-34.773438v-46.359375c-.054688-28.539062 20.214844-51.679687 44.921875-51.679687 24.703125 0 44.972656 23.21875 44.972656 51.761718v46.519532c0 16.582031 9.839844 30.546875 24.492188 34.773437 2.714843.785157 5.488281 1.179688 8.316406 1.175781 1.351563-.023437 2.699219-.136718 4.039063-.335937 1.339843-.199219 2.660156-.484375 3.964843-.855469 1.300781-.367187 2.574219-.820312 3.820313-1.351562 1.246094-.535156 2.449218-1.144532 3.617187-1.832032s2.285157-1.449218 3.351563-2.28125c1.070312-.832031 2.078125-1.730468 3.03125-2.691406.953125-.964844 1.84375-1.984375 2.664062-3.058594.824219-1.078124 1.574219-2.203124 2.25-3.375 66.847656-108.496093 67.433594-274.398437 67.433594-281.410156.054688-68.636718-49.597656-124.359375-110.75-124.359375zm0 0" fill="#e6a6cd"/></g><g fill="#e6a6cd"><path d="m395.484375 236.96875c.464844-.027344.917969-.097656 1.371094-.210938.449219-.117187.882812-.269531 1.304687-.46875.417969-.195312.816406-.429687 1.195313-.703124.375-.273438.722656-.578126 1.039062-.914063.320313-.339844.601563-.703125.851563-1.097656.25-.390625.457031-.800781.628906-1.234375.171875-.429688.300781-.875.386719-1.332032.089843-.457031.132812-.914062.132812-1.378906s-.042969-.925781-.132812-1.382812c-.085938-.453125-.214844-.898438-.386719-1.332032-.171875-.429687-.378906-.84375-.628906-1.234374-.25-.390626-.53125-.757813-.851563-1.09375-.316406-.339844-.664062-.644532-1.039062-.917969-.378907-.269531-.777344-.503907-1.195313-.703125-.421875-.195313-.855468-.351563-1.304687-.464844-.453125-.117188-.90625-.1875-1.371094-.214844h-5.882813c-.5-.03125-1-.007812-1.496093.0625-.496094.070313-.980469.191406-1.449219.363282-.472656.171874-.921875.386718-1.347656.652343-.429688.261719-.824219.566407-1.191406.910157-.363282.34375-.691407.71875-.980469 1.128906-.285157.410156-.53125.847656-.726563 1.308594-.199218.460937-.351562.9375-.453125 1.425781-.101562.492187-.152343.988281-.152343 1.492187 0 .5.050781.996094.152343 1.488282.101563.492187.253907.96875.453125 1.429687.195313.457031.441406.894531.726563 1.304687.289062.410157.617187.789063.980469 1.132813.367187.34375.761718.648437 1.191406.910156.425781.261719.875.480469 1.347656.648438.46875.171875.953125.292969 1.449219.367187.496093.070313.996093.089844 1.496093.058594zm0 0"/><path d="m377.863281 204.65625c-.484375-.003906-.964843.039062-1.4375.132812-.476562.089844-.9375.226563-1.386719.410157-.449218.183593-.875.40625-1.277343.671875-.40625.269531-.777344.570312-1.121094.910156-.34375.34375-.652344.714844-.925781 1.113281-.269532.402344-.5.824219-.683594 1.273438-.1875.445312-.332031.90625-.425781 1.378906-.097657.476563-.148438.957031-.148438 1.4375v5.886719c-.03125.5-.007812 1 .0625 1.496094.070313.496093.191407.980468.363281 1.453124.171876.472657.386719.921876.652344 1.347657.261719.425781.5625.824219.90625 1.1875.34375.367187.722656.695312 1.132813.980469.410156.289062.847656.53125 1.304687.730468.460938.199219.9375.351563 1.429688.453125.492187.101563.988281.152344 1.488281.152344s.996094-.050781 1.488281-.152344c.492188-.101562.96875-.253906 1.425782-.453125.460937-.199218.898437-.441406 1.308593-.730468.410157-.285157.789063-.613282 1.132813-.980469.34375-.363281.644531-.761719.90625-1.1875.265625-.425781.480468-.875.652344-1.347657.171874-.472656.292968-.957031.363281-1.453124.070312-.496094.09375-.996094.0625-1.496094v-5.886719c0-.476563-.046875-.953125-.140625-1.421875s-.230469-.925781-.414063-1.367188c-.179687-.445312-.402343-.867187-.667969-1.265624-.265624-.398438-.566406-.765626-.90625-1.105469-.335937-.339844-.703124-.644531-1.097656-.914063-.398437-.265625-.816406-.496094-1.257812-.679687-.441406-.1875-.898438-.328125-1.367188-.421875-.46875-.097656-.941406-.148438-1.421875-.152344zm0 0"/><path d="m360.242188 222.285156c-.5-.03125-1-.007812-1.496094.0625-.496094.070313-.980469.191406-1.449219.363282-.472656.171874-.921875.386718-1.347656.652343-.429688.261719-.824219.566407-1.191407.910157-.363281.34375-.691406.71875-.976562 1.128906-.289062.410156-.53125.847656-.730469 1.308594-.199219.460937-.351562.9375-.453125 1.425781-.101562.492187-.152344.988281-.152344 1.492187 0 .5.050782.996094.152344 1.488282.101563.492187.253906.96875.453125 1.429687.199219.457031.441407.894531.730469 1.304687.285156.410157.613281.789063.976562 1.132813.367188.34375.761719.648437 1.191407.910156.425781.261719.875.480469 1.347656.648438.46875.171875.953125.292969 1.449219.367187.496094.070313.996094.089844 1.496094.058594h5.882812c.464844-.027344.921875-.097656 1.371094-.210938.449218-.117187.882812-.269531 1.304687-.46875.421875-.195312.816407-.429687 1.195313-.703124.375-.273438.722656-.578126 1.039062-.914063.320313-.339844.601563-.703125.851563-1.097656.25-.390625.460937-.800781.628906-1.234375.171875-.429688.300781-.875.390625-1.332032.085938-.457031.128906-.914062.128906-1.378906s-.042968-.925781-.128906-1.382812c-.089844-.453125-.21875-.898438-.390625-1.332032-.167969-.429687-.378906-.84375-.628906-1.234374-.25-.390626-.53125-.757813-.851563-1.09375-.316406-.339844-.664062-.644532-1.039062-.917969-.378906-.269531-.773438-.503907-1.195313-.703125-.421875-.195313-.855469-.351563-1.304687-.464844-.449219-.117188-.90625-.1875-1.371094-.214844zm0 0"/><path d="m377.863281 234.027344c-.484375-.003906-.964843.042968-1.4375.132812-.476562.089844-.9375.226563-1.386719.410156-.449218.183594-.875.40625-1.277343.671876-.40625.269531-.777344.570312-1.121094.910156-.34375.34375-.652344.714844-.925781 1.113281-.269532.402344-.5.828125-.683594 1.273437-.1875.445313-.332031.90625-.425781 1.378907-.097657.476562-.148438.957031-.148438 1.441406v5.882813c-.03125.5-.007812 1 .0625 1.496093.070313.496094.191407.980469.363281 1.453125.171876.472656.386719.921875.652344 1.347656.261719.425782.5625.824219.90625 1.1875.34375.367188.722656.695313 1.132813.980469.410156.289063.847656.53125 1.304687.730469.460938.199219.9375.351562 1.429688.453125.492187.101563.988281.152344 1.488281.152344s.996094-.050781 1.488281-.152344c.492188-.101563.96875-.253906 1.425782-.453125.460937-.199219.898437-.441406 1.308593-.730469.410157-.285156.789063-.613281 1.132813-.980469.34375-.363281.644531-.761718.90625-1.1875.265625-.425781.480468-.875.652344-1.347656.171874-.472656.292968-.957031.363281-1.453125.070312-.496093.09375-.996093.0625-1.496093v-5.882813c0-.480469-.046875-.957031-.140625-1.425781s-.230469-.925782-.414063-1.367188c-.179687-.445312-.402343-.863281-.667969-1.265625-.265624-.398437-.566406-.765625-.90625-1.105469-.335937-.339843-.703124-.644531-1.101562-.914062-.394531-.265625-.8125-.492188-1.253906-.679688s-.898438-.328124-1.367188-.421874c-.46875-.097657-.941406-.148438-1.421875-.152344zm0 0"/></g></svg>