<svg xmlns="http://www.w3.org/2000/svg" xmlns:xlink="http://www.w3.org/1999/xlink" width="600" zoomAndPan="magnify" viewBox="0 0 450 449.999984" height="600" preserveAspectRatio="xMidYMid meet" version="1.0"><defs><clipPath id="id1"><path d="M 112 23 L 450 23 L 450 444.84375 L 112 444.84375 Z M 112 23 " clip-rule="nonzero"/></clipPath></defs><path fill="#e6a6cd" d="M 121.601562 202.277344 L 208.984375 289.667969 C 209.324219 290.011719 209.691406 290.316406 210.09375 290.585938 C 210.492188 290.855469 210.914062 291.082031 211.359375 291.269531 C 211.804688 291.457031 212.265625 291.59375 212.738281 291.691406 C 213.210938 291.785156 213.6875 291.832031 214.171875 291.832031 C 214.652344 291.832031 215.132812 291.785156 215.605469 291.691406 C 216.078125 291.597656 216.535156 291.457031 216.980469 291.269531 C 217.425781 291.082031 217.847656 290.855469 218.25 290.585938 C 218.648438 290.316406 219.019531 290.011719 219.359375 289.667969 C 219.699219 289.328125 220 288.957031 220.269531 288.554688 C 220.535156 288.152344 220.757812 287.730469 220.941406 287.285156 C 221.128906 286.839844 221.265625 286.382812 221.359375 285.910156 C 221.453125 285.4375 221.5 284.960938 221.5 284.476562 C 221.5 283.996094 221.453125 283.519531 221.359375 283.046875 C 221.265625 282.574219 221.128906 282.117188 220.941406 281.671875 C 220.757812 281.226562 220.535156 280.804688 220.269531 280.402344 C 220 280 219.699219 279.628906 219.359375 279.289062 L 132.003906 191.898438 L 141.042969 182.828125 L 205.214844 247.027344 C 205.554688 247.371094 205.921875 247.679688 206.324219 247.949219 C 206.722656 248.21875 207.144531 248.445312 207.589844 248.628906 C 208.035156 248.816406 208.496094 248.957031 208.96875 249.050781 C 209.441406 249.144531 209.917969 249.191406 210.402344 249.191406 C 210.882812 249.191406 211.359375 249.144531 211.832031 249.050781 C 212.308594 248.957031 212.765625 248.816406 213.210938 248.628906 C 213.65625 248.445312 214.078125 248.21875 214.480469 247.949219 C 214.878906 247.679688 215.25 247.371094 215.589844 247.027344 C 215.925781 246.6875 216.230469 246.316406 216.496094 245.914062 C 216.765625 245.515625 216.988281 245.089844 217.171875 244.644531 C 217.355469 244.203125 217.496094 243.742188 217.589844 243.269531 C 217.683594 242.796875 217.730469 242.320312 217.730469 241.839844 C 217.730469 241.359375 217.683594 240.878906 217.589844 240.410156 C 217.496094 239.9375 217.355469 239.476562 217.171875 239.03125 C 216.988281 238.585938 216.765625 238.164062 216.496094 237.761719 C 216.230469 237.363281 215.925781 236.992188 215.589844 236.648438 L 151.414062 172.449219 L 160.050781 163.808594 L 247.460938 251.226562 C 247.800781 251.570312 248.171875 251.875 248.570312 252.140625 C 248.972656 252.410156 249.394531 252.632812 249.839844 252.820312 C 250.285156 253.003906 250.742188 253.144531 251.214844 253.238281 C 251.6875 253.332031 252.164062 253.378906 252.648438 253.378906 C 253.128906 253.378906 253.605469 253.332031 254.078125 253.238281 C 254.550781 253.144531 255.011719 253.003906 255.453125 252.820312 C 255.898438 252.632812 256.324219 252.410156 256.722656 252.140625 C 257.125 251.875 257.496094 251.570312 257.835938 251.226562 C 258.175781 250.886719 258.480469 250.515625 258.746094 250.117188 C 259.015625 249.714844 259.242188 249.292969 259.425781 248.847656 C 259.609375 248.402344 259.75 247.941406 259.84375 247.46875 C 259.9375 246.996094 259.984375 246.519531 259.984375 246.039062 C 259.984375 245.558594 259.9375 245.078125 259.84375 244.605469 C 259.75 244.132812 259.609375 243.675781 259.425781 243.230469 C 259.242188 242.785156 259.015625 242.363281 258.746094 241.960938 C 258.480469 241.5625 258.175781 241.191406 257.835938 240.847656 L 170.425781 153.429688 L 176.976562 146.878906 L 252.808594 222.714844 C 253.148438 223.050781 253.519531 223.355469 253.921875 223.621094 C 254.320312 223.890625 254.746094 224.113281 255.1875 224.296875 C 255.632812 224.484375 256.09375 224.621094 256.566406 224.714844 C 257.035156 224.808594 257.515625 224.855469 257.996094 224.855469 C 258.476562 224.855469 258.953125 224.808594 259.425781 224.714844 C 259.898438 224.621094 260.355469 224.484375 260.800781 224.296875 C 261.246094 224.113281 261.667969 223.890625 262.070312 223.621094 C 262.46875 223.355469 262.839844 223.050781 263.183594 222.714844 C 263.523438 222.375 263.832031 222.003906 264.101562 221.601562 C 264.371094 221.203125 264.597656 220.78125 264.785156 220.335938 C 264.96875 219.890625 265.109375 219.429688 265.203125 218.957031 C 265.300781 218.484375 265.347656 218.007812 265.347656 217.523438 C 265.347656 217.039062 265.300781 216.5625 265.203125 216.089844 C 265.109375 215.617188 264.96875 215.15625 264.785156 214.710938 C 264.597656 214.265625 264.371094 213.84375 264.101562 213.445312 C 263.832031 213.042969 263.523438 212.671875 263.183594 212.335938 L 187.351562 136.5 L 203.179688 120.636719 L 278.957031 196.472656 C 279.304688 196.789062 279.675781 197.070312 280.074219 197.3125 C 280.476562 197.558594 280.894531 197.765625 281.332031 197.929688 C 281.773438 198.09375 282.222656 198.214844 282.683594 198.292969 C 283.144531 198.375 283.613281 198.40625 284.078125 198.398438 C 284.546875 198.386719 285.011719 198.332031 285.46875 198.234375 C 285.929688 198.136719 286.371094 197.996094 286.804688 197.8125 C 287.234375 197.625 287.644531 197.402344 288.03125 197.140625 C 288.421875 196.878906 288.78125 196.582031 289.113281 196.25 C 289.445312 195.921875 289.742188 195.5625 290.007812 195.171875 C 290.269531 194.785156 290.492188 194.375 290.679688 193.945312 C 290.863281 193.515625 291.003906 193.070312 291.105469 192.613281 C 291.203125 192.152344 291.261719 191.691406 291.273438 191.222656 C 291.28125 190.753906 291.25 190.285156 291.171875 189.824219 C 291.09375 189.363281 290.972656 188.910156 290.808594 188.472656 C 290.644531 188.03125 290.441406 187.613281 290.199219 187.214844 C 289.953125 186.8125 289.675781 186.4375 289.359375 186.09375 L 213.554688 110.285156 L 220.105469 103.730469 L 307.488281 191.121094 C 307.828125 191.464844 308.195312 191.769531 308.597656 192.039062 C 308.996094 192.308594 309.417969 192.539062 309.863281 192.722656 C 310.308594 192.910156 310.769531 193.050781 311.242188 193.144531 C 311.714844 193.238281 312.191406 193.285156 312.675781 193.285156 C 313.15625 193.285156 313.636719 193.238281 314.109375 193.144531 C 314.582031 193.050781 315.039062 192.910156 315.484375 192.722656 C 315.929688 192.539062 316.351562 192.308594 316.753906 192.039062 C 317.152344 191.769531 317.523438 191.464844 317.863281 191.121094 C 318.203125 190.78125 318.503906 190.410156 318.773438 190.007812 C 319.039062 189.605469 319.265625 189.183594 319.449219 188.738281 C 319.632812 188.292969 319.769531 187.835938 319.863281 187.363281 C 319.957031 186.890625 320.003906 186.414062 320.003906 185.933594 C 320.003906 185.449219 319.957031 184.972656 319.863281 184.5 C 319.769531 184.027344 319.632812 183.570312 319.449219 183.125 C 319.265625 182.679688 319.039062 182.257812 318.773438 181.855469 C 318.503906 181.453125 318.203125 181.082031 317.863281 180.742188 L 230.480469 93.351562 L 239.117188 84.710938 L 303.289062 148.910156 C 303.976562 149.597656 304.769531 150.128906 305.667969 150.5 C 306.570312 150.871094 307.503906 151.054688 308.476562 151.050781 C 309.449219 151.058594 310.386719 150.878906 311.289062 150.507812 C 312.1875 150.136719 312.980469 149.601562 313.664062 148.910156 C 314.007812 148.570312 314.3125 148.199219 314.582031 147.800781 C 314.851562 147.398438 315.082031 146.976562 315.265625 146.53125 C 315.453125 146.085938 315.589844 145.628906 315.6875 145.152344 C 315.78125 144.679688 315.828125 144.203125 315.828125 143.71875 C 315.828125 143.238281 315.78125 142.761719 315.6875 142.285156 C 315.589844 141.8125 315.453125 141.355469 315.265625 140.910156 C 315.082031 140.464844 314.851562 140.042969 314.582031 139.640625 C 314.3125 139.242188 314.007812 138.871094 313.664062 138.53125 L 249.492188 74.332031 L 258.53125 65.289062 L 345.910156 152.734375 C 346.25 153.074219 346.621094 153.378906 347.023438 153.648438 C 347.421875 153.914062 347.847656 154.140625 348.292969 154.324219 C 348.734375 154.507812 349.195312 154.648438 349.667969 154.742188 C 350.140625 154.835938 350.617188 154.882812 351.097656 154.882812 C 351.578125 154.878906 352.054688 154.832031 352.527344 154.738281 C 353 154.644531 353.457031 154.507812 353.902344 154.320312 C 354.347656 154.136719 354.769531 153.910156 355.171875 153.644531 C 355.570312 153.375 355.941406 153.070312 356.28125 152.730469 C 356.621094 152.390625 356.925781 152.019531 357.195312 151.621094 C 357.460938 151.21875 357.6875 150.796875 357.871094 150.351562 C 358.054688 149.90625 358.195312 149.449219 358.289062 148.976562 C 358.382812 148.503906 358.429688 148.027344 358.429688 147.542969 C 358.429688 147.0625 358.382812 146.585938 358.289062 146.113281 C 358.195312 145.640625 358.058594 145.183594 357.875 144.738281 C 357.691406 144.292969 357.464844 143.871094 357.195312 143.46875 C 356.929688 143.066406 356.625 142.699219 356.285156 142.355469 L 267.460938 53.441406 C 267.84375 52.597656 268.191406 51.742188 268.503906 50.871094 C 268.8125 50 269.085938 49.117188 269.320312 48.222656 C 269.550781 47.328125 269.746094 46.425781 269.902344 45.515625 C 270.054688 44.605469 270.171875 43.6875 270.246094 42.765625 C 270.320312 41.84375 270.355469 40.921875 270.351562 39.996094 C 270.34375 39.070312 270.300781 38.148438 270.214844 37.230469 C 270.128906 36.308594 270.003906 35.394531 269.835938 34.484375 C 269.671875 33.574219 269.46875 32.671875 269.222656 31.78125 C 268.980469 30.890625 268.699219 30.007812 268.378906 29.140625 C 268.058594 28.273438 267.703125 27.421875 267.308594 26.585938 C 266.914062 25.75 266.484375 24.933594 266.019531 24.132812 C 265.550781 23.335938 265.054688 22.558594 264.519531 21.804688 C 263.988281 21.046875 263.421875 20.316406 262.824219 19.609375 C 262.230469 18.90625 261.601562 18.226562 260.945312 17.574219 C 260.292969 16.921875 259.609375 16.300781 258.898438 15.710938 C 258.1875 15.117188 257.453125 14.558594 256.695312 14.027344 C 255.9375 13.5 255.15625 13.007812 254.355469 12.546875 C 253.554688 12.085938 252.734375 11.660156 251.894531 11.273438 C 251.058594 10.882812 250.203125 10.53125 249.335938 10.21875 C 248.464844 9.902344 247.585938 9.628906 246.691406 9.390625 C 245.796875 9.152344 244.894531 8.953125 243.984375 8.792969 C 243.074219 8.636719 242.160156 8.515625 241.238281 8.4375 C 240.316406 8.359375 239.394531 8.320312 238.472656 8.320312 C 237.546875 8.320312 236.625 8.363281 235.703125 8.441406 C 234.785156 8.523438 233.867188 8.644531 232.957031 8.804688 C 232.046875 8.96875 231.148438 9.167969 230.253906 9.40625 C 229.363281 9.648438 228.480469 9.925781 227.613281 10.242188 C 226.746094 10.558594 225.890625 10.910156 225.054688 11.300781 C 224.214844 11.691406 223.398438 12.117188 222.597656 12.578125 C 221.796875 13.042969 221.015625 13.539062 220.257812 14.066406 C 219.5 14.597656 218.769531 15.160156 218.058594 15.753906 C 217.351562 16.347656 216.671875 16.96875 216.015625 17.621094 L 11.921875 221.804688 C 11.578125 222.144531 11.273438 222.511719 11.003906 222.914062 C 10.734375 223.3125 10.507812 223.734375 10.320312 224.179688 C 10.132812 224.625 9.996094 225.085938 9.898438 225.558594 C 9.804688 226.03125 9.757812 226.511719 9.757812 226.992188 C 9.757812 227.476562 9.804688 227.953125 9.898438 228.425781 C 9.996094 228.898438 10.132812 229.359375 10.320312 229.804688 C 10.507812 230.25 10.734375 230.671875 11.003906 231.074219 C 11.273438 231.472656 11.578125 231.84375 11.921875 232.183594 C 12.605469 232.875 13.398438 233.40625 14.296875 233.78125 C 15.199219 234.152344 16.136719 234.332031 17.109375 234.324219 C 18.082031 234.328125 19.015625 234.144531 19.917969 233.773438 C 20.816406 233.402344 21.609375 232.871094 22.296875 232.183594 L 226.390625 28 C 226.988281 27.398438 227.625 26.839844 228.304688 26.332031 C 228.984375 25.824219 229.699219 25.367188 230.445312 24.964844 C 231.191406 24.558594 231.964844 24.214844 232.761719 23.925781 C 233.5625 23.636719 234.375 23.410156 235.207031 23.242188 C 236.039062 23.070312 236.878906 22.964844 237.726562 22.921875 C 238.574219 22.878906 239.421875 22.898438 240.265625 22.980469 C 241.113281 23.0625 241.945312 23.207031 242.769531 23.410156 C 243.59375 23.617188 244.398438 23.882812 245.179688 24.207031 C 245.964844 24.53125 246.722656 24.910156 247.449219 25.347656 C 248.179688 25.785156 248.871094 26.273438 249.527344 26.8125 C 250.183594 27.351562 250.792969 27.933594 251.363281 28.566406 C 251.933594 29.195312 252.453125 29.863281 252.921875 30.570312 C 253.394531 31.277344 253.808594 32.015625 254.167969 32.785156 C 254.53125 33.550781 254.832031 34.34375 255.078125 35.15625 C 255.320312 35.96875 255.503906 36.796875 255.625 37.636719 C 255.746094 38.476562 255.804688 39.324219 255.800781 40.171875 C 255.800781 41.902344 255.542969 43.597656 255.03125 45.25 C 254.523438 46.90625 253.78125 48.449219 252.808594 49.882812 L 233.769531 68.902344 L 184.679688 117.960938 L 154.625 148.027344 L 116.203125 186.46875 C 115.859375 186.878906 115.5625 187.324219 115.320312 187.804688 L 102.777344 200.324219 C 102.089844 201.003906 101.347656 201.621094 100.550781 202.179688 C 99.757812 202.734375 98.921875 203.222656 98.046875 203.636719 C 97.171875 204.054688 96.265625 204.394531 95.332031 204.65625 C 94.398438 204.921875 93.453125 205.105469 92.488281 205.210938 C 91.523438 205.316406 90.558594 205.339844 89.589844 205.28125 C 88.621094 205.226562 87.667969 205.085938 86.722656 204.871094 C 85.777344 204.652344 84.855469 204.355469 83.960938 203.984375 C 83.066406 203.613281 82.207031 203.167969 81.386719 202.652344 C 80.683594 202.195312 79.925781 201.867188 79.113281 201.671875 C 78.296875 201.476562 77.472656 201.425781 76.640625 201.515625 C 75.804688 201.605469 75.011719 201.832031 74.257812 202.199219 C 73.503906 202.5625 72.832031 203.042969 72.242188 203.640625 L 3.605469 272.253906 C 3.238281 272.589844 2.910156 272.957031 2.617188 273.359375 C 2.324219 273.761719 2.078125 274.191406 1.871094 274.644531 C 1.667969 275.097656 1.507812 275.566406 1.398438 276.050781 C 1.289062 276.535156 1.226562 277.027344 1.21875 277.523438 C 1.207031 278.019531 1.246094 278.511719 1.335938 279.003906 C 1.425781 279.492188 1.5625 279.964844 1.746094 280.425781 C 1.933594 280.890625 2.164062 281.328125 2.4375 281.742188 C 2.710938 282.15625 3.023438 282.539062 3.375 282.890625 C 3.726562 283.242188 4.109375 283.554688 4.527344 283.828125 C 4.941406 284.101562 5.378906 284.328125 5.839844 284.511719 C 6.304688 284.699219 6.777344 284.835938 7.265625 284.921875 C 7.757812 285.011719 8.25 285.046875 8.746094 285.035156 C 9.242188 285.023438 9.734375 284.960938 10.21875 284.851562 C 10.703125 284.738281 11.171875 284.578125 11.621094 284.375 C 12.074219 284.167969 12.5 283.917969 12.902344 283.625 C 13.304688 283.332031 13.671875 283 14.007812 282.632812 L 78.847656 217.765625 C 80.289062 218.332031 81.761719 218.792969 83.265625 219.148438 C 84.773438 219.503906 86.296875 219.746094 87.839844 219.882812 C 89.378906 220.015625 90.921875 220.039062 92.46875 219.949219 C 94.011719 219.859375 95.542969 219.660156 97.058594 219.351562 C 98.574219 219.039062 100.058594 218.621094 101.515625 218.09375 C 102.972656 217.570312 104.382812 216.941406 105.746094 216.210938 C 107.109375 215.484375 108.414062 214.660156 109.660156 213.738281 C 110.90625 212.820312 112.078125 211.816406 113.179688 210.730469 Z M 121.601562 202.277344 " fill-opacity="1" fill-rule="nonzero"/><g clip-path="url(#id1)"><path fill="#e6a6cd" d="M 338.71875 23.238281 C 331.316406 23.242188 324.007812 24.0625 316.789062 25.695312 C 309.570312 27.332031 302.621094 29.738281 295.9375 32.921875 C 295.1875 33.28125 294.515625 33.757812 293.925781 34.34375 C 293.335938 34.933594 292.859375 35.601562 292.496094 36.351562 C 292.132812 37.101562 291.90625 37.886719 291.808594 38.714844 C 291.714844 39.542969 291.757812 40.363281 291.941406 41.175781 C 292.125 41.988281 292.4375 42.746094 292.878906 43.453125 C 293.320312 44.160156 293.863281 44.773438 294.515625 45.296875 C 295.164062 45.816406 295.878906 46.214844 296.664062 46.492188 C 297.449219 46.769531 298.257812 46.910156 299.09375 46.914062 C 300.1875 46.917969 301.230469 46.683594 302.21875 46.21875 C 307.921875 43.488281 313.851562 41.421875 320.015625 40.023438 C 326.179688 38.625 332.421875 37.925781 338.746094 37.925781 C 391.742188 37.925781 435.003906 87.066406 435.003906 147.4375 C 435.003906 149.125 434.496094 316.230469 369.761719 421.144531 C 369.066406 422.4375 368.214844 423.617188 367.207031 424.6875 C 366.199219 425.757812 365.074219 426.679688 363.824219 427.453125 C 362.578125 428.226562 361.25 428.828125 359.847656 429.253906 C 358.441406 429.683594 357.003906 429.921875 355.535156 429.972656 C 354.042969 429.964844 352.582031 429.75 351.152344 429.328125 C 344.761719 427.535156 337.328125 421.035156 337.328125 408.757812 L 337.328125 362.238281 C 337.328125 325.621094 310.589844 295.792969 277.675781 295.792969 C 244.757812 295.792969 218.019531 325.621094 218.019531 362.238281 L 218.019531 408.757812 C 218.019531 421.035156 210.5625 427.484375 204.199219 429.328125 C 202.773438 429.75 201.324219 429.964844 199.839844 429.972656 C 198.371094 429.921875 196.933594 429.679688 195.523438 429.253906 C 194.117188 428.828125 192.789062 428.226562 191.539062 427.453125 C 190.289062 426.679688 189.160156 425.757812 188.152344 424.6875 C 187.144531 423.617188 186.289062 422.4375 185.585938 421.144531 C 150.210938 364.058594 134.222656 288.785156 127.136719 235.660156 C 127.078125 235.222656 126.980469 234.792969 126.84375 234.375 C 126.707031 233.957031 126.53125 233.550781 126.324219 233.164062 C 126.113281 232.777344 125.871094 232.410156 125.59375 232.066406 C 125.320312 231.722656 125.015625 231.402344 124.679688 231.113281 C 124.347656 230.824219 123.992188 230.570312 123.613281 230.34375 C 123.234375 230.117188 122.835938 229.929688 122.421875 229.777344 C 122.007812 229.625 121.585938 229.507812 121.152344 229.429688 C 120.714844 229.355469 120.277344 229.316406 119.835938 229.320312 L 118.875 229.320312 C 118.398438 229.386719 117.933594 229.496094 117.476562 229.65625 C 117.019531 229.8125 116.585938 230.011719 116.167969 230.257812 C 115.753906 230.5 115.367188 230.78125 115.003906 231.101562 C 114.644531 231.417969 114.316406 231.769531 114.027344 232.15625 C 113.734375 232.539062 113.484375 232.945312 113.273438 233.378906 C 113.0625 233.8125 112.894531 234.261719 112.769531 234.726562 C 112.648438 235.195312 112.570312 235.667969 112.539062 236.148438 C 112.511719 236.628906 112.527344 237.109375 112.589844 237.585938 C 119.972656 292.101562 136.46875 369.515625 173.046875 428.765625 C 173.722656 429.941406 174.472656 431.066406 175.296875 432.140625 C 176.117188 433.21875 177.007812 434.238281 177.960938 435.199219 C 178.914062 436.160156 179.921875 437.058594 180.992188 437.890625 C 182.058594 438.722656 183.175781 439.484375 184.34375 440.171875 C 185.511719 440.859375 186.714844 441.472656 187.960938 442.003906 C 189.207031 442.539062 190.480469 442.988281 191.78125 443.359375 C 193.085938 443.726562 194.40625 444.011719 195.746094 444.210938 C 197.085938 444.410156 198.433594 444.523438 199.785156 444.550781 C 202.613281 444.550781 205.386719 444.15625 208.101562 443.371094 C 222.753906 439.226562 232.59375 425.261719 232.59375 408.597656 L 232.59375 362.238281 C 232.539062 333.699219 252.808594 310.558594 277.515625 310.558594 C 302.21875 310.558594 322.488281 333.777344 322.488281 362.320312 L 322.488281 408.839844 C 322.488281 425.421875 332.328125 439.386719 346.980469 443.613281 C 349.695312 444.398438 352.46875 444.792969 355.296875 444.789062 C 356.648438 444.765625 357.996094 444.652344 359.335938 444.453125 C 360.675781 444.253906 361.996094 443.96875 363.300781 443.597656 C 364.601562 443.230469 365.875 442.777344 367.121094 442.246094 C 368.367188 441.710938 369.570312 441.101562 370.738281 440.414062 C 371.90625 439.726562 373.023438 438.964844 374.089844 438.132812 C 375.160156 437.300781 376.167969 436.402344 377.121094 435.441406 C 378.074219 434.476562 378.964844 433.457031 379.785156 432.382812 C 380.609375 431.304688 381.359375 430.179688 382.035156 429.007812 C 448.882812 320.511719 449.46875 154.609375 449.46875 147.597656 C 449.523438 78.960938 399.871094 23.238281 338.71875 23.238281 Z M 338.71875 23.238281 " fill-opacity="1" fill-rule="nonzero"/></g><path fill="#e6a6cd" d="M 395.484375 236.96875 C 395.949219 236.941406 396.402344 236.871094 396.855469 236.757812 C 397.304688 236.640625 397.738281 236.488281 398.160156 236.289062 C 398.578125 236.09375 398.976562 235.859375 399.355469 235.585938 C 399.730469 235.3125 400.078125 235.007812 400.394531 234.671875 C 400.714844 234.332031 400.996094 233.96875 401.246094 233.574219 C 401.496094 233.183594 401.703125 232.773438 401.875 232.339844 C 402.046875 231.910156 402.175781 231.464844 402.261719 231.007812 C 402.351562 230.550781 402.394531 230.09375 402.394531 229.628906 C 402.394531 229.164062 402.351562 228.703125 402.261719 228.246094 C 402.175781 227.792969 402.046875 227.347656 401.875 226.914062 C 401.703125 226.484375 401.496094 226.070312 401.246094 225.679688 C 400.996094 225.289062 400.714844 224.921875 400.394531 224.585938 C 400.078125 224.246094 399.730469 223.941406 399.355469 223.667969 C 398.976562 223.398438 398.578125 223.164062 398.160156 222.964844 C 397.738281 222.769531 397.304688 222.613281 396.855469 222.5 C 396.402344 222.382812 395.949219 222.3125 395.484375 222.285156 L 389.601562 222.285156 C 389.101562 222.253906 388.601562 222.277344 388.105469 222.347656 C 387.609375 222.417969 387.125 222.539062 386.65625 222.710938 C 386.183594 222.882812 385.734375 223.097656 385.308594 223.363281 C 384.878906 223.625 384.484375 223.929688 384.117188 224.273438 C 383.753906 224.617188 383.425781 224.992188 383.136719 225.402344 C 382.851562 225.8125 382.605469 226.25 382.410156 226.710938 C 382.210938 227.171875 382.058594 227.648438 381.957031 228.136719 C 381.855469 228.628906 381.804688 229.125 381.804688 229.628906 C 381.804688 230.128906 381.855469 230.625 381.957031 231.117188 C 382.058594 231.609375 382.210938 232.085938 382.410156 232.546875 C 382.605469 233.003906 382.851562 233.441406 383.136719 233.851562 C 383.425781 234.261719 383.753906 234.640625 384.117188 234.984375 C 384.484375 235.328125 384.878906 235.632812 385.308594 235.894531 C 385.734375 236.15625 386.183594 236.375 386.65625 236.542969 C 387.125 236.714844 387.609375 236.835938 388.105469 236.910156 C 388.601562 236.980469 389.101562 237 389.601562 236.96875 Z M 395.484375 236.96875 " fill-opacity="1" fill-rule="nonzero"/><path fill="#e6a6cd" d="M 377.863281 204.65625 C 377.378906 204.652344 376.898438 204.695312 376.425781 204.789062 C 375.949219 204.878906 375.488281 205.015625 375.039062 205.199219 C 374.589844 205.382812 374.164062 205.605469 373.761719 205.871094 C 373.355469 206.140625 372.984375 206.441406 372.640625 206.78125 C 372.296875 207.125 371.988281 207.496094 371.714844 207.894531 C 371.445312 208.296875 371.214844 208.71875 371.03125 209.167969 C 370.84375 209.613281 370.699219 210.074219 370.605469 210.546875 C 370.507812 211.023438 370.457031 211.503906 370.457031 211.984375 L 370.457031 217.871094 C 370.425781 218.371094 370.449219 218.871094 370.519531 219.367188 C 370.589844 219.863281 370.710938 220.347656 370.882812 220.820312 C 371.054688 221.292969 371.269531 221.742188 371.535156 222.167969 C 371.796875 222.59375 372.097656 222.992188 372.441406 223.355469 C 372.785156 223.722656 373.164062 224.050781 373.574219 224.335938 C 373.984375 224.625 374.421875 224.867188 374.878906 225.066406 C 375.339844 225.265625 375.816406 225.417969 376.308594 225.519531 C 376.800781 225.621094 377.296875 225.671875 377.796875 225.671875 C 378.296875 225.671875 378.792969 225.621094 379.285156 225.519531 C 379.777344 225.417969 380.253906 225.265625 380.710938 225.066406 C 381.171875 224.867188 381.609375 224.625 382.019531 224.335938 C 382.429688 224.050781 382.808594 223.722656 383.152344 223.355469 C 383.496094 222.992188 383.796875 222.59375 384.058594 222.167969 C 384.324219 221.742188 384.539062 221.292969 384.710938 220.820312 C 384.882812 220.347656 385.003906 219.863281 385.074219 219.367188 C 385.144531 218.871094 385.167969 218.371094 385.136719 217.871094 L 385.136719 211.984375 C 385.136719 211.507812 385.089844 211.03125 384.996094 210.5625 C 384.902344 210.09375 384.765625 209.636719 384.582031 209.195312 C 384.402344 208.75 384.179688 208.328125 383.914062 207.929688 C 383.648438 207.53125 383.347656 207.164062 383.007812 206.824219 C 382.671875 206.484375 382.304688 206.179688 381.910156 205.910156 C 381.511719 205.644531 381.09375 205.414062 380.652344 205.230469 C 380.210938 205.042969 379.753906 204.902344 379.285156 204.808594 C 378.816406 204.710938 378.34375 204.660156 377.863281 204.65625 Z M 377.863281 204.65625 " fill-opacity="1" fill-rule="nonzero"/><path fill="#e6a6cd" d="M 360.242188 222.285156 C 359.742188 222.253906 359.242188 222.277344 358.746094 222.347656 C 358.25 222.417969 357.765625 222.539062 357.296875 222.710938 C 356.824219 222.882812 356.375 223.097656 355.949219 223.363281 C 355.519531 223.625 355.125 223.929688 354.757812 224.273438 C 354.394531 224.617188 354.066406 224.992188 353.78125 225.402344 C 353.492188 225.8125 353.25 226.25 353.050781 226.710938 C 352.851562 227.171875 352.699219 227.648438 352.597656 228.136719 C 352.496094 228.628906 352.445312 229.125 352.445312 229.628906 C 352.445312 230.128906 352.496094 230.625 352.597656 231.117188 C 352.699219 231.609375 352.851562 232.085938 353.050781 232.546875 C 353.25 233.003906 353.492188 233.441406 353.78125 233.851562 C 354.066406 234.261719 354.394531 234.640625 354.757812 234.984375 C 355.125 235.328125 355.519531 235.632812 355.949219 235.894531 C 356.375 236.15625 356.824219 236.375 357.296875 236.542969 C 357.765625 236.714844 358.25 236.835938 358.746094 236.910156 C 359.242188 236.980469 359.742188 237 360.242188 236.96875 L 366.125 236.96875 C 366.589844 236.941406 367.046875 236.871094 367.496094 236.757812 C 367.945312 236.640625 368.378906 236.488281 368.800781 236.289062 C 369.222656 236.09375 369.617188 235.859375 369.996094 235.585938 C 370.371094 235.3125 370.71875 235.007812 371.035156 234.671875 C 371.355469 234.332031 371.636719 233.96875 371.886719 233.574219 C 372.136719 233.183594 372.347656 232.773438 372.515625 232.339844 C 372.6875 231.910156 372.816406 231.464844 372.90625 231.007812 C 372.992188 230.550781 373.035156 230.09375 373.035156 229.628906 C 373.035156 229.164062 372.992188 228.703125 372.90625 228.246094 C 372.816406 227.792969 372.6875 227.347656 372.515625 226.914062 C 372.347656 226.484375 372.136719 226.070312 371.886719 225.679688 C 371.636719 225.289062 371.355469 224.921875 371.035156 224.585938 C 370.71875 224.246094 370.371094 223.941406 369.996094 223.667969 C 369.617188 223.398438 369.222656 223.164062 368.800781 222.964844 C 368.378906 222.769531 367.945312 222.613281 367.496094 222.5 C 367.046875 222.382812 366.589844 222.3125 366.125 222.285156 Z M 360.242188 222.285156 " fill-opacity="1" fill-rule="nonzero"/><path fill="#e6a6cd" d="M 377.863281 234.027344 C 377.378906 234.023438 376.898438 234.070312 376.425781 234.160156 C 375.949219 234.25 375.488281 234.386719 375.039062 234.570312 C 374.589844 234.753906 374.164062 234.976562 373.761719 235.242188 C 373.355469 235.511719 372.984375 235.8125 372.640625 236.152344 C 372.296875 236.496094 371.988281 236.867188 371.714844 237.265625 C 371.445312 237.667969 371.214844 238.09375 371.03125 238.539062 C 370.84375 238.984375 370.699219 239.445312 370.605469 239.917969 C 370.507812 240.394531 370.457031 240.875 370.457031 241.359375 L 370.457031 247.242188 C 370.425781 247.742188 370.449219 248.242188 370.519531 248.738281 C 370.589844 249.234375 370.710938 249.71875 370.882812 250.191406 C 371.054688 250.664062 371.269531 251.113281 371.535156 251.539062 C 371.796875 251.964844 372.097656 252.363281 372.441406 252.726562 C 372.785156 253.09375 373.164062 253.421875 373.574219 253.707031 C 373.984375 253.996094 374.421875 254.238281 374.878906 254.4375 C 375.339844 254.636719 375.816406 254.789062 376.308594 254.890625 C 376.800781 254.992188 377.296875 255.042969 377.796875 255.042969 C 378.296875 255.042969 378.792969 254.992188 379.285156 254.890625 C 379.777344 254.789062 380.253906 254.636719 380.710938 254.4375 C 381.171875 254.238281 381.609375 253.996094 382.019531 253.707031 C 382.429688 253.421875 382.808594 253.09375 383.152344 252.726562 C 383.496094 252.363281 383.796875 251.964844 384.058594 251.539062 C 384.324219 251.113281 384.539062 250.664062 384.710938 250.191406 C 384.882812 249.71875 385.003906 249.234375 385.074219 248.738281 C 385.144531 248.242188 385.167969 247.742188 385.136719 247.242188 L 385.136719 241.359375 C 385.136719 240.878906 385.089844 240.402344 384.996094 239.933594 C 384.902344 239.464844 384.765625 239.007812 384.582031 238.566406 C 384.402344 238.121094 384.179688 237.703125 383.914062 237.300781 C 383.648438 236.902344 383.347656 236.535156 383.007812 236.195312 C 382.671875 235.855469 382.304688 235.550781 381.90625 235.28125 C 381.511719 235.015625 381.09375 234.789062 380.652344 234.601562 C 380.210938 234.414062 379.753906 234.273438 379.285156 234.179688 C 378.816406 234.082031 378.34375 234.03125 377.863281 234.027344 Z M 377.863281 234.027344 " fill-opacity="1" fill-rule="nonzero"/></svg>