<svg height="600" preserveAspectRatio="xMidYMid meet" viewBox="0 0 450 449.999984" width="600" xmlns="http://www.w3.org/2000/svg" zoomAndPan="magnify"><g fill="#e6a6cd"><path d="m280.347656 448.398438c-1.167968.003906-2.335937-.046876-3.503906-.152344-1.164062-.101563-2.320312-.261719-3.472656-.472656-1.152344-.210938-2.289063-.472657-3.417969-.789063-1.125-.316406-2.234375-.683594-3.328125-1.105469-1.089844-.417968-2.160156-.886718-3.210938-1.402344-1.050781-.519531-2.074218-1.085937-3.070312-1.695312-.996094-.613281-1.960938-1.269531-2.898438-1.972656-.9375-.699219-1.839843-1.445313-2.707031-2.230469-.867187-.785156-1.699219-1.605469-2.488281-2.46875-.792969-.859375-1.542969-1.757813-2.25-2.6875-.710938-.929687-1.375-1.894531-1.996094-2.886719-.617187-.992187-1.191406-2.007812-1.71875-3.054687-.523437-1.046875-1.003906-2.113281-1.429687-3.203125-.425781-1.085938-.804688-2.195313-1.128907-3.316406-.324218-1.125-.597656-2.261719-.816406-3.410157-.222656-1.148437-.386718-2.308593-.5-3.472656l-4.898437-48.949219c-.078125-.792968-.230469-1.574218-.453125-2.339844-.222656-.765624-.511719-1.503906-.871094-2.21875-.359375-.710937-.78125-1.382812-1.265625-2.019531-.484375-.632812-1.019531-1.21875-1.613281-1.753906-.589844-.535156-1.226563-1.011719-1.90625-1.429687-.679688-.421876-1.390625-.773438-2.136719-1.058594-.742187-.289063-1.507813-.503906-2.292969-.652344-.785156-.144531-1.574218-.21875-2.375-.21875-.796875 0-1.585937.074219-2.371094.21875-.785156.148438-1.550781.363281-2.292968.652344-.746094.285156-1.457032.636718-2.136719 1.058594-.679687.417968-1.316406.894531-1.90625 1.429687-.59375.535156-1.128906 1.121094-1.613281 1.753906-.484375.636719-.90625 1.308594-1.265625 2.019531-.359375.714844-.648438 1.453126-.871094 2.21875-.222656.765626-.375 1.546876-.453125 2.339844l-4.898438 48.949219c-.105468 1.054687-.253906 2.101563-.445312 3.144531-.195312 1.039063-.429688 2.070313-.710938 3.09375-.277343 1.019532-.597656 2.027344-.960937 3.023438s-.769531 1.972656-1.210937 2.933594c-.445313.960937-.929688 1.902343-1.453126 2.824218-.523437.917969-1.082031 1.816406-1.679687 2.691406s-1.230469 1.722657-1.898437 2.542969c-.671876.820313-1.371094 1.613281-2.105469 2.378907-.734375.761718-1.5 1.492187-2.292969 2.191406-.796875.699218-1.621094 1.363281-2.46875 1.996094-.851562.628906-1.726562 1.222656-2.628906 1.78125-.898438.558593-1.820313 1.078124-2.765625 1.558593-.941407.480469-1.902344.921875-2.882813 1.324219-.980468.398438-1.976562.757812-2.988281 1.078125-1.007813.316406-2.03125.59375-3.0625.824219-1.035156.234375-2.074219.421875-3.125.570312-1.046875.144532-2.101563.246094-3.15625.304688-1.058594.058594-2.117187.074218-3.175781.042968-1.058594-.027343-2.113282-.101562-3.164063-.21875-1.054687-.117187-2.097656-.28125-3.136719-.484374-1.039062-.203126-2.070312-.453126-3.085937-.742188-1.019531-.292969-2.023437-.625-3.015625-.996094-.992188-.375-1.964844-.789062-2.917969-1.246094-.957031-.453124-1.894531-.949218-2.808593-1.480468-.914063-.535156-1.804688-1.105469-2.671876-1.710938-.867187-.609375-1.710937-1.25-2.523437-1.929687-.8125-.675781-1.597656-1.386719-2.351563-2.128907-.757812-.742187-1.480468-1.515624-2.167968-2.320312-.691406-.800781-1.347656-1.632812-1.96875-2.488281-.621094-.859375-1.207032-1.742188-1.753906-2.648438-.546876-.90625-1.054688-1.832031-1.527344-2.78125-.46875-.949219-.898438-1.914062-1.289063-2.898437-19.492187-50.953125-34.101562-103.265625-43.832031-156.941406-.234375-1.300782-.4375-2.605469-.605469-3.914063s-.300781-2.625-.398437-3.941406c-.101563-1.316407-.167969-2.632813-.199219-3.953125-.03125-1.320313-.027344-2.640625.007813-3.960938.039062-1.320312.109374-2.640625.214843-3.957031.101563-1.316406.242188-2.628906.414063-3.9375s.378906-2.613281.621094-3.914063c.238281-1.296874.511718-2.589843.820312-3.875.304688-1.28125.644531-2.558593 1.019531-3.824218.371094-1.269532.777344-2.523438 1.214844-3.769532.4375-1.246093.90625-2.480468 1.410156-3.703124.5-1.222657 1.03125-2.429688 1.597657-3.625.5625-1.191407 1.15625-2.371094 1.78125-3.535157.625-1.164062 1.28125-2.308593 1.964843-3.441406.683594-1.128906 1.394531-2.238281 2.136719-3.332031s1.511719-2.167969 2.308594-3.21875c.796875-1.054688 1.621094-2.085938 2.46875-3.097656.851562-1.007813 1.726562-1.996094 2.628906-2.960938s1.828125-1.90625 2.777344-2.824219c.949218-.917969 1.921875-1.808593 2.917968-2.675781.996094-.867188 2.015626-1.710938 3.054688-2.523438 1.039062-.816406 2.101562-1.601562 3.179688-2.363281 1.082031-.757812 2.179687-1.488281 3.296874-2.191406 1.117188-.703125 2.253907-1.378906 3.40625-2.023437 1.152344-.644532 2.324219-1.257813 3.507813-1.839844 1.183594-.585938 2.382813-1.136719 3.597656-1.660156 1.210938-.519532 2.4375-1.011719 3.675781-1.46875 1.238282-.460938 2.488282-.886719 3.75-1.28125 1.257813-.394532 2.527344-.753907 3.808594-1.082032 1.277344-.328125 2.566406-.625 3.859375-.886718 1.296875-.261719 2.59375-.488282 3.902344-.683594 1.304687-.195313 2.617187-.355469 3.929687-.480469 2.613282-.261719 5.234376-.382813 7.859376-.371094 2.625.015625 5.246093.167969 7.855468.457031 2.609375.289063 5.199219.714844 7.761719 1.273438 2.566406.5625 5.097656 1.253906 7.589844 2.078125 2.492187.828125 4.9375 1.78125 7.328125 2.863281 2.394531 1.078125 4.726562 2.28125 6.992187 3.609375 2.265625 1.324219 4.457031 2.765625 6.574219 4.320313 2.117188 1.554687 4.144531 3.21875 6.085938 4.984375 1.597656 1.46875 3.160156 2.941406 4.699218 4.441406.28125.269531.585938.511719.914063.722656.328125.210938.671875.390625 1.03125.535157.363281.148437.734375.257812 1.117187.332031.382813.074219.769532.109375 1.15625.109375.390625 0 .777344-.035156 1.160156-.109375.382813-.074219.753907-.183594 1.117188-.332031.359375-.144532.703125-.324219 1.03125-.535157.328125-.210937.632812-.453125.914062-.722656 1.535157-1.5 3.101563-2.972656 4.6875-4.425781 1.941407-1.769532 3.96875-3.429688 6.085938-4.984375 2.117188-1.558594 4.308594-3 6.578125-4.324219 2.265625-1.328125 4.597656-2.53125 6.992187-3.613281 2.390626-1.082031 4.835938-2.035157 7.328126-2.863281 2.496093-.824219 5.023437-1.519532 7.589843-2.078126 2.566407-.5625 5.15625-.988281 7.765625-1.277343 2.609375-.289063 5.230469-.445313 7.855469-.460938 2.628906-.015625 5.25.109375 7.863281.367188 1.3125.125 2.625.285156 3.929688.480469 1.308594.195312 2.605468.421874 3.902344.683593 1.292968.261719 2.582031.558594 3.859374.886719 1.28125.328125 2.550782.6875 3.808594 1.082031 1.261719.394531 2.511719.820313 3.75 1.28125 1.238282.457031 2.464844.945313 3.679688 1.46875 1.210937.523438 2.410156 1.074219 3.59375 1.660157 1.1875.582031 2.355468 1.195312 3.507812 1.839843s2.289063 1.320313 3.40625 2.023438c1.117188.703125 2.21875 1.433593 3.296875 2.191406 1.082031.761719 2.140625 1.546875 3.179688 2.363281 1.039062.8125 2.058593 1.652344 3.054687 2.519532.996094.867187 1.96875 1.761718 2.917969 2.679687s1.875 1.859375 2.777344 2.824219c.902343.964844 1.777343 1.953125 2.628906 2.960937.851563 1.011719 1.671875 2.042969 2.46875 3.097657.796875 1.050781 1.566406 2.125 2.308594 3.21875.742187 1.09375 1.453125 2.203124 2.140625 3.332031.683594 1.132812 1.335937 2.277343 1.960937 3.441406s1.21875 2.34375 1.785157 3.535156c.5625 1.195313 1.09375 2.402344 1.597656 3.625.5 1.222657.96875 2.457031 1.40625 3.703125s.84375 2.5 1.21875 3.769532c.371094 1.265624.710937 2.542968 1.019531 3.828124.304687 1.28125.578125 2.574219.820313 3.871094.238281 1.300782.445312 2.605469.617187 3.914063.171875 1.308593.3125 2.621093.417969 3.9375.101562 1.316406.175781 2.636719.210937 3.957031.035157 1.320312.039063 2.640625.007813 3.960938-.03125 1.320312-.097656 2.636718-.199219 3.953124-.097656 1.320313-.230469 2.632813-.398437 3.941407-.167969 1.308593-.371094 2.617187-.605469 3.914062-9.730469 53.675781-24.339844 105.988281-43.832031 156.941407-.703126 1.761718-1.535157 3.464843-2.492188 5.105468s-2.03125 3.203125-3.21875 4.683594c-1.191406 1.480469-2.480469 2.863281-3.878906 4.152344-1.394532 1.289062-2.878906 2.464844-4.449219 3.535156-1.570313 1.066406-3.210937 2.011719-4.921875 2.835938-1.714844.820312-3.476562 1.515624-5.292969 2.074218-1.8125.5625-3.660156.984375-5.535156 1.269532-1.878906.289062-3.769531.433593-5.667969.4375zm-55.746094-110.972657c.886719-.003906 1.777344.035157 2.664063.113281.882813.082032 1.765625.203126 2.640625.363282s1.742188.359375 2.597656.601562c.855469.242188 1.699219.519532 2.53125.839844.832032.320312 1.644532.675781 2.441406 1.070312.800782.394532 1.578126.824219 2.335938 1.289063s1.492188.964844 2.207031 1.5c.710938.53125 1.394531 1.097656 2.054688 1.695313.660156.597656 1.292969 1.222656 1.894531 1.878906s1.171875 1.335937 1.710938 2.046875c.539062.707031 1.042968 1.4375 1.515624 2.191406.472657.753906.90625 1.53125 1.308594 2.324219.398438.796875.761719 1.609375 1.085938 2.4375.324218.828125.609375 1.667968.859375 2.523437.246093.855469.453125 1.71875.621093 2.59375.167969.875.292969 1.753907.378907 2.640625l4.894531 48.949219c.125 1.222656.347656 2.425781.671875 3.613281.324219 1.183594.746094 2.335938 1.261719 3.449219.515625 1.117187 1.117187 2.179687 1.8125 3.195313.695312 1.015624 1.464844 1.964843 2.316406 2.851562s1.773438 1.695312 2.757812 2.429688c.988282.730468 2.027344 1.378906 3.121094 1.9375 1.097656.558593 2.230469 1.023437 3.402344 1.394531 1.171875.371093 2.367188.640625 3.582031.8125 1.21875.171875 2.441407.242187 3.667969.207031 1.230469-.03125 2.445312-.164062 3.652344-.402344 1.207031-.234375 2.386718-.566406 3.535156-1 1.152344-.429687 2.257812-.957031 3.320312-1.570312 1.066407-.617188 2.070313-1.316406 3.015626-2.101563.949218-.785156 1.824218-1.640625 2.625-2.570312.804687-.929688 1.527343-1.921875 2.164062-2.96875.640625-1.050781 1.1875-2.148438 1.644531-3.289063 19.03125-50.019531 33.363281-101.351562 42.996094-153.996094.1875-1.027343.34375-2.058593.476563-3.09375.132812-1.039062.238281-2.078124.316406-3.117187.074218-1.042969.128906-2.085937.152344-3.128906.023437-1.046875.019531-2.089844-.007813-3.132813-.03125-1.046875-.089844-2.085937-.171875-3.128906s-.195312-2.078125-.332031-3.113281c-.136719-1.039063-.300781-2.070313-.492188-3.09375-.191406-1.027344-.40625-2.050781-.648437-3.066407-.246094-1.015624-.515625-2.023437-.808594-3.027343-.296875-1-.617188-1.996094-.964844-2.980469s-.71875-1.960938-1.117187-2.925781c-.394531-.964844-.816407-1.921875-1.265625-2.867188-.445313-.941406-.917969-1.875-1.410156-2.796875-.496094-.917968-1.015626-1.824218-1.554688-2.71875-.542969-.890625-1.105469-1.769531-1.695312-2.636718-.585938-.863282-1.195313-1.710938-1.824219-2.542969-.632813-.832031-1.285157-1.648438-1.957031-2.449219-.671876-.796875-1.367188-1.578125-2.078126-2.339844-.714843-.765625-1.445312-1.507812-2.199218-2.234375-.75-.726562-1.519532-1.429687-2.308594-2.117187-.789062-.683594-1.59375-1.347656-2.417969-1.992188-.820312-.644531-1.660156-1.265625-2.515625-1.867187-.851562-.601563-1.722656-1.179688-2.605468-1.734375-.886719-.554688-1.785157-1.085938-2.695313-1.597656-.914063-.507813-1.839844-.992188-2.773437-1.453126-.9375-.464843-1.886719-.898437-2.847657-1.3125-.957031-.414062-1.929687-.800781-2.910156-1.160156-.976563-.363281-1.964844-.699218-2.964844-1.011718-.996093-.3125-2-.597657-3.011719-.855469-1.011718-.261719-2.03125-.492188-3.054687-.699219s-2.050781-.386719-3.085937-.542969c-1.03125-.152343-2.070313-.277343-3.109376-.378906-2.054687-.214844-4.117187-.324219-6.1875-.320313-2.066406.003907-4.128906.117188-6.183593.339844-2.058594.21875-4.097657.550782-6.117188.988282s-4.011719.980468-5.976562 1.632812c-1.964844.648438-3.886719 1.398438-5.769531 2.253906-1.886719.851563-3.71875 1.800782-5.5 2.851563-1.785157 1.046875-3.507813 2.1875-5.167969 3.417969-1.664063 1.230468-3.253907 2.542968-4.777344 3.945312-1.457031 1.328125-2.898437 2.6875-4.324219 4.082031-.511718.492188-1.046875.957031-1.601562 1.398438-.554688.441406-1.132813.855469-1.726563 1.242187-.597656.382813-1.210937.742188-1.839843 1.066406-.628907.328126-1.273438.625-1.929688.890626-.660156.265624-1.328125.496093-2.011719.699218-.679687.199219-1.367187.371094-2.0625.503906-.699219.136719-1.398437.238282-2.105469.304688-.707031.066406-1.414062.101562-2.125.101562-.710937 0-1.417968-.035156-2.125-.101562-.707031-.066406-1.40625-.167969-2.105468-.304688-.695313-.132812-1.382813-.304687-2.0625-.503906-.683594-.203125-1.351563-.433594-2.011719-.699218-.65625-.265626-1.300781-.5625-1.929687-.890626-.628907-.324218-1.242188-.683593-1.839844-1.066406-.59375-.386718-1.171875-.800781-1.726563-1.242187-.554687-.441407-1.089843-.90625-1.601562-1.398438-1.421875-1.390625-2.867188-2.753906-4.332031-4.097656-1.523438-1.398437-3.113282-2.714844-4.773438-3.945313-1.664062-1.230468-3.386719-2.367187-5.167969-3.414062s-3.617187-2-5.5-2.851562c-1.882812-.851563-3.804687-1.601563-5.769531-2.25-1.960938-.648438-3.953125-1.191407-5.972656-1.628907-2.023438-.4375-4.0625-.769531-6.117188-.988281-2.054687-.222656-4.117187-.332031-6.183594-.335938-2.066406 0-4.128906.105469-6.183593.324219-1.042969.097657-2.078125.226563-3.109375.378907-1.035156.152343-2.0625.332031-3.085938.539062-1.023437.207031-2.042968.441406-3.054687.699219-1.011719.261719-2.015625.546875-3.015625.855469-.996094.3125-1.984375.648437-2.964844 1.011718-.976562.363282-1.949219.75-2.90625 1.160156-.960938.414063-1.910156.851563-2.847656 1.3125-.9375.460938-1.859375.945313-2.773438 1.453126-.910156.511718-1.808594 1.042968-2.695312 1.597656-.882813.554687-1.753906 1.132812-2.609375 1.734375-.851563.601562-1.691407 1.222656-2.515625 1.867187-.820313.644532-1.625 1.308594-2.414063 1.992188-.789062.6875-1.558593 1.390625-2.3125 2.117187-.75.726563-1.484375 1.46875-2.195312 2.230469-.714844.765625-1.40625 1.546875-2.082031 2.34375-.671876.800781-1.324219 1.617188-1.953126 2.449219-.632812.832031-1.242187 1.679687-1.828124 2.542969-.585938.863281-1.152344 1.742187-1.691407 2.636718-.542969.894532-1.0625 1.800782-1.554687 2.71875-.496094.921875-.964844 1.851563-1.414063 2.796875-.445312.945313-.867187 1.898438-1.265625 2.863281-.398437.96875-.769531 1.945313-1.117187 2.929688-.34375.984375-.667969 1.976562-.960938 2.980469-.296875 1-.566406 2.011719-.808593 3.027343-.246094 1.015626-.460938 2.035157-.652344 3.0625-.191406 1.027344-.355469 2.058594-.492188 3.09375-.136718 1.035157-.246094 2.074219-.332031 3.113282-.082031 1.042968-.140625 2.085937-.171875 3.128906-.027344 1.042969-.03125 2.089844-.007812 3.132812.023437 1.042969.074218 2.085938.152343 3.128907s.183594 2.082031.316407 3.117187c.132812 1.035156.289062 2.066406.472656 3.097656 9.632812 52.644532 23.96875 103.976563 43 153.996094.457031 1.140625 1.003906 2.234375 1.640625 3.285156.640625 1.050782 1.363281 2.039063 2.164062 2.96875.804688.929688 1.679688 1.789063 2.628907 2.570313.945312.785156 1.949218 1.484375 3.011718 2.101563 1.066406.617187 2.171875 1.140624 3.324219 1.570312 1.148437.433594 2.328125.765625 3.535156 1.003906 1.203125.234375 2.421875.367188 3.652344.402344 1.226563.03125 2.449219-.039062 3.667969-.210938 1.214844-.171874 2.410156-.441406 3.582031-.8125 1.171875-.371093 2.304687-.835937 3.398437-1.394531 1.097657-.558593 2.136719-1.203125 3.121094-1.9375.988282-.734375 1.90625-1.542969 2.757813-2.429687.855469-.882813 1.625-1.835938 2.320312-2.847656.691407-1.015626 1.296875-2.082032 1.8125-3.195313.515625-1.117187.9375-2.269531 1.261719-3.453125.324219-1.1875.546875-2.390625.671875-3.613281l4.894531-48.949219c.085938-.886719.210938-1.765625.378906-2.636719.167969-.875.375-1.738281.621094-2.59375.25-.855469.535156-1.699219.859375-2.527343.324219-.828126.6875-1.636719 1.085938-2.433594.402343-.792969.835937-1.570313 1.308593-2.324219.472657-.753906.976563-1.484375 1.515626-2.195313.539062-.707031 1.109374-1.386718 1.710937-2.042968s1.234375-1.28125 1.890625-1.878906c.660156-.597657 1.347656-1.164063 2.058594-1.695313.710937-.535156 1.449218-1.035156 2.207031-1.5s1.535156-.894531 2.332031-1.289063c.796875-.394531 1.613282-.75 2.441406-1.070312.832032-.320312 1.675782-.597656 2.53125-.839844.859376-.242187 1.722657-.441406 2.597657-.601562s1.757812-.28125 2.644531-.363282c.882812-.078124 1.773438-.117187 2.664062-.113281zm0 0"/><path d="m288.65625 144.128906h-128.113281c-.839844 0-1.660157-.128906-2.460938-.386718-.796875-.257813-1.539062-.632813-2.222656-1.125-.679687-.492188-1.269531-1.074219-1.765625-1.75-.5-.679688-.882812-1.414063-1.148438-2.210938l-32.027343-96.085938c-.265625-.792968-.402344-1.605468-.410157-2.441406-.011718-.832031.105469-1.648437.351563-2.445312s.605469-1.539063 1.082031-2.222656c.480469-.6875 1.046875-1.28125 1.710938-1.789063.664062-.503906 1.386718-.898437 2.175781-1.179687.785156-.28125 1.59375-.433594 2.429687-.460938.832032-.027344 1.652344.074219 2.453126.304688.800781.230468 1.550781.574218 2.246093 1.039062l41.738281 27.828125 43.5-58c.386719-.472656.824219-.898437 1.304688-1.273437.484375-.378907 1.003906-.699219 1.558594-.960938.550781-.261719 1.128906-.457031 1.726562-.59375.597656-.132812 1.203125-.199219 1.816406-.199219.609376 0 1.214844.066407 1.8125.199219.597657.136719 1.175782.332031 1.726563.59375.554687.261719 1.074219.582031 1.558594.960938.480469.375.917969.800781 1.304687 1.273437l43.5 57.996094 41.738282-27.824219c.695312-.464844 1.445312-.808594 2.246093-1.039062.800781-.230469 1.621094-.332032 2.453125-.304688.835938.027344 1.644532.179688 2.429688.460938.789062.28125 1.511718.675781 2.175781 1.179687.664063.507813 1.230469 1.101563 1.710937 1.789063.476563.683593.835938 1.425781 1.082032 2.222656s.363281 1.613281.351562 2.445312c-.007812.835938-.144531 1.648438-.410156 2.441406l-32.027344 96.085938c-.265625.796875-.648437 1.53125-1.144531 2.207031-.5.679688-1.089844 1.261719-1.769531 1.753907-.683594.492187-1.421875.867187-2.222656 1.125-.800782.257812-1.621094.386718-2.460938.386718zm-122.34375-16.015625h116.574219l22.824219-68.464843-28.628907 19.078124c-.421875.28125-.863281.519532-1.332031.71875-.46875.195313-.949219.347657-1.445312.453126-.496094.105468-.996094.164062-1.503907.171874-.507812.011719-1.011719-.027343-1.511719-.113281-.5-.085937-.984374-.214843-1.460937-.394531s-.929687-.398438-1.359375-.664062c-.433594-.265626-.839844-.566407-1.214844-.910157-.375-.339843-.714844-.714843-1.015625-1.121093l-41.636719-55.511719-41.640624 55.511719c-.300782.40625-.640626.78125-1.015626 1.121093-.375.339844-.78125.644531-1.214843.910157-.429688.261718-.882813.484374-1.359375.664062-.472656.175781-.960938.308594-1.460938.394531-.5.085938-1.003906.125-1.511718.113281-.503907-.007812-1.007813-.066406-1.503907-.171874-.496093-.105469-.976562-.257813-1.445312-.453126-.464844-.195312-.910157-.433593-1.332031-.714843l-28.628907-19.082031zm0 0"/><path d="m224.601562 112.101562c-.789062 0-1.574218-.039062-2.355468-.117187-.785156-.078125-1.5625-.191406-2.332032-.347656-.773437-.152344-1.535156-.34375-2.289062-.570313-.75-.230468-1.492188-.496094-2.21875-.796875s-1.4375-.636719-2.128906-1.007812c-.695313-.371094-1.371094-.773438-2.023438-1.210938s-1.285156-.90625-1.894531-1.402343c-.605469-.5-1.1875-1.027344-1.746094-1.585938-.554687-.554688-1.082031-1.136719-1.582031-1.746094-.5-.605468-.96875-1.238281-1.40625-1.890625-.433594-.65625-.839844-1.328125-1.210938-2.023437-.371093-.695313-.707031-1.40625-1.007812-2.132813-.300781-.726562-.566406-1.464843-.792969-2.21875-.230469-.753906-.421875-1.515625-.574219-2.285156-.152343-.773437-.269531-1.550781-.34375-2.332031-.078124-.785156-.117187-1.570313-.117187-2.355469s.039063-1.570313.117187-2.355469c.074219-.78125.191407-1.558594.34375-2.332031.152344-.769531.34375-1.53125.574219-2.285156.226563-.753907.492188-1.492188.792969-2.21875.300781-.726563.636719-1.4375 1.007812-2.132813.371094-.691406.777344-1.367187 1.210938-2.019531.4375-.65625.90625-1.285156 1.40625-1.894531s1.027344-1.191406 1.582031-1.746094c.558594-.558594 1.140625-1.085938 1.746094-1.585938.609375-.496093 1.242187-.964843 1.894531-1.402343s1.328125-.839844 2.023438-1.210938c.691406-.371093 1.402344-.707031 2.128906-1.007812s1.46875-.566407 2.21875-.796875c.753906-.226563 1.515625-.417969 2.289062-.570313.769532-.15625 1.546876-.269531 2.332032-.347656.78125-.078125 1.566406-.113281 2.355468-.113281.785157 0 1.570313.035156 2.351563.113281.785156.078125 1.5625.191406 2.332031.347656.773438.152344 1.535156.34375 2.289063.570313.75.230468 1.492187.496094 2.21875.796875.726562.300781 1.4375.636719 2.128906 1.007812.695313.371094 1.371094.773438 2.023437 1.210938.652344.4375 1.285157.90625 1.894532 1.402343.605468.5 1.1875 1.027344 1.746094 1.585938.554687.554688 1.082031 1.136719 1.582031 1.746094s.96875 1.238281 1.40625 1.894531c.433593.652344.839843 1.328125 1.210937 2.019531.371094.695313.707032 1.40625 1.007813 2.132813.300781.726562.566406 1.464843.792969 2.21875.230468.753906.421874 1.515625.574218 2.285156.152344.773437.269532 1.550781.34375 2.332031.078125.785156.117188 1.570313.117188 2.355469s-.039063 1.570313-.117188 2.355469c-.078125.78125-.195312 1.558594-.347656 2.328125-.15625.773437-.347656 1.535156-.574219 2.285156-.230469.753906-.496093 1.492187-.796875 2.21875-.300781.726563-.636718 1.4375-1.007812 2.132813-.371094.691406-.777344 1.367187-1.210938 2.019531-.4375.652343-.90625 1.285156-1.40625 1.890625-.5.609375-1.027344 1.191406-1.582031 1.746094-.558594.558593-1.140625 1.085937-1.746094 1.585937-.609375.496094-1.238281.964844-1.894531 1.402344-.652344.4375-1.324219.839843-2.019531 1.210937-.695313.371094-1.402344.707032-2.128907 1.011719-.726562.300781-1.46875.566406-2.21875.792969-.753906.230468-1.515624.421875-2.285156.574218-.773437.15625-1.550781.269532-2.332031.347657s-1.566406.117187-2.351563.121093zm0-32.03125c-.527343 0-1.046874.050782-1.5625.15625-.515624.101563-1.019531.253907-1.503906.453126-.484375.203124-.945312.449218-1.382812.742187-.4375.289063-.84375.621094-1.214844.996094-.371094.371093-.703125.773437-.996094 1.210937-.292968.4375-.539062.898438-.738281 1.386719-.203125.484375-.355469.984375-.457031 1.5-.101563.515625-.152344 1.035156-.152344 1.5625s.050781 1.046875.152344 1.5625c.101562.515625.253906 1.015625.457031 1.5.199219.488281.445313.949219.738281 1.386719.292969.4375.625.839844.996094 1.210937.371094.375.777344.707031 1.214844.996094.4375.292969.898437.539063 1.382812.742187.484375.199219.988282.351563 1.503906.453126.515626.105468 1.035157.15625 1.5625.15625.523438 0 1.042969-.050782 1.558594-.15625.515625-.101563 1.019532-.253907 1.503906-.453126.484376-.203124.945313-.449218 1.382813-.742187.4375-.289063.84375-.621094 1.214844-.996094.371093-.371093.703125-.773437.996093-1.210937.292969-.4375.539063-.898438.738282-1.386719.203125-.484375.355468-.984375.457031-1.5s.152344-1.035156.152344-1.5625-.050781-1.046875-.152344-1.5625c-.105469-.515625-.257813-1.015625-.457031-1.5-.203125-.484375-.449219-.945313-.742188-1.382813-.289062-.4375-.621094-.84375-.996094-1.214843-.371093-.371094-.773437-.703125-1.210937-.996094s-.898437-.539063-1.382813-.738281c-.488281-.203125-.988281-.355469-1.503906-.457032-.515625-.101562-1.035156-.15625-1.558594-.15625zm0 0"/></g></svg>