<svg height="600" preserveAspectRatio="xMidYMid meet" viewBox="0 0 450 449.999984" width="600" xmlns="http://www.w3.org/2000/svg" zoomAndPan="magnify"><g fill="#e6a6cd"><path d="m308.121094 294.25 78.789062-98.449219 40.554688-33.925781c1.230468-1.019531 2.378906-2.128906 3.441406-3.320312 1.066406-1.191407 2.039062-2.457032 2.917969-3.792969.882812-1.335938 1.65625-2.726563 2.332031-4.179688.671875-1.449219 1.234375-2.941406 1.6875-4.472656.449219-1.535156.789062-3.09375 1.011719-4.675781.21875-1.585938.324219-3.175782.308593-4.773438-.011718-1.601562-.144531-3.191406-.390624-4.769531-.25-1.578125-.613282-3.132813-1.09375-4.65625-.476563-1.527344-1.066407-3.007813-1.761719-4.449219-.699219-1.4375-1.5-2.816406-2.402344-4.136718-.902344-1.320313-1.894531-2.566407-2.980469-3.742188-1.085937-1.171875-2.253906-2.261719-3.5-3.261719-1.25-1-2.5625-1.90625-3.945312-2.710937-1.378906-.808594-2.8125-1.507813-4.296875-2.101563-1.484375-.597656-3.003907-1.078125-4.5625-1.449219-1.554688-.371093-3.128907-.625-4.722657-.761718-1.003906 0-2.007812-.144532-2.867187-.144532-1.875.003907-3.742187.167969-5.589844.5-1.851562.328126-3.65625.816407-5.417969 1.464844-1.765624.644532-3.457031 1.441406-5.082031 2.386719s-3.152343 2.023437-4.585937 3.234375l-42.960938 36.015625c-1.496094 1.265625-2.859375 2.660156-4.09375 4.179687 0 0 0 0-.144531 0s0 0 0 0l-.199219.171876-68.738281 85.882812-121.402344-22.902344c-3.25-.597656-6.515625-.703125-9.792969-.320312-3.28125.386718-6.433593 1.246094-9.453124 2.582031l-100.242188 44.800781c-.972656.433594-1.921875.914063-2.847656 1.441406-.925782.527344-1.824219 1.097657-2.691406 1.714844-.871094.613282-1.707032 1.269532-2.511719 1.96875-.804688.695313-1.574219 1.433594-2.308594 2.207032-.730469.773437-1.421875 1.578124-2.074219 2.421874-.65625.839844-1.265625 1.710938-1.832031 2.613282s-1.085937 1.828125-1.5625 2.78125-.902344 1.925781-1.28125 2.921875c-.382813.996093-.710937 2.007812-.992187 3.035156-.277344 1.027344-.507813 2.066406-.683594 3.117187-.179688 1.046876-.304688 2.105469-.378906 3.167969-.074219 1.0625-.09375 2.125-.0625 3.1875.03125 1.066407.113281 2.125.25 3.183594.136718 1.054687.324218 2.101563.5625 3.140625.238281 1.035156.527343 2.058594.867187 3.070312.339844 1.007813.730469 2 1.164063 2.96875.640624 1.421876 1.375 2.789063 2.210937 4.105469.835937 1.316407 1.757813 2.566407 2.773437 3.75 1.015626 1.179688 2.109376 2.285157 3.28125 3.3125 1.171876 1.023438 2.414063 1.960938 3.722657 2.808594 1.308593.847656 2.667969 1.597656 4.085937 2.25 1.414063.652344 2.871094 1.199219 4.363282 1.640625 1.496093.445312 3.011718.777344 4.554687 1.003906 1.542969.222656 3.09375.335938 4.652344.339844 4.625 0 9.046875-.953125 13.261719-2.863281l90.730468-40.367188 24.257813 4.554688-14.320313 44.601562h-47.714844c-1.175781 0-2.292968.253907-3.355468.753907s-1.96875 1.203124-2.714844 2.109374l-17.414062 21.125c-.261719.40625-.480469.828126-.664063 1.273438-.183594.441406-.324219.902344-.421875 1.371094s-.15625.945312-.167969 1.425781.023438.957031.097657 1.429687c.074218.476563.191406.9375.351562 1.390626.160156.453124.363281.886718.601562 1.304687.242188.414063.515626.804687.828126 1.171875s.652343.699219 1.027343 1.003906c.371094.300782.769531.570313 1.1875.800782.421875.230468.863281.417968 1.320313.570312.453125.148438.921875.257812 1.398437.320312.476563.066407.953125.085938 1.433594.066407.480469-.023438.953125-.089844 1.421875-.199219.464844-.109375.921875-.261719 1.359375-.453125.441406-.191406.859375-.421875 1.257813-.691406.398437-.269531.769531-.570313 1.113281-.90625l15.035156-18.265625h39.152344l-11.773438 36.929687h-26.460937c-1.742188 0-3.480469.078125-5.21875.234375-1.734375.15625-3.457032.390625-5.171875.703125-1.714844.3125-3.410157.699219-5.089844 1.164063s-3.332031 1.003906-4.964844 1.617187c-1.628906.609375-3.230469 1.296875-4.796875 2.050781-1.570312.757813-3.101562 1.582032-4.597656 2.476563s-2.945312 1.851563-4.355469 2.878906c-1.410156 1.023438-2.769531 2.109375-4.078125 3.253907-1.3125 1.148437-2.570312 2.351562-3.773437 3.609374-1.203125 1.257813-2.347657 2.570313-3.433594 3.933594-1.082031 1.359375-2.105469 2.769532-3.066406 4.222656-.957031 1.453126-1.847657 2.949219-2.671875 4.480469-.824219 1.535157-1.578125 3.101563-2.261719 4.703125-.683594 1.601563-1.292969 3.230469-1.832031 4.890625-.535156 1.65625-1 3.332031-1.386719 5.03125-.382813 1.695313-.695313 3.40625-.925781 5.132813h-14.320313c-.496093.03125-.984375.105468-1.46875.230468-.480469.121094-.945312.289063-1.398437.5-.449219.210938-.875.460938-1.277344.753907-.402344.289062-.773438.617187-1.117188.976562-.339843.363281-.644531.753907-.910156 1.171875-.265625.421875-.492187.863282-.675781 1.324219s-.320313.9375-.414063 1.425781c-.09375.488282-.140624.980469-.140624 1.476563 0 .496093.046874.988281.140624 1.476562s.230469.964844.414063 1.425781c.183594.460938.410156.902344.675781 1.320313.265625.421875.570313.8125.910156 1.171875.34375.363281.714844.691406 1.117188.980469.402344.292969.828125.542969 1.277344.753906.453125.210937.917968.378906 1.398437.5.484375.125.972657.199219 1.46875.230469h389.503907c.496093-.03125.984374-.105469 1.464843-.230469.484375-.121094.949219-.289063 1.398438-.5.453125-.210937.878906-.460937 1.28125-.753906.402343-.289063.773437-.617188 1.113281-.980469.34375-.359375.644531-.75.914062-1.171875.265626-.417969.492188-.859375.675782-1.320313.183594-.460937.320312-.9375.414062-1.425781s.140625-.980469.140625-1.476562c0-.496094-.046875-.988281-.140625-1.476563-.09375-.488281-.230468-.964844-.414062-1.425781s-.410156-.902344-.675782-1.324219c-.269531-.417968-.570312-.808594-.914062-1.167968-.339844-.363282-.710938-.691407-1.113281-.980469-.402344-.292969-.828125-.542969-1.28125-.753907-.449219-.210937-.914063-.378906-1.398438-.5-.480469-.125-.96875-.199218-1.464843-.230468h-19.648438c-.234375-1.722656-.546875-3.433594-.9375-5.128906-.390625-1.695313-.855469-3.371094-1.398438-5.027344-.539062-1.652344-1.152343-3.277344-1.839843-4.878906-.683594-1.597657-1.441407-3.164063-2.269531-4.695313-.828126-1.53125-1.71875-3.023437-2.679688-4.472656-.960938-1.453125-1.984375-2.855469-3.074219-4.214844-1.085937-1.359375-2.230469-2.667969-3.4375-3.925781-1.203125-1.257813-2.460937-2.457032-3.773437-3.601563-1.3125-1.140625-2.671875-2.222656-4.082032-3.246093-1.410156-1.019532-2.863281-1.976563-4.359374-2.867188-1.492188-.894531-3.027344-1.714844-4.59375-2.46875-1.570313-.753906-3.171876-1.4375-4.800782-2.046875s-3.285156-1.144531-4.964844-1.609375c-1.675781-.460938-3.371093-.847656-5.085937-1.15625s-3.4375-.542969-5.171875-.699219c-1.734375-.152343-3.46875-.230469-5.210938-.230469h-27.207031l-35.800781-77.667968c3.527344-.820313 6.824219-2.195313 9.886719-4.128906 3.066406-1.933594 5.726562-4.316407 7.984375-7.148438zm-236.796875 139.214844c.230469-1.203125.511719-2.390625.839843-3.570313.332032-1.175781.714844-2.339843 1.144532-3.484375.433594-1.144531.914062-2.269531 1.441406-3.371094.53125-1.105468 1.105469-2.183593 1.730469-3.238281.621093-1.050781 1.285156-2.078125 1.996093-3.074219.710938-.996093 1.464844-1.960937 2.257813-2.890624.796875-.933594 1.628906-1.828126 2.5-2.6875.871094-.859376 1.777344-1.679688 2.722656-2.460938.941407-.777344 1.914063-1.519531 2.921875-2.214844 1.007813-.695312 2.039063-1.347656 3.105469-1.957031 1.0625-.605469 2.148437-1.167969 3.257813-1.679687 1.113281-.515626 2.242187-.980469 3.394531-1.394532 1.152343-.417968 2.320312-.78125 3.503906-1.097656 1.179687-.316406 2.375-.578125 3.582031-.789062 1.203125-.210938 2.417969-.371094 3.636719-.480469 1.21875-.105469 2.441406-.160157 3.667969-.160157h240.230468c1.222657 0 2.445313.054688 3.664063.164063s2.429687.265625 3.636719.480469c1.203125.210937 2.398437.476562 3.578125.792968 1.183593.3125 2.351562.679688 3.5 1.097657 1.152343.414062 2.28125.878906 3.390625 1.394531 1.113281.511719 2.199218 1.074219 3.261718 1.679688 1.058594.609374 2.09375 1.261718 3.101563 1.957031 1.003906.699219 1.976563 1.4375 2.917969 2.21875s1.847656 1.601562 2.71875 2.460937 1.703125 1.753906 2.5 2.683594c.792968.929688 1.542968 1.894531 2.253906 2.890625s1.375 2.019531 2 3.074219c.621094 1.054687 1.195312 2.132812 1.722656 3.234375.53125 1.101562 1.011719 2.226562 1.441406 3.371093.429688 1.144532.8125 2.304688 1.144532 3.484376.332031 1.175781.609375 2.367187.839844 3.566406zm79.5625-182.128906c-.039063-.480469-.125-.957032-.253907-1.421876-.128906-.46875-.300781-.917968-.511718-1.351562-.214844-.4375-.464844-.847656-.753906-1.234375-.289063-.390625-.613282-.75-.96875-1.078125-.355469-.328125-.738282-.621094-1.148438-.875-.414062-.257812-.84375-.476562-1.292969-.652344-.453125-.179687-.914062-.3125-1.390625-.402344-.476562-.089843-.957031-.136718-1.441406-.140624h-.859375c-.511719.054687-1.011719.15625-1.503906.308593-.492188.152344-.964844.351563-1.414063.59375-.453125.246094-.878906.53125-1.277344.859375-.394531.328125-.753906.691406-1.082031 1.089844-.324219.398438-.609375.824219-.851562 1.277344-.242188.453125-.4375.925781-.585938 1.417968-.148437.492188-.25.996094-.300781 1.507813s-.050781 1.023437 0 1.535156l1.574219 15.429688-87.921875 39.335937c-2.097656.925782-4.296875 1.382813-6.589844 1.371094-1.617188.011719-3.207031-.203125-4.765625-.640625-1.558594-.441406-3.027344-1.085937-4.402344-1.941406-1.375-.851563-2.605469-1.878907-3.691406-3.082031-1.085937-1.199219-1.980469-2.527344-2.691406-3.980469-.222657-.503907-.421875-1.015625-.59375-1.539063-.171875-.519531-.316407-1.050781-.4375-1.585937-.121094-.535157-.214844-1.078125-.28125-1.621094-.066407-.546875-.105469-1.09375-.121094-1.644531-.011719-.546875.003906-1.097656.042969-1.644532.042968-.546874.109375-1.09375.203125-1.632812.097656-.542969.21875-1.078125.367187-1.609375.144532-.527344.320313-1.046875.519532-1.5625.199218-.511719.421874-1.011719.671874-1.5.246094-.492187.519532-.96875.816407-1.433594.292969-.460937.613281-.910156.953125-1.339843.339844-.433594.699218-.847657 1.078125-1.246094.382812-.394532.78125-.773438 1.199219-1.128906.417968-.355469.851562-.691407 1.304687-1.007813.449219-.3125.914063-.605469 1.394531-.875.480469-.265625.972656-.511719 1.476563-.730469l100.238281-44.804687c2.183594-.949219 4.464844-1.425781 6.84375-1.429688 1.042969-.003906 2.074219.089844 3.09375.285157l121.40625 22.730468 3.921875 12.398438c.253906.792968.621094 1.527344 1.105469 2.207031.488281.675781 1.066406 1.261719 1.738281 1.757813.671875.492187 1.402344.871093 2.195313 1.132812.789062.261719 1.601562.394531 2.4375.398438.8125.003906 1.605468-.121094 2.375-.375.492187-.152344.964843-.355469 1.417968-.601563.453125-.25.875-.539063 1.269532-.871094.398437-.328125.753906-.695312 1.078124-1.097656.324219-.402344.605469-.832031.84375-1.289063.234376-.457031.425782-.933593.570313-1.429687s.238281-1 .285156-1.511719c.042969-.515625.039063-1.027344-.019531-1.539062-.054688-.511719-.160156-1.015625-.316406-1.507813l-4.183594-12.882812 63.8125-79.726563 24.972656 22.214844-74.464844 93.210938c-.941406 1.1875-2.027343 2.226562-3.253906 3.117187-1.226562.890625-2.550781 1.601563-3.972656 2.128906-1.417969.53125-2.882812.859375-4.394531.992188-1.511719.128906-3.011719.054687-4.503907-.226563l-127.390624-23.84375zm272.425781-112.847657c-.175781 2.230469-.78125 4.335938-1.808594 6.324219-1.027344 1.984375-2.402344 3.695312-4.121094 5.125l-35.972656 29.972656-25.289062-22.414062 39.839844-33.324219c1.5-1.261719 3.175781-2.230469 5.023437-2.898437 1.847656-.667969 3.75-1 5.714844-.992188.496093-.027344.992187-.027344 1.488281 0 .546875.046875 1.089844.125 1.628906.226562.535156.101563 1.070313.230469 1.59375.386719.527344.152344 1.042969.335938 1.550782.539063.507812.207031 1.003906.433594 1.488281.691406.488281.253906.960937.53125 1.417969.828125.457031.300781.898437.625 1.328124.96875.425782.34375.832032.707031 1.222657 1.089844.394531.382812.765625.785156 1.113281 1.207031.351562.417969.683594.855469.992188 1.308594.308593.453125.59375.917968.855468 1.398437.265625.480469.503906.972657.71875 1.476563s.402344 1.019531.566406 1.542968c.164063.519532.300782 1.050782.414063 1.585938s.199219 1.078125.257813 1.621094c.058593.542968.089843 1.089844.097656 1.636718.003906.550782-.015625 1.09375-.066406 1.640626zm-267.328125 244.707031 30.042969-94.328124 86.78125 16.261718 35.914062 78.066406zm0 0"/><path d="m49.675781 135.050781c1.035157 3.507813 2.820313 6.582031 5.355469 9.21875v65.558594c-.035156.535156-.011719 1.070313.066406 1.601563.074219.53125.207032 1.046874.386719 1.554687.183594.503906.417969.984375.699219 1.441406s.605468.882813.972656 1.273438.773438.738281 1.210938 1.046875c.441406.308594.90625.570312 1.402343.78125.492188.214844 1 .375 1.527344.484375s1.058594.164062 1.59375.164062c.539063 0 1.070313-.054687 1.59375-.164062.527344-.109375 1.039063-.269531 1.53125-.484375.492187-.210938.957031-.472656 1.398437-.78125.441407-.308594.84375-.65625 1.210938-1.046875s.695312-.816407.976562-1.273438.511719-.9375.695313-1.441406c.183594-.507813.3125-1.023437.390625-1.554687.074219-.53125.097656-1.066407.066406-1.601563v-55.9375c11.371094 3.535156 23.007813 5.15625 34.910156 4.863281 25.613282-.503906 50.71875-4.320312 75.324219-11.449218 30.328125-8.503907 57.96875-20.496094 77.757813-34.066407 28.179687-19.265625 30.875-34.753906 28.210937-44.371093 0 0-12.375-44.289063-12.375-44.289063-4.78125-16.746094-27.035156-23.730469-56.105469-23.730469-25.609374.503906-50.71875 4.324219-75.320312 11.449219-58.972656 16.433594-114.304688 48.667969-105.96875 78.441406zm220.011719-65.011719c.394531.386719.769531.796876 1.117188 1.230469.09375.144531.167968.296875.226562.457031.273438.425782.492188.871094.660156 1.347657 1.316406 4.722656-3.636718 14.683593-21.9375 27.195312-18.300781 12.511719-44.277344 23.847657-73.148437 31.890625-22.992188 6.746094-46.46875 10.332032-70.425781 10.765625-24.285157 0-39.578126-5.152343-41.5-12.109375-.828126-2.863281.804687-7.929687 6.589843-14.316406 4.621094-4.882812 9.738281-9.175781 15.351563-12.882812 18.300781-12.507813 44.246094-23.816407 73.117187-31.890626 5.726563-1.601562 11.453125-2.859374 17.183594-4.234374l2.460937-.574219c5.386719-1.144531 10.710938-2.117188 15.925782-2.863281l2.863281-.429688c5.183594-.773438 10.28125-1.371094 15.207031-1.800781l2.0625-.144531c5.128906-.402344 10.140625-.660157 14.863282-.660157 2.960937 0 5.824218.085938 8.59375.257813 6.464843.242187 12.824218 1.195312 19.074218 2.863281.234375.042969.460938.097656.6875.171875 1.429688.402344 2.664063.886719 3.867188 1.347656l.570312.226563c.976563.402343 1.75.832031 2.523438 1.230469l.972656.515624c.460938.285157.898438.601563 1.316406.945313.441406.265625.863282.5625 1.261719.886719zm-10.367188-41.253906 5.726563 21.015625h-.171875c-1.433594-.488281-2.863281-.917969-4.582031-1.316406l-1.546875-.429687c-1.203125-.289063-2.464844-.546876-3.753906-.773438l-1.972657-.375c-1.347656-.226562-2.867187-.429688-4.269531-.597656l-2.03125-.257813c-2.207031-.230469-4.5-.429687-6.933594-.574219-2.863281-.171874-6.070312-.230468-9.277344-.230468h-.402343c-4.953125 0-10.167969.257812-15.492188.660156l-2.378906.171875c-5.183594.429687-10.539063 1.085937-16.007813 1.859375l-3.179687.488281c-5.460937.859375-11.039063 1.890625-16.726563 3.089844l-2.664062.601563c-6.015625 1.316406-12.027344 2.863281-18.101562 4.496093-30.5 8.585938-58.109376 20.582031-77.785157 34.039063-2.035156 1.402344-3.867187 2.859375-5.726562 4.09375l-1.605469 1.230468-3.351562 2.863282-1.574219 1.371094c-1.003907.890624-1.917969 1.777343-2.863281 2.636718l-1.203126 1.171875c-1.203124 1.230469-2.292968 2.40625-3.292968 3.578125l-5.730469-21.011718c-3.433594-12.308594 31.878906-41.453126 95.085937-59.085938 22.957032-6.734375 46.394532-10.332031 70.3125-10.792969 24.285157 0 39.550782 5.152344 41.5 12.078125zm0 0"/></g></svg>