<svg height="600" preserveAspectRatio="xMidYMid meet" viewBox="0 0 450 449.999984" width="600" xmlns="http://www.w3.org/2000/svg" xmlns:xlink="http://www.w3.org/1999/xlink" zoomAndPan="magnify"><clipPath id="a"><path d="m0 100.40625h450v245.59375h-450zm0 0"/></clipPath><g clip-path="url(#a)"><path d="m121.851562 161.589844c-1.292968-6.640625-.351562-13.363282 3.203126-19.203125 5.984374-9.839844 18.023437-15.640625 29.363281-12.085938 11.109375 3.480469 19.808593 14.191407 19.386719 26.082031-.195313 5.671876-4.480469 9.871094-10.128907 10.121094-5.339843.238282-10.3125-4.828125-10.128906-10.121094.011719-.378906 0-.742187 0-1.109374-.113281-.460938-.226563-.941407-.382813-1.390626-.277343-.546874-.589843-1.078124-.925781-1.585937-.449219-.492187-.914062-.96875-1.417969-1.417969-.535156-.351562-1.070312-.660156-1.628906-.953125-.4375-.140625-.886718-.265625-1.335937-.367187-.335938-.011719-.6875-.011719-1.027344 0-.378906.085937-.742187.183594-1.121094.308594-.4375.242187-.871093.480468-1.292969.761718-.507812.449219-.984374.925782-1.433593 1.417969-.367188.558594-.71875 1.148437-1.027344 1.738281-.167969.519532-.320313 1.054688-.433594 1.585938-.027343.605468-.015625 1.222656.042969 1.828125.601562 5.179687-2.011719 9.78125-7.238281 11.46875-4.945313 1.585937-11.460938-1.867188-12.472657-7.078125zm124.277344-24.257813c1.757813 1.753907 4.636719 3.074219 7.167969 2.960938 5.015625-.222657 10.730469-4.476563 10.128906-10.121094-.097656-.898437.011719-1.796875-.015625-2.695313.097656-.390624.226563-.785156.351563-1.164062.015625-.027344.027343-.042969.042969-.070312.253906-.476563.519531-.941407.8125-1.390626.03125-.042968.042968-.070312.070312-.097656.242188-.265625.480469-.546875.734375-.800781.347656-.363281.714844-.703125 1.09375-1.039063.757813-.433593 1.742187-.855468 2.5-1.347656.492187-.152344.984375-.253906 1.476563-.390625.394531-.015625.785156-.042969 1.179687-.03125h.015625c.097656 0 .390625 0 .699219.042969.3125.027344.632812.054688.941406.070312-.265625-.015624-.488281-.015624-.6875-.027343.058594.011719.113281.027343.167969.027343.535156.125 1.070312.265626 1.589844.433594.054687.015625.113281.042969.183593.070313-.15625-.082031-.339843-.179688-.550781-.292969.210938.113281.421875.222656.648438.335938.492187.199218.96875.476562.730468.378906.519532.269531 1.039063.546875 1.53125.871094.113282.070312.210938.140624.308594.210937.238281.195313.492188.378906.703125.574219.714844.648437 1.390625 1.714844 2.148437 2.304687.28125.421875.5625.839844.816407 1.277344.308593.519531.574219 1.050781.839843 1.585937.351563 1.082032.691407 2.148438.914063 3.257813 1.082031 5.191406 7.488281 8.6875 12.460937 7.074219 5.496094-1.78125 8.234376-6.894532 7.082032-12.453125-2.9375-14.179688-16.3125-26.238281-31.078125-26.011719-14.863281.222656-29.601563 13.800781-27.972657 29.296875.28125 2.765625.929688 5.140625 2.964844 7.160156zm25.558594-16.199219c-.140625.011719.054688.042969.96875.082032-.085938-.011719-.167969-.027344-.253906-.039063-.238282-.015625-.476563-.03125-.714844-.042969zm2.890625.617188c.464844.238281.71875.363281.816406.421875-.238281-.128906-.492187-.253906-.730469-.378906-.027343-.015625-.054687-.03125-.085937-.042969zm174.648437-10.964844c-.785156-2.457031-2.316406-4.816406-4.664062-6.050781-2.570312-1.363281-4.945312-1.433594-7.8125-1.023437-12.683594 1.796874-25.371094 3.59375-38.058594 5.402343-2.332031.339844-4.929687 2.726563-6.054687 4.664063-1.265625 2.175781-1.8125 5.375-1.027344 7.804687.789063 2.457031 2.320313 4.8125 4.664063 6.050781 2.574218 1.359376 4.945312 1.429688 7.8125 1.023438.84375-.113281 1.671874-.238281 2.515624-.351562 7.683594 70.320312-32.761718 139.097656-93.089843 173.984374-62.773438 36.304688-140.886719 27.90625-201.230469-9.335937-17.125-10.570313-32.71875-23.402344-46.402344-38.160156-6.746094-7.269531-12.96875-14.976563-18.5625-23.164063-6.222656-9.109375-13.191406-18.910156-12.023437-30.433594.433593-.210937.855469-.4375 1.304687-.632812 2.179688-.980469 4.046875-3.847656 4.664063-6.050781.675781-2.429688.367187-5.65625-1.023438-7.804688-1.390625-2.164062-3.472656-4.070312-6.054687-4.660156-.902344-.128906-1.800782-.238281-2.699219-.367187-1.828125 0-3.539063.464843-5.113281 1.378906-8.667969 3.902344-16.648438 9.558594-23.394532 16.242187-1.851562 1.796875-2.976562 4.546875-2.976562 7.128907 0 2.488281 1.109375 5.449218 2.964844 7.160156 1.925781 1.769531 4.46875 3.089844 7.164062 2.964844 2.136719-.101563 4.144532-.6875 5.859375-1.898438 3.835938 16.414062 16.410157 31.660156 26.453125 43.972656 12.644532 15.496094 27.410156 29.042969 43.5 40.90625 31.242188 23.023438 68.503906 38.707032 106.96875 44.152344 39.71875 5.617188 79.96875.675781 116.414063-16.410156 35.09375-16.453125 65.0625-43.617188 86.21875-75.949219 23.675781-36.164063 36.082031-80.164063 31.277343-123.359375-.101562-.855469-.269531-1.683594-.523437-2.484375 5.285156-.746094 10.554687-1.503906 15.835937-2.246094 2.332032-.335937 4.929688-2.722656 6.054688-4.660156 1.292969-2.164063 1.828125-5.363281 1.039062-7.792969zm0 0" fill="#e6a6cd"/></g></svg>